<?xml version="1.0"?>
<svg width="124" height="256">
  <circle cx="21" cy="122" r="11" fill="#800080" />
  <circle cx="22" cy="143" r="11" fill="#800080" />
  <circle cx="101" cy="110" r="11" fill="#800080" />
  <circle cx="101" cy="148" r="11" fill="#800080" />
  <circle cx="25" cy="164" r="10" fill="#800080" />
  <circle cx="24" cy="102" r="9" fill="#800080" />
  <circle cx="32" cy="182" r="9" fill="#800080" />
  <circle cx="94" cy="84" r="9" fill="#800080" />
  <circle cx="97" cy="167" r="9" fill="#800080" />
  <circle cx="100" cy="129" r="9" fill="#800080" />
  <circle cx="30" cy="85" r="8" fill="#800080" />
  <circle cx="89" cy="185" r="7" fill="#800080" />
  <circle cx="43" cy="193" r="7" fill="#800080" />
  <circle cx="83" cy="69" r="7" fill="#800080" />
  <circle cx="38" cy="72" r="6" fill="#800080" />
  <circle cx="79" cy="195" r="5" fill="#800080" />
  <circle cx="46" cy="65" r="5" fill="#800080" />
  <circle cx="53" cy="199" r="5" fill="#800080" />
  <circle cx="55" cy="62" r="5" fill="#800080" />
  <circle cx="62" cy="200" r="5" fill="#800080" />
  <circle cx="64" cy="61" r="5" fill="#800080" />
  <circle cx="73" cy="63" r="5" fill="#800080" />
  <circle cx="102" cy="95" r="5" fill="#800080" />
  <circle cx="71" cy="199" r="4" fill="#800080" />
  <circle cx="92" cy="96" r="4" fill="#800080" />
  <circle cx="97" cy="179" r="3" fill="#800080" />
  <circle cx="15" cy="155" r="3" fill="#800080" />
  <circle cx="21" cy="91" r="3" fill="#800080" />
  <circle cx="30" cy="75" r="3" fill="#800080" />
  <circle cx="88" cy="176" r="3" fill="#800080" />
  <circle cx="92" cy="72" r="3" fill="#800080" />
  <circle cx="110" cy="121" r="3" fill="#800080" />
  <circle cx="110" cy="136" r="3" fill="#800080" />
  <circle cx="111" cy="128" r="3" fill="#800080" />
</svg>
