<?xml version="1.0"?>
<svg width="124" height="256">
  <circle cx="21" cy="121" r="10" fill="#800080" />
  <circle cx="21" cy="141" r="10" fill="#800080" />
  <circle cx="100" cy="105" r="10" fill="#800080" />
  <circle cx="101" cy="147" r="10" fill="#800080" />
  <circle cx="102" cy="125" r="10" fill="#800080" />
  <circle cx="23" cy="160" r="9" fill="#800080" />
  <circle cx="24" cy="102" r="9" fill="#800080" />
  <circle cx="30" cy="178" r="9" fill="#800080" />
  <circle cx="90" cy="77" r="8" fill="#800080" />
  <circle cx="96" cy="171" r="8" fill="#800080" />
  <circle cx="29" cy="85" r="7" fill="#800080" />
  <circle cx="40" cy="191" r="7" fill="#800080" />
  <circle cx="37" cy="73" r="6" fill="#800080" />
  <circle cx="87" cy="187" r="6" fill="#800080" />
  <circle cx="98" cy="89" r="6" fill="#800080" />
  <circle cx="77" cy="65" r="5" fill="#800080" />
  <circle cx="79" cy="195" r="5" fill="#800080" />
  <circle cx="45" cy="65" r="4" fill="#800080" />
  <circle cx="49" cy="198" r="4" fill="#800080" />
  <circle cx="54" cy="62" r="4" fill="#800080" />
  <circle cx="57" cy="199" r="4" fill="#800080" />
  <circle cx="62" cy="61" r="4" fill="#800080" />
  <circle cx="69" cy="199" r="4" fill="#800080" />
  <circle cx="104" cy="161" r="4" fill="#800080" />
</svg>
