<?xml version="1.0"?>
<svg width="107" height="256">
  <circle cx="81" cy="82" r="10" fill="#800080" />
  <circle cx="19" cy="87" r="9" fill="#800080" />
  <circle cx="81" cy="102" r="9" fill="#800080" />
  <circle cx="18" cy="191" r="8" fill="#800080" />
  <circle cx="86" cy="192" r="8" fill="#800080" />
  <circle cx="33" cy="193" r="7" fill="#800080" />
  <circle cx="47" cy="193" r="7" fill="#800080" />
  <circle cx="61" cy="193" r="7" fill="#800080" />
  <circle cx="73" cy="120" r="7" fill="#800080" />
  <circle cx="64" cy="131" r="6" fill="#800080" />
  <circle cx="68" cy="66" r="6" fill="#800080" />
  <circle cx="21" cy="73" r="5" fill="#800080" />
  <circle cx="21" cy="175" r="5" fill="#800080" />
  <circle cx="27" cy="167" r="5" fill="#800080" />
  <circle cx="34" cy="159" r="5" fill="#800080" />
  <circle cx="42" cy="152" r="5" fill="#800080" />
  <circle cx="49" cy="145" r="5" fill="#800080" />
  <circle cx="73" cy="191" r="5" fill="#800080" />
  <circle cx="28" cy="67" r="4" fill="#800080" />
  <circle cx="42" cy="62" r="4" fill="#800080" />
  <circle cx="51" cy="61" r="4" fill="#800080" />
  <circle cx="55" cy="138" r="4" fill="#800080" />
</svg>
