<?xml version="1.0"?>
<svg width="107" height="256">
  <circle cx="82" cy="86" r="11" fill="#800080" />
  <circle cx="19" cy="87" r="10" fill="#800080" />
  <circle cx="80" cy="107" r="9" fill="#800080" />
  <circle cx="18" cy="192" r="9" fill="#800080" />
  <circle cx="87" cy="192" r="9" fill="#800080" />
  <circle cx="72" cy="69" r="8" fill="#800080" />
  <circle cx="34" cy="193" r="8" fill="#800080" />
  <circle cx="49" cy="193" r="8" fill="#800080" />
  <circle cx="64" cy="193" r="8" fill="#800080" />
  <circle cx="70" cy="124" r="7" fill="#800080" />
  <circle cx="57" cy="138" r="6" fill="#800080" />
  <circle cx="23" cy="72" r="6" fill="#800080" />
  <circle cx="21" cy="175" r="5" fill="#800080" />
  <circle cx="26" cy="167" r="5" fill="#800080" />
  <circle cx="32" cy="160" r="5" fill="#800080" />
  <circle cx="33" cy="65" r="5" fill="#800080" />
  <circle cx="39" cy="154" r="5" fill="#800080" />
  <circle cx="42" cy="62" r="5" fill="#800080" />
  <circle cx="46" cy="147" r="5" fill="#800080" />
  <circle cx="51" cy="61" r="5" fill="#800080" />
  <circle cx="60" cy="62" r="5" fill="#800080" />
  <circle cx="75" cy="189" r="4" fill="#800080" />
  <circle cx="75" cy="196" r="4" fill="#800080" />
  <circle cx="83" cy="72" r="4" fill="#800080" />
  <circle cx="93" cy="176" r="4" fill="#800080" />
</svg>
