<?xml version="1.0"?>
<svg width="111" height="256">
  <circle cx="83" cy="89" r="10" fill="#800080" />
  <circle cx="90" cy="157" r="10" fill="#800080" />
  <circle cx="87" cy="180" r="9" fill="#800080" />
  <circle cx="17" cy="174" r="8" fill="#800080" />
  <circle cx="20" cy="85" r="8" fill="#800080" />
  <circle cx="75" cy="70" r="7" fill="#800080" />
  <circle cx="78" cy="107" r="7" fill="#800080" />
  <circle cx="82" cy="141" r="7" fill="#800080" />
  <circle cx="21" cy="189" r="6" fill="#800080" />
  <circle cx="74" cy="193" r="6" fill="#800080" />
  <circle cx="24" cy="72" r="5" fill="#800080" />
  <circle cx="54" cy="126" r="5" fill="#800080" />
  <circle cx="69" cy="117" r="5" fill="#800080" />
  <circle cx="72" cy="133" r="5" fill="#800080" />
  <circle cx="29" cy="196" r="4" fill="#800080" />
  <circle cx="31" cy="66" r="4" fill="#800080" />
  <circle cx="37" cy="198" r="4" fill="#800080" />
  <circle cx="39" cy="63" r="4" fill="#800080" />
  <circle cx="42" cy="126" r="4" fill="#800080" />
  <circle cx="45" cy="199" r="4" fill="#800080" />
  <circle cx="51" cy="61" r="4" fill="#800080" />
  <circle cx="53" cy="199" r="4" fill="#800080" />
  <circle cx="59" cy="62" r="4" fill="#800080" />
  <circle cx="61" cy="198" r="4" fill="#800080" />
</svg>
