<?xml version="1.0"?>
<svg width="111" height="256">
  <circle cx="83" cy="90" r="11" fill="#800080" />
  <circle cx="90" cy="158" r="11" fill="#800080" />
  <circle cx="88" cy="178" r="10" fill="#800080" />
  <circle cx="18" cy="175" r="9" fill="#800080" />
  <circle cx="20" cy="86" r="9" fill="#800080" />
  <circle cx="76" cy="71" r="8" fill="#800080" />
  <circle cx="78" cy="108" r="8" fill="#800080" />
  <circle cx="82" cy="141" r="8" fill="#800080" />
  <circle cx="76" cy="192" r="7" fill="#800080" />
  <circle cx="22" cy="190" r="6" fill="#800080" />
  <circle cx="55" cy="126" r="6" fill="#800080" />
  <circle cx="25" cy="72" r="5" fill="#800080" />
  <circle cx="31" cy="196" r="5" fill="#800080" />
  <circle cx="32" cy="66" r="5" fill="#800080" />
  <circle cx="40" cy="199" r="5" fill="#800080" />
  <circle cx="42" cy="62" r="5" fill="#800080" />
  <circle cx="42" cy="126" r="5" fill="#800080" />
  <circle cx="49" cy="199" r="5" fill="#800080" />
  <circle cx="51" cy="61" r="5" fill="#800080" />
  <circle cx="58" cy="199" r="5" fill="#800080" />
  <circle cx="60" cy="62" r="5" fill="#800080" />
  <circle cx="66" cy="119" r="5" fill="#800080" />
  <circle cx="68" cy="131" r="5" fill="#800080" />
  <circle cx="66" cy="196" r="4" fill="#800080" />
  <circle cx="68" cy="63" r="3" fill="#800080" />
  <circle cx="14" cy="186" r="3" fill="#800080" />
  <circle cx="75" cy="131" r="3" fill="#800080" />
  <circle cx="85" cy="77" r="3" fill="#800080" />
  <circle cx="85" cy="190" r="3" fill="#800080" />
  <circle cx="88" cy="103" r="3" fill="#800080" />
  <circle cx="92" cy="144" r="3" fill="#800080" />
  <circle cx="98" cy="170" r="3" fill="#800080" />
</svg>
