<?xml version="1.0"?>
<svg width="108" height="256">
  <circle cx="72" cy="155" r="11" fill="#800080" />
  <circle cx="69" cy="80" r="10" fill="#800080" />
  <circle cx="69" cy="190" r="10" fill="#800080" />
  <circle cx="72" cy="99" r="9" fill="#800080" />
  <circle cx="72" cy="117" r="9" fill="#800080" />
  <circle cx="72" cy="135" r="9" fill="#800080" />
  <circle cx="10" cy="154" r="8" fill="#800080" />
  <circle cx="70" cy="173" r="7" fill="#800080" />
  <circle cx="24" cy="155" r="6" fill="#800080" />
  <circle cx="36" cy="155" r="6" fill="#800080" />
  <circle cx="48" cy="155" r="6" fill="#800080" />
  <circle cx="89" cy="156" r="6" fill="#800080" />
  <circle cx="75" cy="64" r="5" fill="#800080" />
  <circle cx="15" cy="142" r="4" fill="#800080" />
  <circle cx="20" cy="135" r="4" fill="#800080" />
  <circle cx="26" cy="127" r="4" fill="#800080" />
  <circle cx="32" cy="119" r="4" fill="#800080" />
  <circle cx="38" cy="111" r="4" fill="#800080" />
  <circle cx="45" cy="102" r="4" fill="#800080" />
  <circle cx="51" cy="94" r="4" fill="#800080" />
  <circle cx="55" cy="196" r="4" fill="#800080" />
</svg>
