<?xml version="1.0"?>
<svg width="108" height="256">
  <circle cx="72" cy="156" r="12" fill="#800080" />
  <circle cx="70" cy="80" r="11" fill="#800080" />
  <circle cx="70" cy="188" r="11" fill="#800080" />
  <circle cx="72" cy="100" r="10" fill="#800080" />
  <circle cx="72" cy="119" r="10" fill="#800080" />
  <circle cx="10" cy="154" r="8" fill="#800080" />
  <circle cx="70" cy="136" r="8" fill="#800080" />
  <circle cx="24" cy="155" r="7" fill="#800080" />
  <circle cx="37" cy="155" r="7" fill="#800080" />
  <circle cx="50" cy="155" r="7" fill="#800080" />
  <circle cx="90" cy="156" r="7" fill="#800080" />
  <circle cx="76" cy="64" r="6" fill="#800080" />
  <circle cx="76" cy="173" r="5" fill="#800080" />
  <circle cx="15" cy="142" r="5" fill="#800080" />
  <circle cx="21" cy="134" r="5" fill="#800080" />
  <circle cx="27" cy="126" r="5" fill="#800080" />
  <circle cx="33" cy="118" r="5" fill="#800080" />
  <circle cx="39" cy="110" r="5" fill="#800080" />
  <circle cx="45" cy="102" r="5" fill="#800080" />
  <circle cx="51" cy="94" r="5" fill="#800080" />
  <circle cx="55" cy="196" r="5" fill="#800080" />
  <circle cx="67" cy="172" r="5" fill="#800080" />
  <circle cx="56" cy="87" r="4" fill="#800080" />
  <circle cx="82" cy="197" r="4" fill="#800080" />
  <circle cx="89" cy="196" r="4" fill="#800080" />
  <circle cx="47" cy="196" r="3" fill="#800080" />
  <circle cx="79" cy="130" r="3" fill="#800080" />
  <circle cx="79" cy="142" r="3" fill="#800080" />
  <circle cx="99" cy="152" r="3" fill="#800080" />
  <circle cx="99" cy="157" r="3" fill="#800080" />
</svg>
