<?xml version="1.0"?>
<svg width="109" height="256">
  <circle cx="88" cy="149" r="11" fill="#800080" />
  <circle cx="88" cy="170" r="10" fill="#800080" />
  <circle cx="19" cy="175" r="9" fill="#800080" />
  <circle cx="79" cy="130" r="9" fill="#800080" />
  <circle cx="84" cy="66" r="8" fill="#800080" />
  <circle cx="22" cy="68" r="8" fill="#800080" />
  <circle cx="37" cy="68" r="8" fill="#800080" />
  <circle cx="52" cy="68" r="8" fill="#800080" />
  <circle cx="79" cy="187" r="8" fill="#800080" />
  <circle cx="69" cy="67" r="7" fill="#800080" />
  <circle cx="24" cy="190" r="6" fill="#800080" />
  <circle cx="59" cy="119" r="6" fill="#800080" />
  <circle cx="22" cy="123" r="5" fill="#800080" />
  <circle cx="19" cy="80" r="5" fill="#800080" />
  <circle cx="19" cy="89" r="5" fill="#800080" />
  <circle cx="20" cy="98" r="5" fill="#800080" />
  <circle cx="20" cy="107" r="5" fill="#800080" />
  <circle cx="32" cy="121" r="5" fill="#800080" />
  <circle cx="33" cy="196" r="5" fill="#800080" />
  <circle cx="41" cy="119" r="5" fill="#800080" />
  <circle cx="42" cy="199" r="5" fill="#800080" />
  <circle cx="57" cy="199" r="5" fill="#800080" />
  <circle cx="66" cy="196" r="5" fill="#800080" />
  <circle cx="69" cy="120" r="5" fill="#800080" />
  <circle cx="19" cy="115" r="4" fill="#800080" />
  <circle cx="49" cy="117" r="4" fill="#800080" />
  <circle cx="89" cy="54" r="4" fill="#800080" />
  <circle cx="89" cy="183" r="3" fill="#800080" />
  <circle cx="16" cy="186" r="3" fill="#800080" />
  <circle cx="49" cy="198" r="3" fill="#800080" />
  <circle cx="73" cy="196" r="3" fill="#800080" />
  <circle cx="90" cy="134" r="3" fill="#800080" />
  <circle cx="97" cy="160" r="3" fill="#800080" />
</svg>
