<?xml version="1.0"?>
<svg width="109" height="256">
  <circle cx="87" cy="145" r="10" fill="#800080" />
  <circle cx="88" cy="167" r="10" fill="#800080" />
  <circle cx="19" cy="175" r="9" fill="#800080" />
  <circle cx="78" cy="129" r="8" fill="#800080" />
  <circle cx="81" cy="185" r="8" fill="#800080" />
  <circle cx="84" cy="66" r="8" fill="#800080" />
  <circle cx="22" cy="68" r="7" fill="#800080" />
  <circle cx="36" cy="68" r="7" fill="#800080" />
  <circle cx="50" cy="68" r="7" fill="#800080" />
  <circle cx="63" cy="67" r="6" fill="#800080" />
  <circle cx="21" cy="122" r="5" fill="#800080" />
  <circle cx="22" cy="189" r="5" fill="#800080" />
  <circle cx="58" cy="119" r="5" fill="#800080" />
  <circle cx="69" cy="195" r="5" fill="#800080" />
  <circle cx="19" cy="79" r="4" fill="#800080" />
  <circle cx="19" cy="87" r="4" fill="#800080" />
  <circle cx="20" cy="95" r="4" fill="#800080" />
  <circle cx="20" cy="103" r="4" fill="#800080" />
  <circle cx="20" cy="111" r="4" fill="#800080" />
  <circle cx="29" cy="195" r="4" fill="#800080" />
  <circle cx="32" cy="121" r="4" fill="#800080" />
  <circle cx="37" cy="198" r="4" fill="#800080" />
  <circle cx="40" cy="119" r="4" fill="#800080" />
  <circle cx="48" cy="118" r="4" fill="#800080" />
  <circle cx="48" cy="200" r="4" fill="#800080" />
  <circle cx="57" cy="199" r="4" fill="#800080" />
  <circle cx="67" cy="120" r="4" fill="#800080" />
</svg>
