<?xml version="1.0"?>
<svg width="115" height="256">
  <circle cx="21" cy="131" r="10" fill="#800080" />
  <circle cx="93" cy="144" r="10" fill="#800080" />
  <circle cx="21" cy="150" r="9" fill="#800080" />
  <circle cx="22" cy="112" r="9" fill="#800080" />
  <circle cx="24" cy="168" r="9" fill="#800080" />
  <circle cx="93" cy="173" r="9" fill="#800080" />
  <circle cx="27" cy="93" r="8" fill="#800080" />
  <circle cx="31" cy="185" r="8" fill="#800080" />
  <circle cx="91" cy="84" r="8" fill="#800080" />
  <circle cx="80" cy="124" r="7" fill="#800080" />
  <circle cx="33" cy="79" r="6" fill="#800080" />
  <circle cx="84" cy="189" r="6" fill="#800080" />
  <circle cx="40" cy="70" r="5" fill="#800080" />
  <circle cx="40" cy="195" r="5" fill="#800080" />
  <circle cx="64" cy="118" r="5" fill="#800080" />
  <circle cx="84" cy="67" r="5" fill="#800080" />
  <circle cx="90" cy="159" r="5" fill="#800080" />
  <circle cx="100" cy="158" r="5" fill="#800080" />
  <circle cx="43" cy="123" r="4" fill="#800080" />
  <circle cx="48" cy="65" r="4" fill="#800080" />
  <circle cx="49" cy="198" r="4" fill="#800080" />
  <circle cx="51" cy="119" r="4" fill="#800080" />
  <circle cx="56" cy="62" r="4" fill="#800080" />
  <circle cx="58" cy="200" r="4" fill="#800080" />
  <circle cx="64" cy="61" r="4" fill="#800080" />
  <circle cx="66" cy="199" r="4" fill="#800080" />
  <circle cx="74" cy="62" r="4" fill="#800080" />
  <circle cx="74" cy="196" r="4" fill="#800080" />
  <circle cx="90" cy="130" r="4" fill="#800080" />
</svg>
