<?xml version="1.0"?>
<svg width="115" height="256">
  <circle cx="22" cy="135" r="11" fill="#800080" />
  <circle cx="94" cy="149" r="11" fill="#800080" />
  <circle cx="23" cy="165" r="10" fill="#800080" />
  <circle cx="94" cy="169" r="10" fill="#800080" />
  <circle cx="22" cy="112" r="9" fill="#800080" />
  <circle cx="86" cy="129" r="9" fill="#800080" />
  <circle cx="92" cy="82" r="9" fill="#800080" />
  <circle cx="27" cy="93" r="8" fill="#800080" />
  <circle cx="28" cy="182" r="8" fill="#800080" />
  <circle cx="87" cy="185" r="7" fill="#800080" />
  <circle cx="33" cy="79" r="7" fill="#800080" />
  <circle cx="38" cy="193" r="7" fill="#800080" />
  <circle cx="73" cy="120" r="6" fill="#800080" />
  <circle cx="42" cy="70" r="6" fill="#800080" />
  <circle cx="78" cy="194" r="5" fill="#800080" />
  <circle cx="15" cy="149" r="5" fill="#800080" />
  <circle cx="24" cy="150" r="5" fill="#800080" />
  <circle cx="43" cy="123" r="5" fill="#800080" />
  <circle cx="49" cy="198" r="5" fill="#800080" />
  <circle cx="51" cy="64" r="5" fill="#800080" />
  <circle cx="52" cy="119" r="5" fill="#800080" />
  <circle cx="58" cy="200" r="5" fill="#800080" />
  <circle cx="61" cy="117" r="5" fill="#800080" />
  <circle cx="64" cy="61" r="5" fill="#800080" />
  <circle cx="67" cy="199" r="5" fill="#800080" />
  <circle cx="74" cy="62" r="5" fill="#800080" />
  <circle cx="83" cy="66" r="5" fill="#800080" />
  <circle cx="36" cy="128" r="4" fill="#800080" />
  <circle cx="91" cy="70" r="4" fill="#800080" />
  <circle cx="14" cy="123" r="3" fill="#800080" />
  <circle cx="18" cy="100" r="3" fill="#800080" />
  <circle cx="30" cy="103" r="3" fill="#800080" />
  <circle cx="96" cy="136" r="3" fill="#800080" />
  <circle cx="96" cy="181" r="3" fill="#800080" />
</svg>
