<?xml version="1.0"?>
<svg width="112" height="256">
  <circle cx="92" cy="169" r="11" fill="#800080" />
  <circle cx="24" cy="96" r="10" fill="#800080" />
  <circle cx="49" cy="125" r="10" fill="#800080" />
  <circle cx="84" cy="148" r="9" fill="#800080" />
  <circle cx="20" cy="166" r="9" fill="#800080" />
  <circle cx="33" cy="113" r="9" fill="#800080" />
  <circle cx="67" cy="133" r="8" fill="#800080" />
  <circle cx="22" cy="182" r="8" fill="#800080" />
  <circle cx="26" cy="78" r="8" fill="#800080" />
  <circle cx="85" cy="188" r="8" fill="#800080" />
  <circle cx="86" cy="79" r="8" fill="#800080" />
  <circle cx="86" cy="97" r="8" fill="#800080" />
  <circle cx="26" cy="151" r="7" fill="#800080" />
  <circle cx="32" cy="193" r="6" fill="#800080" />
  <circle cx="36" cy="68" r="6" fill="#800080" />
  <circle cx="77" cy="68" r="6" fill="#800080" />
  <circle cx="78" cy="112" r="6" fill="#800080" />
  <circle cx="34" cy="141" r="5" fill="#800080" />
  <circle cx="42" cy="198" r="5" fill="#800080" />
  <circle cx="46" cy="63" r="5" fill="#800080" />
  <circle cx="51" cy="199" r="5" fill="#800080" />
  <circle cx="56" cy="61" r="5" fill="#800080" />
  <circle cx="61" cy="199" r="5" fill="#800080" />
  <circle cx="65" cy="62" r="5" fill="#800080" />
  <circle cx="67" cy="121" r="5" fill="#800080" />
  <circle cx="70" cy="197" r="5" fill="#800080" />
  <circle cx="41" cy="136" r="4" fill="#800080" />
  <circle cx="78" cy="135" r="4" fill="#800080" />
  <circle cx="95" cy="155" r="4" fill="#800080" />
</svg>
