<?xml version="1.0"?>
<svg width="112" height="256">
  <circle cx="91" cy="161" r="10" fill="#800080" />
  <circle cx="23" cy="93" r="9" fill="#800080" />
  <circle cx="48" cy="125" r="9" fill="#800080" />
  <circle cx="20" cy="165" r="8" fill="#800080" />
  <circle cx="29" cy="110" r="8" fill="#800080" />
  <circle cx="65" cy="131" r="8" fill="#800080" />
  <circle cx="77" cy="142" r="8" fill="#800080" />
  <circle cx="87" cy="186" r="8" fill="#800080" />
  <circle cx="21" cy="180" r="7" fill="#800080" />
  <circle cx="27" cy="76" r="7" fill="#800080" />
  <circle cx="85" cy="77" r="7" fill="#800080" />
  <circle cx="86" cy="97" r="7" fill="#800080" />
  <circle cx="25" cy="151" r="6" fill="#800080" />
  <circle cx="29" cy="191" r="6" fill="#800080" />
  <circle cx="33" cy="142" r="5" fill="#800080" />
  <circle cx="36" cy="67" r="5" fill="#800080" />
  <circle cx="74" cy="66" r="5" fill="#800080" />
  <circle cx="75" cy="115" r="5" fill="#800080" />
  <circle cx="76" cy="195" r="5" fill="#800080" />
  <circle cx="96" cy="176" r="5" fill="#800080" />
  <circle cx="38" cy="197" r="4" fill="#800080" />
  <circle cx="40" cy="136" r="4" fill="#800080" />
  <circle cx="45" cy="63" r="4" fill="#800080" />
  <circle cx="46" cy="199" r="4" fill="#800080" />
  <circle cx="54" cy="200" r="4" fill="#800080" />
  <circle cx="56" cy="61" r="4" fill="#800080" />
  <circle cx="62" cy="199" r="4" fill="#800080" />
  <circle cx="64" cy="62" r="4" fill="#800080" />
  <circle cx="80" cy="107" r="4" fill="#800080" />
  <circle cx="89" cy="146" r="4" fill="#800080" />
</svg>
