<?xml version="1.0"?>
<svg width="115" height="256">
  <circle cx="19" cy="100" r="10" fill="#800080" />
  <circle cx="91" cy="126" r="10" fill="#800080" />
  <circle cx="21" cy="119" r="9" fill="#800080" />
  <circle cx="90" cy="92" r="9" fill="#800080" />
  <circle cx="92" cy="152" r="9" fill="#800080" />
  <circle cx="23" cy="82" r="8" fill="#800080" />
  <circle cx="23" cy="177" r="8" fill="#800080" />
  <circle cx="30" cy="134" r="8" fill="#800080" />
  <circle cx="82" cy="74" r="8" fill="#800080" />
  <circle cx="87" cy="173" r="8" fill="#800080" />
  <circle cx="79" cy="187" r="7" fill="#800080" />
  <circle cx="91" cy="108" r="7" fill="#800080" />
  <circle cx="32" cy="70" r="6" fill="#800080" />
  <circle cx="24" cy="190" r="5" fill="#800080" />
  <circle cx="41" cy="142" r="5" fill="#800080" />
  <circle cx="68" cy="196" r="5" fill="#800080" />
  <circle cx="69" cy="64" r="5" fill="#800080" />
  <circle cx="31" cy="196" r="4" fill="#800080" />
  <circle cx="40" cy="199" r="4" fill="#800080" />
  <circle cx="41" cy="64" r="4" fill="#800080" />
  <circle cx="48" cy="200" r="4" fill="#800080" />
  <circle cx="50" cy="143" r="4" fill="#800080" />
  <circle cx="55" cy="61" r="4" fill="#800080" />
  <circle cx="57" cy="199" r="4" fill="#800080" />
  <circle cx="58" cy="143" r="4" fill="#800080" />
  <circle cx="66" cy="141" r="4" fill="#800080" />
  <circle cx="77" cy="134" r="4" fill="#800080" />
  <circle cx="98" cy="139" r="4" fill="#800080" />
</svg>
