<?xml version="1.0"?>
<svg width="71" height="256">
  <circle cx="47" cy="243" r="9" fill="#800080" />
  <circle cx="47" cy="58" r="8" fill="#800080" />
  <circle cx="47" cy="207" r="8" fill="#800080" />
  <circle cx="47" cy="222" r="8" fill="#800080" />
  <circle cx="48" cy="73" r="8" fill="#800080" />
  <circle cx="48" cy="88" r="8" fill="#800080" />
  <circle cx="48" cy="103" r="8" fill="#800080" />
  <circle cx="48" cy="118" r="8" fill="#800080" />
  <circle cx="48" cy="133" r="8" fill="#800080" />
  <circle cx="48" cy="148" r="8" fill="#800080" />
  <circle cx="48" cy="163" r="8" fill="#800080" />
  <circle cx="48" cy="178" r="8" fill="#800080" />
  <circle cx="8" cy="56" r="7" fill="#800080" />
  <circle cx="8" cy="245" r="7" fill="#800080" />
  <circle cx="21" cy="56" r="7" fill="#800080" />
  <circle cx="21" cy="245" r="7" fill="#800080" />
  <circle cx="47" cy="192" r="7" fill="#800080" />
  <circle cx="33" cy="55" r="6" fill="#800080" />
  <circle cx="33" cy="244" r="6" fill="#800080" />
  <circle cx="52" cy="232" r="3" fill="#800080" />
  <circle cx="42" cy="232" r="3" fill="#800080" />
  <circle cx="47" cy="232" r="3" fill="#800080" />
</svg>
