<?xml version="1.0"?>
<svg width="71" height="256">
  <circle cx="23" cy="58" r="8" fill="#800080" />
  <circle cx="23" cy="242" r="8" fill="#800080" />
  <circle cx="22" cy="73" r="7" fill="#800080" />
  <circle cx="22" cy="87" r="7" fill="#800080" />
  <circle cx="22" cy="101" r="7" fill="#800080" />
  <circle cx="22" cy="115" r="7" fill="#800080" />
  <circle cx="22" cy="129" r="7" fill="#800080" />
  <circle cx="22" cy="143" r="7" fill="#800080" />
  <circle cx="22" cy="157" r="7" fill="#800080" />
  <circle cx="22" cy="171" r="7" fill="#800080" />
  <circle cx="22" cy="185" r="7" fill="#800080" />
  <circle cx="22" cy="199" r="7" fill="#800080" />
  <circle cx="22" cy="213" r="7" fill="#800080" />
  <circle cx="22" cy="227" r="7" fill="#800080" />
  <circle cx="37" cy="56" r="6" fill="#800080" />
  <circle cx="37" cy="245" r="6" fill="#800080" />
  <circle cx="49" cy="56" r="6" fill="#800080" />
  <circle cx="49" cy="245" r="6" fill="#800080" />
  <circle cx="61" cy="56" r="6" fill="#800080" />
  <circle cx="61" cy="245" r="6" fill="#800080" />
</svg>
