<?xml version="1.0"?>
<svg width="94" height="256">
  <circle cx="46" cy="192" r="11" fill="#800080" />
  <circle cx="77" cy="86" r="10" fill="#800080" />
  <circle cx="15" cy="86" r="9" fill="#800080" />
  <circle cx="74" cy="104" r="8" fill="#800080" />
  <circle cx="36" cy="151" r="7" fill="#800080" />
  <circle cx="64" cy="66" r="7" fill="#800080" />
  <circle cx="65" cy="116" r="6" fill="#800080" />
  <circle cx="19" cy="72" r="6" fill="#800080" />
  <circle cx="40" cy="139" r="5" fill="#800080" />
  <circle cx="28" cy="65" r="5" fill="#800080" />
  <circle cx="37" cy="62" r="5" fill="#800080" />
  <circle cx="44" cy="159" r="5" fill="#800080" />
  <circle cx="46" cy="61" r="5" fill="#800080" />
  <circle cx="46" cy="132" r="5" fill="#800080" />
  <circle cx="53" cy="126" r="5" fill="#800080" />
  <circle cx="53" cy="158" r="5" fill="#800080" />
  <circle cx="74" cy="72" r="5" fill="#800080" />
  <circle cx="54" cy="61" r="4" fill="#800080" />
  <circle cx="83" cy="98" r="3" fill="#800080" />
  <circle cx="60" cy="124" r="3" fill="#800080" />
  <circle cx="67" cy="75" r="3" fill="#800080" />
</svg>
