<?xml version="1.0"?>
<svg width="103" height="256">
  <circle cx="17" cy="185" r="10" fill="#800080" />
  <circle cx="75" cy="185" r="10" fill="#800080" />
  <circle cx="75" cy="148" r="9" fill="#800080" />
  <circle cx="21" cy="121" r="9" fill="#800080" />
  <circle cx="75" cy="121" r="9" fill="#800080" />
  <circle cx="75" cy="165" r="9" fill="#800080" />
  <circle cx="20" cy="167" r="8" fill="#800080" />
  <circle cx="30" cy="196" r="7" fill="#800080" />
  <circle cx="67" cy="107" r="7" fill="#800080" />
  <circle cx="42" cy="197" r="6" fill="#800080" />
  <circle cx="30" cy="157" r="5" fill="#800080" />
  <circle cx="25" cy="108" r="5" fill="#800080" />
  <circle cx="39" cy="153" r="5" fill="#800080" />
  <circle cx="50" cy="150" r="5" fill="#800080" />
  <circle cx="51" cy="101" r="5" fill="#800080" />
  <circle cx="52" cy="195" r="5" fill="#800080" />
  <circle cx="71" cy="134" r="5" fill="#800080" />
  <circle cx="80" cy="134" r="5" fill="#800080" />
  <circle cx="93" cy="196" r="5" fill="#800080" />
  <circle cx="33" cy="104" r="4" fill="#800080" />
  <circle cx="40" cy="102" r="4" fill="#800080" />
  <circle cx="58" cy="148" r="4" fill="#800080" />
  <circle cx="60" cy="190" r="4" fill="#800080" />
  <circle cx="82" cy="197" r="4" fill="#800080" />
</svg>
