<?xml version="1.0"?>
<svg width="103" height="256">
  <circle cx="16" cy="175" r="9" fill="#800080" />
  <circle cx="75" cy="148" r="9" fill="#800080" />
  <circle cx="75" cy="184" r="9" fill="#800080" />
  <circle cx="20" cy="192" r="8" fill="#800080" />
  <circle cx="21" cy="120" r="8" fill="#800080" />
  <circle cx="74" cy="118" r="8" fill="#800080" />
  <circle cx="75" cy="165" r="8" fill="#800080" />
  <circle cx="25" cy="161" r="6" fill="#800080" />
  <circle cx="34" cy="197" r="6" fill="#800080" />
  <circle cx="66" cy="106" r="6" fill="#800080" />
  <circle cx="73" cy="132" r="6" fill="#800080" />
  <circle cx="27" cy="108" r="5" fill="#800080" />
  <circle cx="45" cy="197" r="5" fill="#800080" />
  <circle cx="34" cy="155" r="4" fill="#800080" />
  <circle cx="42" cy="152" r="4" fill="#800080" />
  <circle cx="50" cy="150" r="4" fill="#800080" />
  <circle cx="51" cy="101" r="4" fill="#800080" />
  <circle cx="54" cy="194" r="4" fill="#800080" />
  <circle cx="82" cy="196" r="4" fill="#800080" />
  <circle cx="93" cy="196" r="4" fill="#800080" />
</svg>
