<?xml version="1.0"?>
<svg width="124" height="256">
  <circle cx="31" cy="191" r="9" fill="#800080" />
  <circle cx="33" cy="78" r="9" fill="#800080" />
  <circle cx="33" cy="96" r="9" fill="#800080" />
  <circle cx="33" cy="114" r="9" fill="#800080" />
  <circle cx="33" cy="132" r="9" fill="#800080" />
  <circle cx="33" cy="150" r="9" fill="#800080" />
  <circle cx="33" cy="168" r="9" fill="#800080" />
  <circle cx="95" cy="87" r="9" fill="#800080" />
  <circle cx="104" cy="149" r="9" fill="#800080" />
  <circle cx="105" cy="168" r="9" fill="#800080" />
  <circle cx="93" cy="105" r="8" fill="#800080" />
  <circle cx="95" cy="187" r="7" fill="#800080" />
  <circle cx="84" cy="71" r="6" fill="#800080" />
  <circle cx="92" cy="135" r="6" fill="#800080" />
  <circle cx="40" cy="65" r="5" fill="#800080" />
  <circle cx="70" cy="127" r="5" fill="#800080" />
  <circle cx="82" cy="194" r="5" fill="#800080" />
  <circle cx="84" cy="116" r="5" fill="#800080" />
  <circle cx="15" cy="64" r="4" fill="#800080" />
  <circle cx="23" cy="64" r="4" fill="#800080" />
  <circle cx="31" cy="64" r="4" fill="#800080" />
  <circle cx="49" cy="64" r="4" fill="#800080" />
  <circle cx="59" cy="127" r="4" fill="#800080" />
  <circle cx="62" cy="64" r="4" fill="#800080" />
  <circle cx="70" cy="65" r="4" fill="#800080" />
  <circle cx="71" cy="196" r="4" fill="#800080" />
  <circle cx="80" cy="130" r="4" fill="#800080" />
  <circle cx="105" cy="181" r="4" fill="#800080" />
</svg>
