<?xml version="1.0"?>
<svg width="116" height="256">
  <circle cx="95" cy="133" r="11" fill="#800080" />
  <circle cx="97" cy="154" r="11" fill="#800080" />
  <circle cx="24" cy="183" r="10" fill="#800080" />
  <circle cx="23" cy="143" r="10" fill="#800080" />
  <circle cx="23" cy="162" r="10" fill="#800080" />
  <circle cx="24" cy="112" r="10" fill="#800080" />
  <circle cx="23" cy="61" r="9" fill="#800080" />
  <circle cx="23" cy="78" r="9" fill="#800080" />
  <circle cx="85" cy="114" r="9" fill="#800080" />
  <circle cx="92" cy="174" r="9" fill="#800080" />
  <circle cx="22" cy="94" r="8" fill="#800080" />
  <circle cx="83" cy="188" r="7" fill="#800080" />
  <circle cx="70" cy="104" r="6" fill="#800080" />
  <circle cx="20" cy="127" r="6" fill="#800080" />
  <circle cx="36" cy="193" r="5" fill="#800080" />
  <circle cx="5" cy="59" r="5" fill="#800080" />
  <circle cx="43" cy="106" r="5" fill="#800080" />
  <circle cx="44" cy="198" r="5" fill="#800080" />
  <circle cx="52" cy="103" r="5" fill="#800080" />
  <circle cx="53" cy="199" r="5" fill="#800080" />
  <circle cx="62" cy="199" r="5" fill="#800080" />
  <circle cx="71" cy="196" r="5" fill="#800080" />
  <circle cx="18" cy="196" r="4" fill="#800080" />
  <circle cx="29" cy="125" r="4" fill="#800080" />
  <circle cx="60" cy="101" r="4" fill="#800080" />
  <circle cx="97" cy="119" r="3" fill="#800080" />
  <circle cx="12" cy="57" r="3" fill="#800080" />
  <circle cx="16" cy="173" r="3" fill="#800080" />
  <circle cx="28" cy="131" r="3" fill="#800080" />
  <circle cx="36" cy="109" r="3" fill="#800080" />
  <circle cx="78" cy="103" r="3" fill="#800080" />
  <circle cx="102" cy="167" r="3" fill="#800080" />
</svg>
