<?xml version="1.0"?>
<svg width="124" height="256">
  <circle cx="34" cy="128" r="10" fill="#800080" />
  <circle cx="32" cy="188" r="10" fill="#800080" />
  <circle cx="33" cy="79" r="10" fill="#800080" />
  <circle cx="33" cy="98" r="10" fill="#800080" />
  <circle cx="33" cy="147" r="10" fill="#800080" />
  <circle cx="33" cy="166" r="10" fill="#800080" />
  <circle cx="95" cy="88" r="10" fill="#800080" />
  <circle cx="105" cy="152" r="10" fill="#800080" />
  <circle cx="105" cy="171" r="10" fill="#800080" />
  <circle cx="92" cy="106" r="8" fill="#800080" />
  <circle cx="95" cy="187" r="7" fill="#800080" />
  <circle cx="85" cy="72" r="7" fill="#800080" />
  <circle cx="93" cy="136" r="7" fill="#800080" />
  <circle cx="42" cy="66" r="6" fill="#800080" />
  <circle cx="29" cy="113" r="6" fill="#800080" />
  <circle cx="70" cy="127" r="5" fill="#800080" />
  <circle cx="15" cy="64" r="5" fill="#800080" />
  <circle cx="20" cy="196" r="5" fill="#800080" />
  <circle cx="24" cy="64" r="5" fill="#800080" />
  <circle cx="52" cy="64" r="5" fill="#800080" />
  <circle cx="59" cy="127" r="5" fill="#800080" />
  <circle cx="62" cy="64" r="5" fill="#800080" />
  <circle cx="71" cy="196" r="5" fill="#800080" />
  <circle cx="73" cy="66" r="5" fill="#800080" />
  <circle cx="80" cy="119" r="5" fill="#800080" />
  <circle cx="80" cy="130" r="5" fill="#800080" />
  <circle cx="80" cy="194" r="5" fill="#800080" />
  <circle cx="32" cy="63" r="4" fill="#800080" />
  <circle cx="38" cy="111" r="4" fill="#800080" />
  <circle cx="43" cy="196" r="4" fill="#800080" />
  <circle cx="47" cy="127" r="4" fill="#800080" />
  <circle cx="50" cy="196" r="4" fill="#800080" />
  <circle cx="57" cy="196" r="4" fill="#800080" />
  <circle cx="95" cy="75" r="4" fill="#800080" />
  <circle cx="103" cy="139" r="4" fill="#800080" />
</svg>
