<?xml version="1.0"?>
<svg width="139" height="256">
  <circle cx="19" cy="138" r="11" fill="#800080" />
  <circle cx="23" cy="159" r="10" fill="#800080" />
  <circle cx="20" cy="115" r="10" fill="#800080" />
  <circle cx="33" cy="176" r="9" fill="#800080" />
  <circle cx="26" cy="96" r="9" fill="#800080" />
  <circle cx="119" cy="76" r="9" fill="#800080" />
  <circle cx="46" cy="188" r="8" fill="#800080" />
  <circle cx="35" cy="81" r="7" fill="#800080" />
  <circle cx="46" cy="72" r="7" fill="#800080" />
  <circle cx="59" cy="195" r="7" fill="#800080" />
  <circle cx="73" cy="198" r="6" fill="#800080" />
  <circle cx="84" cy="198" r="6" fill="#800080" />
  <circle cx="123" cy="90" r="6" fill="#800080" />
  <circle cx="57" cy="66" r="5" fill="#800080" />
  <circle cx="66" cy="63" r="5" fill="#800080" />
  <circle cx="75" cy="62" r="5" fill="#800080" />
  <circle cx="84" cy="62" r="5" fill="#800080" />
  <circle cx="93" cy="63" r="5" fill="#800080" />
  <circle cx="94" cy="196" r="5" fill="#800080" />
  <circle cx="102" cy="66" r="5" fill="#800080" />
  <circle cx="103" cy="194" r="5" fill="#800080" />
  <circle cx="113" cy="189" r="5" fill="#800080" />
  <circle cx="122" cy="63" r="5" fill="#800080" />
  <circle cx="124" cy="100" r="5" fill="#800080" />
  <circle cx="120" cy="184" r="4" fill="#800080" />
  <circle cx="126" cy="178" r="4" fill="#800080" />
  <circle cx="107" cy="72" r="3" fill="#800080" />
  <circle cx="11" cy="125" r="3" fill="#800080" />
  <circle cx="13" cy="151" r="3" fill="#800080" />
  <circle cx="16" cy="103" r="3" fill="#800080" />
  <circle cx="21" cy="171" r="3" fill="#800080" />
  <circle cx="26" cy="85" r="3" fill="#800080" />
  <circle cx="36" cy="187" r="3" fill="#800080" />
  <circle cx="109" cy="67" r="3" fill="#800080" />
</svg>
