<?xml version="1.0"?>
<svg width="149" height="256">
  <circle cx="129" cy="122" r="10" fill="#800080" />
  <circle cx="31" cy="191" r="9" fill="#800080" />
  <circle cx="33" cy="79" r="9" fill="#800080" />
  <circle cx="33" cy="97" r="9" fill="#800080" />
  <circle cx="33" cy="115" r="9" fill="#800080" />
  <circle cx="33" cy="133" r="9" fill="#800080" />
  <circle cx="33" cy="151" r="9" fill="#800080" />
  <circle cx="33" cy="169" r="9" fill="#800080" />
  <circle cx="122" cy="162" r="9" fill="#800080" />
  <circle cx="124" cy="101" r="9" fill="#800080" />
  <circle cx="128" cy="141" r="9" fill="#800080" />
  <circle cx="115" cy="86" r="8" fill="#800080" />
  <circle cx="106" cy="182" r="7" fill="#800080" />
  <circle cx="102" cy="75" r="6" fill="#800080" />
  <circle cx="27" cy="65" r="5" fill="#800080" />
  <circle cx="37" cy="65" r="5" fill="#800080" />
  <circle cx="89" cy="69" r="5" fill="#800080" />
  <circle cx="89" cy="192" r="5" fill="#800080" />
  <circle cx="117" cy="176" r="5" fill="#800080" />
  <circle cx="15" cy="64" r="4" fill="#800080" />
  <circle cx="46" cy="64" r="4" fill="#800080" />
  <circle cx="54" cy="64" r="4" fill="#800080" />
  <circle cx="69" cy="196" r="4" fill="#800080" />
  <circle cx="70" cy="65" r="4" fill="#800080" />
  <circle cx="78" cy="66" r="4" fill="#800080" />
  <circle cx="78" cy="195" r="4" fill="#800080" />
</svg>
