<?xml version="1.0"?>
<svg width="119" height="256">
  <circle cx="20" cy="167" r="11" fill="#800080" />
  <circle cx="19" cy="142" r="11" fill="#800080" />
  <circle cx="90" cy="107" r="10" fill="#800080" />
  <circle cx="90" cy="186" r="10" fill="#800080" />
  <circle cx="91" cy="61" r="9" fill="#800080" />
  <circle cx="28" cy="186" r="9" fill="#800080" />
  <circle cx="91" cy="78" r="9" fill="#800080" />
  <circle cx="91" cy="125" r="9" fill="#800080" />
  <circle cx="91" cy="142" r="9" fill="#800080" />
  <circle cx="91" cy="159" r="9" fill="#800080" />
  <circle cx="25" cy="123" r="8" fill="#800080" />
  <circle cx="42" cy="196" r="7" fill="#800080" />
  <circle cx="34" cy="111" r="7" fill="#800080" />
  <circle cx="88" cy="92" r="6" fill="#800080" />
  <circle cx="45" cy="104" r="5" fill="#800080" />
  <circle cx="53" cy="198" r="5" fill="#800080" />
  <circle cx="58" cy="101" r="5" fill="#800080" />
  <circle cx="62" cy="198" r="5" fill="#800080" />
  <circle cx="73" cy="59" r="5" fill="#800080" />
  <circle cx="87" cy="172" r="5" fill="#800080" />
  <circle cx="96" cy="172" r="5" fill="#800080" />
  <circle cx="108" cy="196" r="5" fill="#800080" />
  <circle cx="67" cy="102" r="4" fill="#800080" />
  <circle cx="11" cy="155" r="4" fill="#800080" />
  <circle cx="70" cy="194" r="4" fill="#800080" />
  <circle cx="74" cy="103" r="4" fill="#800080" />
  <circle cx="77" cy="190" r="4" fill="#800080" />
  <circle cx="97" cy="90" r="4" fill="#800080" />
  <circle cx="98" cy="197" r="4" fill="#800080" />
  <circle cx="17" cy="181" r="3" fill="#800080" />
  <circle cx="15" cy="129" r="3" fill="#800080" />
  <circle cx="26" cy="154" r="3" fill="#800080" />
  <circle cx="33" cy="197" r="3" fill="#800080" />
  <circle cx="80" cy="57" r="3" fill="#800080" />
  <circle cx="86" cy="198" r="3" fill="#800080" />
  <circle cx="91" cy="198" r="3" fill="#800080" />
  <circle cx="97" cy="96" r="3" fill="#800080" />
</svg>
