<?xml version="1.0"?>
<svg width="149" height="256">
  <circle cx="129" cy="122" r="10" fill="#800080" />
  <circle cx="32" cy="188" r="10" fill="#800080" />
  <circle cx="33" cy="80" r="10" fill="#800080" />
  <circle cx="33" cy="99" r="10" fill="#800080" />
  <circle cx="33" cy="118" r="10" fill="#800080" />
  <circle cx="33" cy="137" r="10" fill="#800080" />
  <circle cx="33" cy="156" r="10" fill="#800080" />
  <circle cx="125" cy="155" r="10" fill="#800080" />
  <circle cx="124" cy="101" r="9" fill="#800080" />
  <circle cx="115" cy="173" r="8" fill="#800080" />
  <circle cx="113" cy="84" r="8" fill="#800080" />
  <circle cx="131" cy="139" r="7" fill="#800080" />
  <circle cx="30" cy="172" r="7" fill="#800080" />
  <circle cx="102" cy="185" r="7" fill="#800080" />
  <circle cx="41" cy="66" r="6" fill="#800080" />
  <circle cx="28" cy="65" r="6" fill="#800080" />
  <circle cx="96" cy="72" r="6" fill="#800080" />
  <circle cx="89" cy="192" r="5" fill="#800080" />
  <circle cx="15" cy="64" r="5" fill="#800080" />
  <circle cx="20" cy="196" r="5" fill="#800080" />
  <circle cx="51" cy="64" r="5" fill="#800080" />
  <circle cx="69" cy="196" r="5" fill="#800080" />
  <circle cx="70" cy="65" r="5" fill="#800080" />
  <circle cx="78" cy="195" r="5" fill="#800080" />
  <circle cx="79" cy="66" r="5" fill="#800080" />
  <circle cx="60" cy="64" r="4" fill="#800080" />
  <circle cx="43" cy="196" r="4" fill="#800080" />
  <circle cx="50" cy="196" r="4" fill="#800080" />
  <circle cx="57" cy="196" r="4" fill="#800080" />
  <circle cx="87" cy="67" r="4" fill="#800080" />
  <circle cx="105" cy="74" r="4" fill="#800080" />
  <circle cx="39" cy="177" r="3" fill="#800080" />
  <circle cx="13" cy="196" r="3" fill="#800080" />
  <circle cx="39" cy="168" r="3" fill="#800080" />
  <circle cx="102" cy="80" r="3" fill="#800080" />
  <circle cx="111" cy="183" r="3" fill="#800080" />
  <circle cx="114" cy="94" r="3" fill="#800080" />
  <circle cx="115" cy="163" r="3" fill="#800080" />
  <circle cx="120" cy="112" r="3" fill="#800080" />
  <circle cx="121" cy="135" r="3" fill="#800080" />
  <circle cx="121" cy="140" r="3" fill="#800080" />
  <circle cx="122" cy="90" r="3" fill="#800080" />
  <circle cx="124" cy="167" r="3" fill="#800080" />
  <circle cx="132" cy="110" r="3" fill="#800080" />
</svg>
