<?xml version="1.0"?>
<svg width="119" height="256">
  <circle cx="18" cy="147" r="10" fill="#800080" />
  <circle cx="20" cy="167" r="10" fill="#800080" />
  <circle cx="28" cy="185" r="9" fill="#800080" />
  <circle cx="90" cy="107" r="9" fill="#800080" />
  <circle cx="90" cy="186" r="9" fill="#800080" />
  <circle cx="22" cy="127" r="8" fill="#800080" />
  <circle cx="91" cy="61" r="8" fill="#800080" />
  <circle cx="91" cy="77" r="8" fill="#800080" />
  <circle cx="91" cy="124" r="8" fill="#800080" />
  <circle cx="91" cy="140" r="8" fill="#800080" />
  <circle cx="91" cy="156" r="8" fill="#800080" />
  <circle cx="30" cy="114" r="6" fill="#800080" />
  <circle cx="40" cy="195" r="6" fill="#800080" />
  <circle cx="89" cy="91" r="6" fill="#800080" />
  <circle cx="89" cy="170" r="6" fill="#800080" />
  <circle cx="39" cy="107" r="5" fill="#800080" />
  <circle cx="51" cy="198" r="5" fill="#800080" />
  <circle cx="48" cy="103" r="4" fill="#800080" />
  <circle cx="58" cy="101" r="4" fill="#800080" />
  <circle cx="60" cy="198" r="4" fill="#800080" />
  <circle cx="68" cy="196" r="4" fill="#800080" />
  <circle cx="73" cy="59" r="4" fill="#800080" />
  <circle cx="108" cy="196" r="4" fill="#800080" />
</svg>
