<?xml version="1.0"?>
<svg width="108" height="256">
  <circle cx="19" cy="159" r="11" fill="#800080" />
  <circle cx="20" cy="138" r="11" fill="#800080" />
  <circle cx="89" cy="133" r="10" fill="#800080" />
  <circle cx="25" cy="179" r="9" fill="#800080" />
  <circle cx="37" cy="192" r="8" fill="#800080" />
  <circle cx="26" cy="119" r="7" fill="#800080" />
  <circle cx="81" cy="112" r="7" fill="#800080" />
  <circle cx="50" cy="197" r="6" fill="#800080" />
  <circle cx="61" cy="198" r="6" fill="#800080" />
  <circle cx="35" cy="109" r="5" fill="#800080" />
  <circle cx="35" cy="138" r="5" fill="#800080" />
  <circle cx="43" cy="104" r="5" fill="#800080" />
  <circle cx="44" cy="138" r="5" fill="#800080" />
  <circle cx="53" cy="138" r="5" fill="#800080" />
  <circle cx="57" cy="101" r="5" fill="#800080" />
  <circle cx="62" cy="138" r="5" fill="#800080" />
  <circle cx="66" cy="102" r="5" fill="#800080" />
  <circle cx="71" cy="138" r="5" fill="#800080" />
  <circle cx="71" cy="197" r="5" fill="#800080" />
  <circle cx="81" cy="193" r="5" fill="#800080" />
  <circle cx="89" cy="188" r="4" fill="#800080" />
  <circle cx="74" cy="104" r="4" fill="#800080" />
  <circle cx="88" cy="120" r="4" fill="#800080" />
  <circle cx="95" cy="182" r="4" fill="#800080" />
  <circle cx="81" cy="122" r="3" fill="#800080" />
  <circle cx="10" cy="148" r="3" fill="#800080" />
  <circle cx="14" cy="172" r="3" fill="#800080" />
  <circle cx="17" cy="124" r="3" fill="#800080" />
  <circle cx="26" cy="190" r="3" fill="#800080" />
  <circle cx="50" cy="100" r="3" fill="#800080" />
  <circle cx="78" cy="140" r="3" fill="#800080" />
</svg>
