<?xml version="1.0"?>
<svg width="124" height="256">
  <circle cx="34" cy="128" r="10" fill="#800080" />
  <circle cx="32" cy="188" r="10" fill="#800080" />
  <circle cx="33" cy="80" r="10" fill="#800080" />
  <circle cx="33" cy="99" r="10" fill="#800080" />
  <circle cx="33" cy="147" r="10" fill="#800080" />
  <circle cx="33" cy="166" r="10" fill="#800080" />
  <circle cx="106" cy="192" r="9" fill="#800080" />
  <circle cx="99" cy="68" r="8" fill="#800080" />
  <circle cx="80" cy="130" r="7" fill="#800080" />
  <circle cx="43" cy="67" r="6" fill="#800080" />
  <circle cx="28" cy="66" r="5" fill="#800080" />
  <circle cx="15" cy="65" r="5" fill="#800080" />
  <circle cx="20" cy="196" r="5" fill="#800080" />
  <circle cx="28" cy="113" r="5" fill="#800080" />
  <circle cx="37" cy="113" r="5" fill="#800080" />
  <circle cx="82" cy="111" r="5" fill="#800080" />
  <circle cx="82" cy="196" r="5" fill="#800080" />
  <circle cx="86" cy="65" r="5" fill="#800080" />
  <circle cx="91" cy="195" r="5" fill="#800080" />
  <circle cx="103" cy="80" r="5" fill="#800080" />
  <circle cx="110" cy="177" r="5" fill="#800080" />
  <circle cx="83" cy="141" r="4" fill="#800080" />
  <circle cx="43" cy="196" r="4" fill="#800080" />
  <circle cx="47" cy="127" r="4" fill="#800080" />
  <circle cx="50" cy="196" r="4" fill="#800080" />
  <circle cx="52" cy="64" r="4" fill="#800080" />
  <circle cx="54" cy="127" r="4" fill="#800080" />
  <circle cx="57" cy="196" r="4" fill="#800080" />
  <circle cx="59" cy="64" r="4" fill="#800080" />
  <circle cx="61" cy="127" r="4" fill="#800080" />
  <circle cx="64" cy="196" r="4" fill="#800080" />
  <circle cx="66" cy="64" r="4" fill="#800080" />
  <circle cx="68" cy="127" r="4" fill="#800080" />
  <circle cx="71" cy="196" r="4" fill="#800080" />
  <circle cx="73" cy="64" r="4" fill="#800080" />
  <circle cx="82" cy="119" r="4" fill="#800080" />
  <circle cx="104" cy="88" r="4" fill="#800080" />
  <circle cx="111" cy="165" r="4" fill="#800080" />
  <circle cx="13" cy="196" r="3" fill="#800080" />
  <circle cx="35" cy="63" r="3" fill="#800080" />
  <circle cx="35" cy="68" r="3" fill="#800080" />
  <circle cx="40" cy="177" r="3" fill="#800080" />
  <circle cx="79" cy="63" r="3" fill="#800080" />
  <circle cx="82" cy="147" r="3" fill="#800080" />
</svg>
