<?xml version="1.0"?>
<svg width="124" height="256">
  <circle cx="31" cy="191" r="9" fill="#800080" />
  <circle cx="33" cy="79" r="9" fill="#800080" />
  <circle cx="33" cy="97" r="9" fill="#800080" />
  <circle cx="33" cy="115" r="9" fill="#800080" />
  <circle cx="33" cy="133" r="9" fill="#800080" />
  <circle cx="33" cy="151" r="9" fill="#800080" />
  <circle cx="33" cy="169" r="9" fill="#800080" />
  <circle cx="105" cy="192" r="8" fill="#800080" />
  <circle cx="98" cy="68" r="7" fill="#800080" />
  <circle cx="80" cy="130" r="6" fill="#800080" />
  <circle cx="40" cy="66" r="5" fill="#800080" />
  <circle cx="15" cy="65" r="4" fill="#800080" />
  <circle cx="23" cy="65" r="4" fill="#800080" />
  <circle cx="31" cy="65" r="4" fill="#800080" />
  <circle cx="49" cy="65" r="4" fill="#800080" />
  <circle cx="82" cy="111" r="4" fill="#800080" />
  <circle cx="82" cy="196" r="4" fill="#800080" />
  <circle cx="83" cy="119" r="4" fill="#800080" />
  <circle cx="86" cy="65" r="4" fill="#800080" />
  <circle cx="90" cy="195" r="4" fill="#800080" />
  <circle cx="103" cy="79" r="4" fill="#800080" />
  <circle cx="109" cy="180" r="4" fill="#800080" />
  <circle cx="111" cy="172" r="4" fill="#800080" />
</svg>
