<?xml version="1.0"?>
<svg width="108" height="256">
  <circle cx="18" cy="146" r="10" fill="#800080" />
  <circle cx="20" cy="166" r="10" fill="#800080" />
  <circle cx="89" cy="132" r="9" fill="#800080" />
  <circle cx="22" cy="127" r="8" fill="#800080" />
  <circle cx="28" cy="183" r="8" fill="#800080" />
  <circle cx="84" cy="116" r="7" fill="#800080" />
  <circle cx="30" cy="114" r="6" fill="#800080" />
  <circle cx="38" cy="194" r="6" fill="#800080" />
  <circle cx="49" cy="197" r="5" fill="#800080" />
  <circle cx="59" cy="198" r="5" fill="#800080" />
  <circle cx="73" cy="105" r="5" fill="#800080" />
  <circle cx="30" cy="138" r="4" fill="#800080" />
  <circle cx="38" cy="106" r="4" fill="#800080" />
  <circle cx="38" cy="138" r="4" fill="#800080" />
  <circle cx="46" cy="103" r="4" fill="#800080" />
  <circle cx="46" cy="138" r="4" fill="#800080" />
  <circle cx="54" cy="138" r="4" fill="#800080" />
  <circle cx="57" cy="101" r="4" fill="#800080" />
  <circle cx="62" cy="138" r="4" fill="#800080" />
  <circle cx="68" cy="197" r="4" fill="#800080" />
  <circle cx="70" cy="138" r="4" fill="#800080" />
  <circle cx="76" cy="195" r="4" fill="#800080" />
  <circle cx="85" cy="191" r="4" fill="#800080" />
</svg>
