<?xml version="1.0"?>
<svg width="109" height="256">
  <circle cx="34" cy="131" r="10" fill="#800080" />
  <circle cx="32" cy="188" r="10" fill="#800080" />
  <circle cx="33" cy="80" r="10" fill="#800080" />
  <circle cx="33" cy="99" r="10" fill="#800080" />
  <circle cx="33" cy="150" r="10" fill="#800080" />
  <circle cx="33" cy="169" r="10" fill="#800080" />
  <circle cx="96" cy="69" r="8" fill="#800080" />
  <circle cx="77" cy="133" r="7" fill="#800080" />
  <circle cx="30" cy="115" r="7" fill="#800080" />
  <circle cx="42" cy="67" r="6" fill="#800080" />
  <circle cx="28" cy="66" r="5" fill="#800080" />
  <circle cx="15" cy="65" r="5" fill="#800080" />
  <circle cx="20" cy="196" r="5" fill="#800080" />
  <circle cx="44" cy="196" r="5" fill="#800080" />
  <circle cx="53" cy="196" r="5" fill="#800080" />
  <circle cx="80" cy="114" r="5" fill="#800080" />
  <circle cx="82" cy="65" r="5" fill="#800080" />
  <circle cx="100" cy="81" r="5" fill="#800080" />
  <circle cx="47" cy="130" r="4" fill="#800080" />
  <circle cx="51" cy="64" r="4" fill="#800080" />
  <circle cx="54" cy="130" r="4" fill="#800080" />
  <circle cx="58" cy="64" r="4" fill="#800080" />
  <circle cx="61" cy="130" r="4" fill="#800080" />
  <circle cx="65" cy="64" r="4" fill="#800080" />
  <circle cx="72" cy="64" r="4" fill="#800080" />
  <circle cx="79" cy="122" r="4" fill="#800080" />
  <circle cx="80" cy="143" r="4" fill="#800080" />
  <circle cx="100" cy="89" r="4" fill="#800080" />
  <circle cx="39" cy="111" r="3" fill="#800080" />
  <circle cx="13" cy="196" r="3" fill="#800080" />
  <circle cx="39" cy="116" r="3" fill="#800080" />
  <circle cx="67" cy="129" r="3" fill="#800080" />
  <circle cx="79" cy="149" r="3" fill="#800080" />
</svg>
