<?xml version="1.0"?>
<svg width="110" height="256">
  <circle cx="20" cy="133" r="9" fill="#800080" />
  <circle cx="83" cy="122" r="9" fill="#800080" />
  <circle cx="85" cy="140" r="9" fill="#800080" />
  <circle cx="15" cy="230" r="8" fill="#800080" />
  <circle cx="20" cy="190" r="8" fill="#800080" />
  <circle cx="23" cy="150" r="8" fill="#800080" />
  <circle cx="35" cy="198" r="8" fill="#800080" />
  <circle cx="51" cy="199" r="8" fill="#800080" />
  <circle cx="67" cy="200" r="8" fill="#800080" />
  <circle cx="89" cy="206" r="8" fill="#800080" />
  <circle cx="26" cy="116" r="7" fill="#800080" />
  <circle cx="102" cy="93" r="7" fill="#800080" />
  <circle cx="18" cy="216" r="6" fill="#800080" />
  <circle cx="23" cy="242" r="6" fill="#800080" />
  <circle cx="33" cy="161" r="6" fill="#800080" />
  <circle cx="74" cy="109" r="6" fill="#800080" />
  <circle cx="77" cy="157" r="6" fill="#800080" />
  <circle cx="98" cy="218" r="6" fill="#800080" />
  <circle cx="35" cy="107" r="5" fill="#800080" />
  <circle cx="93" cy="238" r="5" fill="#800080" />
  <circle cx="98" cy="229" r="5" fill="#800080" />
  <circle cx="19" cy="178" r="4" fill="#800080" />
  <circle cx="25" cy="208" r="4" fill="#800080" />
  <circle cx="32" cy="248" r="4" fill="#800080" />
  <circle cx="40" cy="249" r="4" fill="#800080" />
  <circle cx="42" cy="167" r="4" fill="#800080" />
  <circle cx="52" cy="251" r="4" fill="#800080" />
  <circle cx="64" cy="103" r="4" fill="#800080" />
  <circle cx="66" cy="166" r="4" fill="#800080" />
  <circle cx="67" cy="250" r="4" fill="#800080" />
  <circle cx="79" cy="198" r="4" fill="#800080" />
  <circle cx="81" cy="246" r="4" fill="#800080" />
  <circle cx="88" cy="96" r="4" fill="#800080" />
</svg>
