<?xml version="1.0"?>
<svg width="110" height="256">
  <circle cx="21" cy="140" r="10" fill="#800080" />
  <circle cx="84" cy="125" r="10" fill="#800080" />
  <circle cx="30" cy="198" r="9" fill="#800080" />
  <circle cx="47" cy="199" r="9" fill="#800080" />
  <circle cx="66" cy="200" r="9" fill="#800080" />
  <circle cx="83" cy="146" r="9" fill="#800080" />
  <circle cx="15" cy="230" r="8" fill="#800080" />
  <circle cx="22" cy="122" r="8" fill="#800080" />
  <circle cx="82" cy="203" r="8" fill="#800080" />
  <circle cx="96" cy="212" r="8" fill="#800080" />
  <circle cx="18" cy="187" r="7" fill="#800080" />
  <circle cx="26" cy="156" r="7" fill="#800080" />
  <circle cx="36" cy="165" r="7" fill="#800080" />
  <circle cx="75" cy="110" r="7" fill="#800080" />
  <circle cx="100" cy="92" r="7" fill="#800080" />
  <circle cx="18" cy="216" r="6" fill="#800080" />
  <circle cx="22" cy="242" r="6" fill="#800080" />
  <circle cx="31" cy="110" r="6" fill="#800080" />
  <circle cx="75" cy="160" r="6" fill="#800080" />
  <circle cx="97" cy="230" r="6" fill="#800080" />
  <circle cx="32" cy="247" r="5" fill="#800080" />
  <circle cx="21" cy="176" r="5" fill="#800080" />
  <circle cx="41" cy="249" r="5" fill="#800080" />
  <circle cx="47" cy="168" r="5" fill="#800080" />
  <circle cx="64" cy="103" r="5" fill="#800080" />
  <circle cx="66" cy="166" r="5" fill="#800080" />
  <circle cx="67" cy="250" r="5" fill="#800080" />
  <circle cx="81" cy="246" r="5" fill="#800080" />
  <circle cx="88" cy="96" r="5" fill="#800080" />
  <circle cx="89" cy="241" r="5" fill="#800080" />
  <circle cx="40" cy="104" r="4" fill="#800080" />
  <circle cx="47" cy="101" r="4" fill="#800080" />
  <circle cx="49" cy="250" r="4" fill="#800080" />
  <circle cx="54" cy="100" r="4" fill="#800080" />
  <circle cx="55" cy="168" r="4" fill="#800080" />
  <circle cx="56" cy="250" r="4" fill="#800080" />
  <circle cx="83" cy="103" r="4" fill="#800080" />
  <circle cx="92" cy="136" r="4" fill="#800080" />
  <circle cx="18" cy="197" r="3" fill="#800080" />
  <circle cx="17" cy="152" r="3" fill="#800080" />
  <circle cx="22" cy="208" r="3" fill="#800080" />
  <circle cx="27" cy="171" r="3" fill="#800080" />
  <circle cx="74" cy="247" r="3" fill="#800080" />
  <circle cx="83" cy="157" r="3" fill="#800080" />
  <circle cx="84" cy="113" r="3" fill="#800080" />
  <circle cx="92" cy="202" r="3" fill="#800080" />
  <circle cx="95" cy="222" r="3" fill="#800080" />
  <circle cx="96" cy="238" r="3" fill="#800080" />
  <circle cx="100" cy="222" r="3" fill="#800080" />
  <circle cx="103" cy="101" r="3" fill="#800080" />
</svg>
