<?xml version="1.0"?>
<svg width="119" height="256">
  <circle cx="25" cy="191" r="9" fill="#800080" />
  <circle cx="27" cy="113" r="9" fill="#800080" />
  <circle cx="92" cy="188" r="9" fill="#800080" />
  <circle cx="26" cy="70" r="8" fill="#800080" />
  <circle cx="26" cy="86" r="8" fill="#800080" />
  <circle cx="26" cy="130" r="8" fill="#800080" />
  <circle cx="26" cy="146" r="8" fill="#800080" />
  <circle cx="26" cy="162" r="8" fill="#800080" />
  <circle cx="83" cy="109" r="8" fill="#800080" />
  <circle cx="91" cy="124" r="8" fill="#800080" />
  <circle cx="92" cy="140" r="8" fill="#800080" />
  <circle cx="92" cy="156" r="8" fill="#800080" />
  <circle cx="91" cy="171" r="7" fill="#800080" />
  <circle cx="24" cy="176" r="6" fill="#800080" />
  <circle cx="23" cy="99" r="5" fill="#800080" />
  <circle cx="27" cy="57" r="5" fill="#800080" />
  <circle cx="61" cy="103" r="5" fill="#800080" />
  <circle cx="71" cy="103" r="5" fill="#800080" />
  <circle cx="9" cy="59" r="4" fill="#800080" />
  <circle cx="17" cy="58" r="4" fill="#800080" />
  <circle cx="48" cy="107" r="4" fill="#800080" />
</svg>
