<?xml version="1.0"?>
<svg width="119" height="256">
  <circle cx="26" cy="188" r="10" fill="#800080" />
  <circle cx="27" cy="114" r="10" fill="#800080" />
  <circle cx="92" cy="189" r="10" fill="#800080" />
  <circle cx="85" cy="111" r="9" fill="#800080" />
  <circle cx="26" cy="71" r="9" fill="#800080" />
  <circle cx="26" cy="88" r="9" fill="#800080" />
  <circle cx="26" cy="132" r="9" fill="#800080" />
  <circle cx="26" cy="149" r="9" fill="#800080" />
  <circle cx="26" cy="166" r="9" fill="#800080" />
  <circle cx="92" cy="128" r="9" fill="#800080" />
  <circle cx="92" cy="145" r="9" fill="#800080" />
  <circle cx="92" cy="162" r="9" fill="#800080" />
  <circle cx="69" cy="103" r="6" fill="#800080" />
  <circle cx="28" cy="57" r="6" fill="#800080" />
  <circle cx="56" cy="104" r="5" fill="#800080" />
  <circle cx="9" cy="59" r="5" fill="#800080" />
  <circle cx="18" cy="58" r="5" fill="#800080" />
  <circle cx="88" cy="175" r="5" fill="#800080" />
  <circle cx="97" cy="175" r="5" fill="#800080" />
  <circle cx="41" cy="111" r="4" fill="#800080" />
  <circle cx="9" cy="197" r="4" fill="#800080" />
  <circle cx="21" cy="100" r="4" fill="#800080" />
  <circle cx="28" cy="100" r="4" fill="#800080" />
  <circle cx="37" cy="196" r="4" fill="#800080" />
  <circle cx="44" cy="196" r="4" fill="#800080" />
  <circle cx="48" cy="106" r="4" fill="#800080" />
  <circle cx="76" cy="197" r="4" fill="#800080" />
  <circle cx="103" cy="197" r="4" fill="#800080" />
  <circle cx="110" cy="196" r="4" fill="#800080" />
  <circle cx="16" cy="197" r="3" fill="#800080" />
  <circle cx="33" cy="176" r="3" fill="#800080" />
  <circle cx="77" cy="101" r="3" fill="#800080" />
  <circle cx="82" cy="197" r="3" fill="#800080" />
</svg>
