<?xml version="1.0"?>
<svg width="156" height="256">
  <circle cx="31" cy="191" r="9" fill="#800080" />
  <circle cx="33" cy="79" r="9" fill="#800080" />
  <circle cx="33" cy="97" r="9" fill="#800080" />
  <circle cx="33" cy="115" r="9" fill="#800080" />
  <circle cx="33" cy="133" r="9" fill="#800080" />
  <circle cx="33" cy="151" r="9" fill="#800080" />
  <circle cx="33" cy="169" r="9" fill="#800080" />
  <circle cx="120" cy="191" r="9" fill="#800080" />
  <circle cx="121" cy="128" r="9" fill="#800080" />
  <circle cx="122" cy="79" r="9" fill="#800080" />
  <circle cx="122" cy="97" r="9" fill="#800080" />
  <circle cx="122" cy="146" r="9" fill="#800080" />
  <circle cx="122" cy="164" r="9" fill="#800080" />
  <circle cx="119" cy="112" r="6" fill="#800080" />
  <circle cx="40" cy="66" r="5" fill="#800080" />
  <circle cx="129" cy="66" r="5" fill="#800080" />
  <circle cx="15" cy="65" r="4" fill="#800080" />
  <circle cx="23" cy="65" r="4" fill="#800080" />
  <circle cx="31" cy="65" r="4" fill="#800080" />
  <circle cx="44" cy="196" r="4" fill="#800080" />
  <circle cx="46" cy="129" r="4" fill="#800080" />
  <circle cx="54" cy="129" r="4" fill="#800080" />
  <circle cx="62" cy="129" r="4" fill="#800080" />
  <circle cx="70" cy="129" r="4" fill="#800080" />
  <circle cx="78" cy="129" r="4" fill="#800080" />
  <circle cx="86" cy="129" r="4" fill="#800080" />
  <circle cx="94" cy="129" r="4" fill="#800080" />
  <circle cx="102" cy="129" r="4" fill="#800080" />
  <circle cx="104" cy="65" r="4" fill="#800080" />
  <circle cx="112" cy="65" r="4" fill="#800080" />
  <circle cx="117" cy="177" r="4" fill="#800080" />
  <circle cx="120" cy="65" r="4" fill="#800080" />
  <circle cx="125" cy="177" r="4" fill="#800080" />
  <circle cx="133" cy="196" r="4" fill="#800080" />
</svg>
