<?xml version="1.0"?>
<svg width="156" height="256">
  <circle cx="34" cy="129" r="10" fill="#800080" />
  <circle cx="32" cy="188" r="10" fill="#800080" />
  <circle cx="33" cy="80" r="10" fill="#800080" />
  <circle cx="33" cy="99" r="10" fill="#800080" />
  <circle cx="33" cy="148" r="10" fill="#800080" />
  <circle cx="33" cy="167" r="10" fill="#800080" />
  <circle cx="121" cy="129" r="10" fill="#800080" />
  <circle cx="121" cy="188" r="10" fill="#800080" />
  <circle cx="122" cy="80" r="10" fill="#800080" />
  <circle cx="122" cy="99" r="10" fill="#800080" />
  <circle cx="122" cy="148" r="10" fill="#800080" />
  <circle cx="122" cy="167" r="10" fill="#800080" />
  <circle cx="29" cy="114" r="6" fill="#800080" />
  <circle cx="41" cy="66" r="6" fill="#800080" />
  <circle cx="118" cy="114" r="6" fill="#800080" />
  <circle cx="130" cy="66" r="6" fill="#800080" />
  <circle cx="28" cy="66" r="5" fill="#800080" />
  <circle cx="15" cy="65" r="5" fill="#800080" />
  <circle cx="20" cy="196" r="5" fill="#800080" />
  <circle cx="44" cy="196" r="5" fill="#800080" />
  <circle cx="48" cy="129" r="5" fill="#800080" />
  <circle cx="57" cy="129" r="5" fill="#800080" />
  <circle cx="66" cy="129" r="5" fill="#800080" />
  <circle cx="75" cy="129" r="5" fill="#800080" />
  <circle cx="84" cy="129" r="5" fill="#800080" />
  <circle cx="93" cy="129" r="5" fill="#800080" />
  <circle cx="102" cy="129" r="5" fill="#800080" />
  <circle cx="104" cy="65" r="5" fill="#800080" />
  <circle cx="109" cy="196" r="5" fill="#800080" />
  <circle cx="113" cy="65" r="5" fill="#800080" />
  <circle cx="133" cy="196" r="5" fill="#800080" />
  <circle cx="38" cy="112" r="4" fill="#800080" />
  <circle cx="50" cy="64" r="4" fill="#800080" />
  <circle cx="52" cy="195" r="4" fill="#800080" />
  <circle cx="121" cy="64" r="4" fill="#800080" />
  <circle cx="127" cy="112" r="4" fill="#800080" />
  <circle cx="139" cy="64" r="4" fill="#800080" />
  <circle cx="141" cy="195" r="4" fill="#800080" />
</svg>
