<?xml version="1.0"?>
<svg width="136" height="256">
  <circle cx="31" cy="191" r="9" fill="#800080" />
  <circle cx="33" cy="79" r="9" fill="#800080" />
  <circle cx="33" cy="97" r="9" fill="#800080" />
  <circle cx="33" cy="115" r="9" fill="#800080" />
  <circle cx="33" cy="133" r="9" fill="#800080" />
  <circle cx="33" cy="151" r="9" fill="#800080" />
  <circle cx="33" cy="169" r="9" fill="#800080" />
  <circle cx="62" cy="131" r="8" fill="#800080" />
  <circle cx="73" cy="143" r="8" fill="#800080" />
  <circle cx="83" cy="156" r="8" fill="#800080" />
  <circle cx="92" cy="170" r="8" fill="#800080" />
  <circle cx="102" cy="183" r="8" fill="#800080" />
  <circle cx="114" cy="193" r="7" fill="#800080" />
  <circle cx="101" cy="67" r="6" fill="#800080" />
  <circle cx="40" cy="66" r="5" fill="#800080" />
  <circle cx="15" cy="65" r="4" fill="#800080" />
  <circle cx="23" cy="65" r="4" fill="#800080" />
  <circle cx="31" cy="65" r="4" fill="#800080" />
  <circle cx="44" cy="196" r="4" fill="#800080" />
  <circle cx="65" cy="119" r="4" fill="#800080" />
  <circle cx="70" cy="111" r="4" fill="#800080" />
  <circle cx="75" cy="103" r="4" fill="#800080" />
  <circle cx="80" cy="95" r="4" fill="#800080" />
  <circle cx="85" cy="87" r="4" fill="#800080" />
  <circle cx="90" cy="80" r="4" fill="#800080" />
  <circle cx="111" cy="65" r="4" fill="#800080" />
</svg>
