<?xml version="1.0"?>
<svg width="136" height="256">
  <circle cx="32" cy="188" r="10" fill="#800080" />
  <circle cx="33" cy="80" r="10" fill="#800080" />
  <circle cx="33" cy="99" r="10" fill="#800080" />
  <circle cx="33" cy="118" r="10" fill="#800080" />
  <circle cx="33" cy="137" r="10" fill="#800080" />
  <circle cx="33" cy="156" r="10" fill="#800080" />
  <circle cx="79" cy="151" r="9" fill="#800080" />
  <circle cx="66" cy="135" r="9" fill="#800080" />
  <circle cx="90" cy="165" r="9" fill="#800080" />
  <circle cx="101" cy="180" r="9" fill="#800080" />
  <circle cx="113" cy="192" r="8" fill="#800080" />
  <circle cx="101" cy="68" r="7" fill="#800080" />
  <circle cx="30" cy="172" r="7" fill="#800080" />
  <circle cx="41" cy="66" r="6" fill="#800080" />
  <circle cx="66" cy="118" r="5" fill="#800080" />
  <circle cx="15" cy="65" r="5" fill="#800080" />
  <circle cx="20" cy="196" r="5" fill="#800080" />
  <circle cx="24" cy="65" r="5" fill="#800080" />
  <circle cx="44" cy="196" r="5" fill="#800080" />
  <circle cx="71" cy="110" r="5" fill="#800080" />
  <circle cx="76" cy="102" r="5" fill="#800080" />
  <circle cx="81" cy="94" r="5" fill="#800080" />
  <circle cx="86" cy="86" r="5" fill="#800080" />
  <circle cx="92" cy="78" r="5" fill="#800080" />
  <circle cx="112" cy="65" r="5" fill="#800080" />
  <circle cx="53" cy="129" r="4" fill="#800080" />
  <circle cx="32" cy="64" r="4" fill="#800080" />
  <circle cx="44" cy="128" r="4" fill="#800080" />
  <circle cx="50" cy="64" r="4" fill="#800080" />
  <circle cx="52" cy="195" r="4" fill="#800080" />
  <circle cx="87" cy="64" r="4" fill="#800080" />
  <circle cx="120" cy="64" r="4" fill="#800080" />
  <circle cx="124" cy="195" r="4" fill="#800080" />
  <circle cx="131" cy="197" r="4" fill="#800080" />
</svg>
