<?xml version="1.0"?>
<svg width="107" height="256">
  <circle cx="25" cy="191" r="9" fill="#800080" />
  <circle cx="27" cy="147" r="9" fill="#800080" />
  <circle cx="26" cy="70" r="8" fill="#800080" />
  <circle cx="26" cy="86" r="8" fill="#800080" />
  <circle cx="26" cy="102" r="8" fill="#800080" />
  <circle cx="26" cy="118" r="8" fill="#800080" />
  <circle cx="26" cy="164" r="8" fill="#800080" />
  <circle cx="55" cy="153" r="8" fill="#800080" />
  <circle cx="65" cy="166" r="8" fill="#800080" />
  <circle cx="75" cy="179" r="8" fill="#800080" />
  <circle cx="86" cy="191" r="8" fill="#800080" />
  <circle cx="24" cy="132" r="6" fill="#800080" />
  <circle cx="84" cy="107" r="6" fill="#800080" />
  <circle cx="23" cy="177" r="5" fill="#800080" />
  <circle cx="27" cy="57" r="5" fill="#800080" />
  <circle cx="9" cy="59" r="4" fill="#800080" />
  <circle cx="17" cy="58" r="4" fill="#800080" />
  <circle cx="40" cy="148" r="4" fill="#800080" />
  <circle cx="52" cy="141" r="4" fill="#800080" />
  <circle cx="58" cy="134" r="4" fill="#800080" />
  <circle cx="64" cy="128" r="4" fill="#800080" />
  <circle cx="70" cy="122" r="4" fill="#800080" />
  <circle cx="76" cy="116" r="4" fill="#800080" />
</svg>
