<?xml version="1.0"?>
<svg width="107" height="256">
  <circle cx="26" cy="188" r="10" fill="#800080" />
  <circle cx="27" cy="148" r="10" fill="#800080" />
  <circle cx="72" cy="175" r="9" fill="#800080" />
  <circle cx="26" cy="71" r="9" fill="#800080" />
  <circle cx="26" cy="88" r="9" fill="#800080" />
  <circle cx="26" cy="105" r="9" fill="#800080" />
  <circle cx="26" cy="122" r="9" fill="#800080" />
  <circle cx="26" cy="166" r="9" fill="#800080" />
  <circle cx="60" cy="159" r="9" fill="#800080" />
  <circle cx="83" cy="189" r="9" fill="#800080" />
  <circle cx="49" cy="147" r="7" fill="#800080" />
  <circle cx="84" cy="107" r="7" fill="#800080" />
  <circle cx="28" cy="57" r="6" fill="#800080" />
  <circle cx="9" cy="59" r="5" fill="#800080" />
  <circle cx="18" cy="58" r="5" fill="#800080" />
  <circle cx="56" cy="137" r="5" fill="#800080" />
  <circle cx="62" cy="130" r="5" fill="#800080" />
  <circle cx="69" cy="123" r="5" fill="#800080" />
  <circle cx="76" cy="116" r="5" fill="#800080" />
  <circle cx="95" cy="196" r="5" fill="#800080" />
  <circle cx="14" cy="196" r="4" fill="#800080" />
  <circle cx="21" cy="134" r="4" fill="#800080" />
  <circle cx="28" cy="134" r="4" fill="#800080" />
  <circle cx="37" cy="196" r="4" fill="#800080" />
  <circle cx="44" cy="196" r="4" fill="#800080" />
  <circle cx="69" cy="104" r="4" fill="#800080" />
  <circle cx="94" cy="104" r="4" fill="#800080" />
  <circle cx="33" cy="176" r="3" fill="#800080" />
  <circle cx="39" cy="146" r="3" fill="#800080" />
  <circle cx="61" cy="170" r="3" fill="#800080" />
  <circle cx="71" cy="164" r="3" fill="#800080" />
  <circle cx="75" cy="103" r="3" fill="#800080" />
  <circle cx="100" cy="103" r="3" fill="#800080" />
  <circle cx="102" cy="196" r="3" fill="#800080" />
</svg>
