<?xml version="1.0"?>
<svg width="115" height="256">
  <circle cx="32" cy="188" r="10" fill="#800080" />
  <circle cx="33" cy="80" r="10" fill="#800080" />
  <circle cx="33" cy="99" r="10" fill="#800080" />
  <circle cx="33" cy="118" r="10" fill="#800080" />
  <circle cx="33" cy="137" r="10" fill="#800080" />
  <circle cx="33" cy="156" r="10" fill="#800080" />
  <circle cx="102" cy="192" r="9" fill="#800080" />
  <circle cx="30" cy="172" r="7" fill="#800080" />
  <circle cx="41" cy="66" r="6" fill="#800080" />
  <circle cx="28" cy="66" r="5" fill="#800080" />
  <circle cx="15" cy="65" r="5" fill="#800080" />
  <circle cx="20" cy="196" r="5" fill="#800080" />
  <circle cx="81" cy="196" r="5" fill="#800080" />
  <circle cx="105" cy="179" r="5" fill="#800080" />
  <circle cx="107" cy="170" r="5" fill="#800080" />
  <circle cx="43" cy="196" r="4" fill="#800080" />
  <circle cx="50" cy="64" r="4" fill="#800080" />
  <circle cx="50" cy="196" r="4" fill="#800080" />
  <circle cx="57" cy="196" r="4" fill="#800080" />
  <circle cx="64" cy="196" r="4" fill="#800080" />
  <circle cx="71" cy="196" r="4" fill="#800080" />
  <circle cx="89" cy="194" r="4" fill="#800080" />
  <circle cx="107" cy="162" r="4" fill="#800080" />
  <circle cx="39" cy="177" r="3" fill="#800080" />
  <circle cx="13" cy="196" r="3" fill="#800080" />
  <circle cx="39" cy="168" r="3" fill="#800080" />
</svg>
