<?xml version="1.0"?>
<svg width="183" height="256">
  <circle cx="37" cy="76" r="11" fill="#800080" />
  <circle cx="144" cy="78" r="10" fill="#800080" />
  <circle cx="86" cy="181" r="9" fill="#800080" />
  <circle cx="151" cy="191" r="9" fill="#800080" />
  <circle cx="47" cy="93" r="8" fill="#800080" />
  <circle cx="54" cy="108" r="8" fill="#800080" />
  <circle cx="60" cy="124" r="8" fill="#800080" />
  <circle cx="67" cy="139" r="8" fill="#800080" />
  <circle cx="74" cy="154" r="8" fill="#800080" />
  <circle cx="148" cy="96" r="8" fill="#800080" />
  <circle cx="149" cy="112" r="8" fill="#800080" />
  <circle cx="150" cy="128" r="8" fill="#800080" />
  <circle cx="151" cy="144" r="8" fill="#800080" />
  <circle cx="152" cy="160" r="8" fill="#800080" />
  <circle cx="25" cy="193" r="7" fill="#800080" />
  <circle cx="152" cy="175" r="7" fill="#800080" />
  <circle cx="77" cy="168" r="6" fill="#800080" />
  <circle cx="27" cy="168" r="5" fill="#800080" />
  <circle cx="27" cy="178" r="5" fill="#800080" />
  <circle cx="28" cy="144" r="5" fill="#800080" />
  <circle cx="28" cy="154" r="5" fill="#800080" />
  <circle cx="29" cy="120" r="5" fill="#800080" />
  <circle cx="88" cy="195" r="5" fill="#800080" />
  <circle cx="154" cy="66" r="5" fill="#800080" />
  <circle cx="16" cy="65" r="4" fill="#800080" />
  <circle cx="24" cy="65" r="4" fill="#800080" />
  <circle cx="28" cy="129" r="4" fill="#800080" />
  <circle cx="29" cy="96" r="4" fill="#800080" />
  <circle cx="29" cy="104" r="4" fill="#800080" />
  <circle cx="36" cy="196" r="4" fill="#800080" />
  <circle cx="99" cy="172" r="4" fill="#800080" />
  <circle cx="103" cy="162" r="4" fill="#800080" />
  <circle cx="107" cy="152" r="4" fill="#800080" />
  <circle cx="111" cy="142" r="4" fill="#800080" />
  <circle cx="115" cy="133" r="4" fill="#800080" />
  <circle cx="118" cy="125" r="4" fill="#800080" />
  <circle cx="122" cy="116" r="4" fill="#800080" />
  <circle cx="125" cy="108" r="4" fill="#800080" />
  <circle cx="129" cy="99" r="4" fill="#800080" />
  <circle cx="133" cy="89" r="4" fill="#800080" />
  <circle cx="164" cy="196" r="4" fill="#800080" />
  <circle cx="172" cy="196" r="4" fill="#800080" />
</svg>
