<?xml version="1.0"?>
<svg width="183" height="256">
  <circle cx="37" cy="76" r="12" fill="#800080" />
  <circle cx="146" cy="76" r="11" fill="#800080" />
  <circle cx="89" cy="184" r="10" fill="#800080" />
  <circle cx="152" cy="190" r="10" fill="#800080" />
  <circle cx="48" cy="94" r="9" fill="#800080" />
  <circle cx="55" cy="111" r="9" fill="#800080" />
  <circle cx="63" cy="129" r="9" fill="#800080" />
  <circle cx="70" cy="146" r="9" fill="#800080" />
  <circle cx="78" cy="164" r="9" fill="#800080" />
  <circle cx="148" cy="95" r="9" fill="#800080" />
  <circle cx="149" cy="112" r="9" fill="#800080" />
  <circle cx="150" cy="129" r="9" fill="#800080" />
  <circle cx="151" cy="146" r="9" fill="#800080" />
  <circle cx="152" cy="163" r="9" fill="#800080" />
  <circle cx="25" cy="193" r="7" fill="#800080" />
  <circle cx="27" cy="169" r="6" fill="#800080" />
  <circle cx="27" cy="180" r="6" fill="#800080" />
  <circle cx="28" cy="145" r="6" fill="#800080" />
  <circle cx="28" cy="156" r="6" fill="#800080" />
  <circle cx="29" cy="121" r="6" fill="#800080" />
  <circle cx="109" cy="148" r="5" fill="#800080" />
  <circle cx="16" cy="65" r="5" fill="#800080" />
  <circle cx="25" cy="65" r="5" fill="#800080" />
  <circle cx="28" cy="131" r="5" fill="#800080" />
  <circle cx="29" cy="96" r="5" fill="#800080" />
  <circle cx="29" cy="105" r="5" fill="#800080" />
  <circle cx="36" cy="196" r="5" fill="#800080" />
  <circle cx="89" cy="198" r="5" fill="#800080" />
  <circle cx="99" cy="172" r="5" fill="#800080" />
  <circle cx="103" cy="162" r="5" fill="#800080" />
  <circle cx="113" cy="137" r="5" fill="#800080" />
  <circle cx="117" cy="128" r="5" fill="#800080" />
  <circle cx="121" cy="118" r="5" fill="#800080" />
  <circle cx="125" cy="108" r="5" fill="#800080" />
  <circle cx="129" cy="99" r="5" fill="#800080" />
  <circle cx="133" cy="89" r="5" fill="#800080" />
  <circle cx="149" cy="176" r="5" fill="#800080" />
  <circle cx="157" cy="65" r="5" fill="#800080" />
  <circle cx="166" cy="196" r="5" fill="#800080" />
  <circle cx="139" cy="196" r="4" fill="#800080" />
  <circle cx="11" cy="197" r="4" fill="#800080" />
  <circle cx="78" cy="176" r="4" fill="#800080" />
  <circle cx="157" cy="175" r="4" fill="#800080" />
  <circle cx="165" cy="64" r="4" fill="#800080" />
</svg>
