<?xml version="1.0"?>
<svg width="178" height="256">
  <circle cx="27" cy="191" r="9" fill="#800080" />
  <circle cx="86" cy="115" r="9" fill="#800080" />
  <circle cx="88" cy="191" r="9" fill="#800080" />
  <circle cx="90" cy="133" r="9" fill="#800080" />
  <circle cx="90" cy="151" r="9" fill="#800080" />
  <circle cx="90" cy="169" r="9" fill="#800080" />
  <circle cx="147" cy="116" r="9" fill="#800080" />
  <circle cx="150" cy="191" r="9" fill="#800080" />
  <circle cx="28" cy="118" r="8" fill="#800080" />
  <circle cx="28" cy="134" r="8" fill="#800080" />
  <circle cx="28" cy="150" r="8" fill="#800080" />
  <circle cx="28" cy="166" r="8" fill="#800080" />
  <circle cx="151" cy="133" r="8" fill="#800080" />
  <circle cx="151" cy="149" r="8" fill="#800080" />
  <circle cx="151" cy="165" r="8" fill="#800080" />
  <circle cx="72" cy="104" r="6" fill="#800080" />
  <circle cx="131" cy="104" r="6" fill="#800080" />
  <circle cx="30" cy="105" r="5" fill="#800080" />
  <circle cx="60" cy="103" r="5" fill="#800080" />
  <circle cx="120" cy="103" r="5" fill="#800080" />
  <circle cx="11" cy="108" r="4" fill="#800080" />
  <circle cx="19" cy="107" r="4" fill="#800080" />
  <circle cx="24" cy="178" r="4" fill="#800080" />
  <circle cx="32" cy="178" r="4" fill="#800080" />
  <circle cx="109" cy="106" r="4" fill="#800080" />
  <circle cx="147" cy="177" r="4" fill="#800080" />
  <circle cx="155" cy="177" r="4" fill="#800080" />
</svg>
