<?xml version="1.0"?>
<svg width="178" height="256">
  <circle cx="28" cy="188" r="10" fill="#800080" />
  <circle cx="88" cy="117" r="10" fill="#800080" />
  <circle cx="89" cy="188" r="10" fill="#800080" />
  <circle cx="90" cy="136" r="10" fill="#800080" />
  <circle cx="90" cy="155" r="10" fill="#800080" />
  <circle cx="151" cy="187" r="10" fill="#800080" />
  <circle cx="147" cy="116" r="9" fill="#800080" />
  <circle cx="28" cy="119" r="9" fill="#800080" />
  <circle cx="28" cy="136" r="9" fill="#800080" />
  <circle cx="28" cy="153" r="9" fill="#800080" />
  <circle cx="28" cy="170" r="9" fill="#800080" />
  <circle cx="151" cy="133" r="9" fill="#800080" />
  <circle cx="151" cy="150" r="9" fill="#800080" />
  <circle cx="151" cy="167" r="9" fill="#800080" />
  <circle cx="135" cy="105" r="7" fill="#800080" />
  <circle cx="73" cy="104" r="7" fill="#800080" />
  <circle cx="87" cy="171" r="7" fill="#800080" />
  <circle cx="31" cy="105" r="6" fill="#800080" />
  <circle cx="61" cy="103" r="6" fill="#800080" />
  <circle cx="121" cy="103" r="6" fill="#800080" />
  <circle cx="11" cy="108" r="5" fill="#800080" />
  <circle cx="20" cy="107" r="5" fill="#800080" />
  <circle cx="109" cy="106" r="5" fill="#800080" />
  <circle cx="46" cy="107" r="4" fill="#800080" />
  <circle cx="11" cy="197" r="4" fill="#800080" />
  <circle cx="39" cy="111" r="4" fill="#800080" />
  <circle cx="39" cy="196" r="4" fill="#800080" />
  <circle cx="46" cy="196" r="4" fill="#800080" />
  <circle cx="73" cy="197" r="4" fill="#800080" />
  <circle cx="100" cy="110" r="4" fill="#800080" />
  <circle cx="100" cy="196" r="4" fill="#800080" />
  <circle cx="107" cy="196" r="4" fill="#800080" />
  <circle cx="134" cy="197" r="4" fill="#800080" />
  <circle cx="141" cy="197" r="4" fill="#800080" />
  <circle cx="161" cy="197" r="4" fill="#800080" />
  <circle cx="168" cy="196" r="4" fill="#800080" />
</svg>
