<?xml version="1.0"?>
<svg width="152" height="256">
  <circle cx="119" cy="184" r="12" fill="#800080" />
  <circle cx="35" cy="78" r="11" fill="#800080" />
  <circle cx="49" cy="94" r="9" fill="#800080" />
  <circle cx="60" cy="108" r="9" fill="#800080" />
  <circle cx="70" cy="123" r="9" fill="#800080" />
  <circle cx="81" cy="137" r="9" fill="#800080" />
  <circle cx="92" cy="151" r="9" fill="#800080" />
  <circle cx="102" cy="166" r="9" fill="#800080" />
  <circle cx="27" cy="193" r="7" fill="#800080" />
  <circle cx="127" cy="67" r="7" fill="#800080" />
  <circle cx="125" cy="79" r="6" fill="#800080" />
  <circle cx="125" cy="90" r="6" fill="#800080" />
  <circle cx="125" cy="101" r="6" fill="#800080" />
  <circle cx="125" cy="112" r="6" fill="#800080" />
  <circle cx="125" cy="123" r="6" fill="#800080" />
  <circle cx="125" cy="134" r="6" fill="#800080" />
  <circle cx="125" cy="145" r="6" fill="#800080" />
  <circle cx="125" cy="156" r="6" fill="#800080" />
  <circle cx="125" cy="167" r="6" fill="#800080" />
  <circle cx="15" cy="65" r="5" fill="#800080" />
  <circle cx="24" cy="65" r="5" fill="#800080" />
  <circle cx="28" cy="92" r="5" fill="#800080" />
  <circle cx="28" cy="101" r="5" fill="#800080" />
  <circle cx="28" cy="110" r="5" fill="#800080" />
  <circle cx="28" cy="119" r="5" fill="#800080" />
  <circle cx="28" cy="128" r="5" fill="#800080" />
  <circle cx="28" cy="137" r="5" fill="#800080" />
  <circle cx="28" cy="146" r="5" fill="#800080" />
  <circle cx="28" cy="155" r="5" fill="#800080" />
  <circle cx="28" cy="164" r="5" fill="#800080" />
  <circle cx="28" cy="173" r="5" fill="#800080" />
  <circle cx="28" cy="182" r="5" fill="#800080" />
  <circle cx="38" cy="196" r="5" fill="#800080" />
  <circle cx="111" cy="65" r="5" fill="#800080" />
  <circle cx="122" cy="200" r="5" fill="#800080" />
  <circle cx="14" cy="197" r="4" fill="#800080" />
  <circle cx="32" cy="64" r="4" fill="#800080" />
  <circle cx="137" cy="64" r="4" fill="#800080" />
  <circle cx="104" cy="178" r="3" fill="#800080" />
  <circle cx="45" cy="194" r="3" fill="#800080" />
  <circle cx="48" cy="82" r="3" fill="#800080" />
  <circle cx="113" cy="170" r="3" fill="#800080" />
  <circle cx="118" cy="63" r="3" fill="#800080" />
</svg>
