<?xml version="1.0"?>
<svg width="152" height="256">
  <circle cx="119" cy="184" r="11" fill="#800080" />
  <circle cx="34" cy="76" r="10" fill="#800080" />
  <circle cx="46" cy="90" r="8" fill="#800080" />
  <circle cx="56" cy="103" r="8" fill="#800080" />
  <circle cx="65" cy="117" r="8" fill="#800080" />
  <circle cx="75" cy="130" r="8" fill="#800080" />
  <circle cx="85" cy="143" r="8" fill="#800080" />
  <circle cx="95" cy="156" r="8" fill="#800080" />
  <circle cx="105" cy="169" r="8" fill="#800080" />
  <circle cx="25" cy="194" r="6" fill="#800080" />
  <circle cx="126" cy="67" r="6" fill="#800080" />
  <circle cx="125" cy="78" r="5" fill="#800080" />
  <circle cx="125" cy="88" r="5" fill="#800080" />
  <circle cx="125" cy="98" r="5" fill="#800080" />
  <circle cx="125" cy="108" r="5" fill="#800080" />
  <circle cx="125" cy="118" r="5" fill="#800080" />
  <circle cx="125" cy="128" r="5" fill="#800080" />
  <circle cx="125" cy="138" r="5" fill="#800080" />
  <circle cx="125" cy="148" r="5" fill="#800080" />
  <circle cx="125" cy="158" r="5" fill="#800080" />
  <circle cx="125" cy="168" r="5" fill="#800080" />
  <circle cx="15" cy="65" r="4" fill="#800080" />
  <circle cx="23" cy="65" r="4" fill="#800080" />
  <circle cx="28" cy="90" r="4" fill="#800080" />
  <circle cx="28" cy="98" r="4" fill="#800080" />
  <circle cx="28" cy="106" r="4" fill="#800080" />
  <circle cx="28" cy="114" r="4" fill="#800080" />
  <circle cx="28" cy="122" r="4" fill="#800080" />
  <circle cx="28" cy="130" r="4" fill="#800080" />
  <circle cx="28" cy="138" r="4" fill="#800080" />
  <circle cx="28" cy="146" r="4" fill="#800080" />
  <circle cx="28" cy="154" r="4" fill="#800080" />
  <circle cx="28" cy="162" r="4" fill="#800080" />
  <circle cx="28" cy="170" r="4" fill="#800080" />
  <circle cx="28" cy="178" r="4" fill="#800080" />
  <circle cx="35" cy="196" r="4" fill="#800080" />
  <circle cx="43" cy="196" r="4" fill="#800080" />
  <circle cx="111" cy="65" r="4" fill="#800080" />
  <circle cx="122" cy="199" r="4" fill="#800080" />
</svg>
