<?xml version="1.0"?>
<svg width="117" height="256">
  <circle cx="19" cy="162" r="11" fill="#800080" />
  <circle cx="96" cy="135" r="11" fill="#800080" />
  <circle cx="98" cy="156" r="10" fill="#800080" />
  <circle cx="18" cy="142" r="10" fill="#800080" />
  <circle cx="26" cy="181" r="9" fill="#800080" />
  <circle cx="93" cy="175" r="8" fill="#800080" />
  <circle cx="23" cy="124" r="8" fill="#800080" />
  <circle cx="86" cy="115" r="8" fill="#800080" />
  <circle cx="37" cy="192" r="7" fill="#800080" />
  <circle cx="85" cy="188" r="6" fill="#800080" />
  <circle cx="32" cy="112" r="6" fill="#800080" />
  <circle cx="74" cy="105" r="5" fill="#800080" />
  <circle cx="40" cy="105" r="5" fill="#800080" />
  <circle cx="47" cy="198" r="5" fill="#800080" />
  <circle cx="50" cy="102" r="5" fill="#800080" />
  <circle cx="57" cy="200" r="5" fill="#800080" />
  <circle cx="59" cy="101" r="5" fill="#800080" />
  <circle cx="66" cy="199" r="5" fill="#800080" />
  <circle cx="75" cy="196" r="5" fill="#800080" />
  <circle cx="96" cy="121" r="4" fill="#800080" />
  <circle cx="67" cy="101" r="3" fill="#800080" />
  <circle cx="15" cy="175" r="3" fill="#800080" />
  <circle cx="85" cy="125" r="3" fill="#800080" />
  <circle cx="93" cy="185" r="3" fill="#800080" />
  <circle cx="102" cy="168" r="3" fill="#800080" />
  <circle cx="106" cy="145" r="3" fill="#800080" />
</svg>
