<?xml version="1.0"?>
<svg width="158" height="256">
  <circle cx="19" cy="133" r="10" fill="#800080" />
  <circle cx="138" cy="117" r="10" fill="#800080" />
  <circle cx="139" cy="137" r="10" fill="#800080" />
  <circle cx="20" cy="114" r="9" fill="#800080" />
  <circle cx="21" cy="152" r="9" fill="#800080" />
  <circle cx="29" cy="169" r="9" fill="#800080" />
  <circle cx="131" cy="96" r="9" fill="#800080" />
  <circle cx="25" cy="97" r="8" fill="#800080" />
  <circle cx="39" cy="183" r="8" fill="#800080" />
  <circle cx="118" cy="78" r="8" fill="#800080" />
  <circle cx="131" cy="167" r="8" fill="#800080" />
  <circle cx="33" cy="83" r="7" fill="#800080" />
  <circle cx="121" cy="182" r="7" fill="#800080" />
  <circle cx="51" cy="192" r="6" fill="#800080" />
  <circle cx="105" cy="68" r="6" fill="#800080" />
  <circle cx="133" cy="153" r="6" fill="#800080" />
  <circle cx="41" cy="74" r="5" fill="#800080" />
  <circle cx="50" cy="69" r="5" fill="#800080" />
  <circle cx="62" cy="197" r="5" fill="#800080" />
  <circle cx="105" cy="194" r="5" fill="#800080" />
  <circle cx="58" cy="64" r="4" fill="#800080" />
  <circle cx="67" cy="62" r="4" fill="#800080" />
  <circle cx="71" cy="199" r="4" fill="#800080" />
  <circle cx="76" cy="61" r="4" fill="#800080" />
  <circle cx="79" cy="199" r="4" fill="#800080" />
  <circle cx="84" cy="62" r="4" fill="#800080" />
  <circle cx="87" cy="199" r="4" fill="#800080" />
  <circle cx="92" cy="63" r="4" fill="#800080" />
  <circle cx="95" cy="198" r="4" fill="#800080" />
</svg>
