<?xml version="1.0"?>
<svg width="117" height="256">
  <circle cx="18" cy="146" r="10" fill="#800080" />
  <circle cx="20" cy="166" r="10" fill="#800080" />
  <circle cx="95" cy="131" r="10" fill="#800080" />
  <circle cx="98" cy="151" r="10" fill="#800080" />
  <circle cx="22" cy="127" r="8" fill="#800080" />
  <circle cx="28" cy="183" r="8" fill="#800080" />
  <circle cx="93" cy="175" r="8" fill="#800080" />
  <circle cx="85" cy="114" r="7" fill="#800080" />
  <circle cx="30" cy="114" r="6" fill="#800080" />
  <circle cx="39" cy="194" r="6" fill="#800080" />
  <circle cx="85" cy="188" r="6" fill="#800080" />
  <circle cx="74" cy="105" r="5" fill="#800080" />
  <circle cx="38" cy="106" r="4" fill="#800080" />
  <circle cx="46" cy="103" r="4" fill="#800080" />
  <circle cx="49" cy="198" r="4" fill="#800080" />
  <circle cx="57" cy="101" r="4" fill="#800080" />
  <circle cx="57" cy="200" r="4" fill="#800080" />
  <circle cx="65" cy="102" r="4" fill="#800080" />
  <circle cx="65" cy="199" r="4" fill="#800080" />
  <circle cx="73" cy="197" r="4" fill="#800080" />
  <circle cx="101" cy="165" r="4" fill="#800080" />
</svg>
