<?xml version="1.0"?>
<svg width="119" height="256">
  <circle cx="98" cy="132" r="11" fill="#800080" />
  <circle cx="100" cy="153" r="11" fill="#800080" />
  <circle cx="28" cy="192" r="10" fill="#800080" />
  <circle cx="26" cy="240" r="10" fill="#800080" />
  <circle cx="28" cy="114" r="10" fill="#800080" />
  <circle cx="88" cy="114" r="9" fill="#800080" />
  <circle cx="26" cy="210" r="9" fill="#800080" />
  <circle cx="27" cy="132" r="9" fill="#800080" />
  <circle cx="27" cy="149" r="9" fill="#800080" />
  <circle cx="27" cy="166" r="9" fill="#800080" />
  <circle cx="95" cy="172" r="9" fill="#800080" />
  <circle cx="87" cy="186" r="7" fill="#800080" />
  <circle cx="73" cy="104" r="6" fill="#800080" />
  <circle cx="23" cy="224" r="6" fill="#800080" />
  <circle cx="77" cy="195" r="5" fill="#800080" />
  <circle cx="9" cy="108" r="5" fill="#800080" />
  <circle cx="42" cy="196" r="5" fill="#800080" />
  <circle cx="51" cy="199" r="5" fill="#800080" />
  <circle cx="52" cy="104" r="5" fill="#800080" />
  <circle cx="60" cy="200" r="5" fill="#800080" />
  <circle cx="61" cy="102" r="5" fill="#800080" />
  <circle cx="22" cy="179" r="4" fill="#800080" />
  <circle cx="10" cy="248" r="4" fill="#800080" />
  <circle cx="17" cy="106" r="4" fill="#800080" />
  <circle cx="29" cy="178" r="4" fill="#800080" />
  <circle cx="32" cy="222" r="4" fill="#800080" />
  <circle cx="37" cy="248" r="4" fill="#800080" />
  <circle cx="41" cy="109" r="4" fill="#800080" />
  <circle cx="44" cy="247" r="4" fill="#800080" />
  <circle cx="68" cy="198" r="4" fill="#800080" />
  <circle cx="82" cy="103" r="3" fill="#800080" />
  <circle cx="16" cy="248" r="3" fill="#800080" />
  <circle cx="28" cy="102" r="3" fill="#800080" />
  <circle cx="31" cy="228" r="3" fill="#800080" />
  <circle cx="33" cy="101" r="3" fill="#800080" />
  <circle cx="96" cy="183" r="3" fill="#800080" />
  <circle cx="99" cy="117" r="3" fill="#800080" />
</svg>
