<?xml version="1.0"?>
<svg width="121" height="256">
  <circle cx="31" cy="191" r="9" fill="#800080" />
  <circle cx="33" cy="79" r="9" fill="#800080" />
  <circle cx="33" cy="97" r="9" fill="#800080" />
  <circle cx="33" cy="115" r="9" fill="#800080" />
  <circle cx="33" cy="133" r="9" fill="#800080" />
  <circle cx="33" cy="151" r="9" fill="#800080" />
  <circle cx="33" cy="169" r="9" fill="#800080" />
  <circle cx="101" cy="83" r="9" fill="#800080" />
  <circle cx="104" cy="113" r="9" fill="#800080" />
  <circle cx="92" cy="131" r="7" fill="#800080" />
  <circle cx="42" cy="66" r="6" fill="#800080" />
  <circle cx="86" cy="70" r="6" fill="#800080" />
  <circle cx="102" cy="98" r="6" fill="#800080" />
  <circle cx="27" cy="65" r="5" fill="#800080" />
  <circle cx="79" cy="139" r="5" fill="#800080" />
  <circle cx="15" cy="64" r="4" fill="#800080" />
  <circle cx="44" cy="196" r="4" fill="#800080" />
  <circle cx="45" cy="144" r="4" fill="#800080" />
  <circle cx="52" cy="64" r="4" fill="#800080" />
  <circle cx="52" cy="196" r="4" fill="#800080" />
  <circle cx="53" cy="144" r="4" fill="#800080" />
  <circle cx="60" cy="64" r="4" fill="#800080" />
  <circle cx="63" cy="143" r="4" fill="#800080" />
  <circle cx="68" cy="65" r="4" fill="#800080" />
  <circle cx="76" cy="66" r="4" fill="#800080" />
</svg>
