<?xml version="1.0"?>
<svg width="121" height="256">
  <circle cx="105" cy="94" r="10" fill="#800080" />
  <circle cx="32" cy="188" r="10" fill="#800080" />
  <circle cx="33" cy="80" r="10" fill="#800080" />
  <circle cx="33" cy="99" r="10" fill="#800080" />
  <circle cx="33" cy="118" r="10" fill="#800080" />
  <circle cx="33" cy="137" r="10" fill="#800080" />
  <circle cx="33" cy="156" r="10" fill="#800080" />
  <circle cx="104" cy="113" r="9" fill="#800080" />
  <circle cx="96" cy="77" r="8" fill="#800080" />
  <circle cx="96" cy="128" r="8" fill="#800080" />
  <circle cx="30" cy="172" r="7" fill="#800080" />
  <circle cx="42" cy="66" r="7" fill="#800080" />
  <circle cx="83" cy="137" r="6" fill="#800080" />
  <circle cx="28" cy="65" r="6" fill="#800080" />
  <circle cx="84" cy="69" r="6" fill="#800080" />
  <circle cx="73" cy="66" r="5" fill="#800080" />
  <circle cx="15" cy="64" r="5" fill="#800080" />
  <circle cx="20" cy="196" r="5" fill="#800080" />
  <circle cx="44" cy="196" r="5" fill="#800080" />
  <circle cx="46" cy="144" r="5" fill="#800080" />
  <circle cx="53" cy="64" r="5" fill="#800080" />
  <circle cx="53" cy="196" r="5" fill="#800080" />
  <circle cx="55" cy="144" r="5" fill="#800080" />
  <circle cx="62" cy="64" r="5" fill="#800080" />
  <circle cx="64" cy="143" r="5" fill="#800080" />
  <circle cx="73" cy="141" r="5" fill="#800080" />
</svg>
