<?xml version="1.0"?>
<svg width="119" height="256">
  <circle cx="95" cy="124" r="10" fill="#800080" />
  <circle cx="99" cy="159" r="10" fill="#800080" />
  <circle cx="26" cy="239" r="9" fill="#800080" />
  <circle cx="27" cy="177" r="9" fill="#800080" />
  <circle cx="27" cy="195" r="9" fill="#800080" />
  <circle cx="28" cy="114" r="9" fill="#800080" />
  <circle cx="26" cy="212" r="8" fill="#800080" />
  <circle cx="27" cy="131" r="8" fill="#800080" />
  <circle cx="27" cy="147" r="8" fill="#800080" />
  <circle cx="92" cy="180" r="8" fill="#800080" />
  <circle cx="81" cy="108" r="7" fill="#800080" />
  <circle cx="96" cy="141" r="7" fill="#800080" />
  <circle cx="25" cy="161" r="6" fill="#800080" />
  <circle cx="23" cy="225" r="5" fill="#800080" />
  <circle cx="67" cy="102" r="5" fill="#800080" />
  <circle cx="75" cy="196" r="5" fill="#800080" />
  <circle cx="83" cy="190" r="5" fill="#800080" />
  <circle cx="9" cy="108" r="4" fill="#800080" />
  <circle cx="42" cy="196" r="4" fill="#800080" />
  <circle cx="51" cy="199" r="4" fill="#800080" />
  <circle cx="52" cy="104" r="4" fill="#800080" />
  <circle cx="59" cy="200" r="4" fill="#800080" />
</svg>
