<?xml version="1.0"?>
<svg width="159" height="256">
  <circle cx="19" cy="134" r="11" fill="#800080" />
  <circle cx="139" cy="123" r="11" fill="#800080" />
  <circle cx="23" cy="156" r="10" fill="#800080" />
  <circle cx="119" cy="222" r="10" fill="#800080" />
  <circle cx="133" cy="101" r="10" fill="#800080" />
  <circle cx="137" cy="150" r="10" fill="#800080" />
  <circle cx="20" cy="114" r="9" fill="#800080" />
  <circle cx="32" cy="174" r="9" fill="#800080" />
  <circle cx="134" cy="234" r="9" fill="#800080" />
  <circle cx="25" cy="97" r="8" fill="#800080" />
  <circle cx="93" cy="201" r="8" fill="#800080" />
  <circle cx="116" cy="76" r="8" fill="#800080" />
  <circle cx="125" cy="177" r="8" fill="#800080" />
  <circle cx="33" cy="83" r="7" fill="#800080" />
  <circle cx="42" cy="186" r="7" fill="#800080" />
  <circle cx="104" cy="211" r="7" fill="#800080" />
  <circle cx="42" cy="74" r="6" fill="#800080" />
  <circle cx="53" cy="193" r="6" fill="#800080" />
  <circle cx="101" cy="66" r="6" fill="#800080" />
  <circle cx="110" cy="191" r="6" fill="#800080" />
  <circle cx="123" cy="88" r="6" fill="#800080" />
  <circle cx="129" cy="164" r="6" fill="#800080" />
  <circle cx="53" cy="67" r="5" fill="#800080" />
  <circle cx="62" cy="63" r="5" fill="#800080" />
  <circle cx="63" cy="197" r="5" fill="#800080" />
  <circle cx="71" cy="62" r="5" fill="#800080" />
  <circle cx="72" cy="199" r="5" fill="#800080" />
  <circle cx="80" cy="61" r="5" fill="#800080" />
  <circle cx="81" cy="199" r="5" fill="#800080" />
  <circle cx="89" cy="62" r="5" fill="#800080" />
  <circle cx="145" cy="138" r="5" fill="#800080" />
  <circle cx="147" cy="239" r="5" fill="#800080" />
  <circle cx="119" cy="187" r="4" fill="#800080" />
  <circle cx="132" cy="87" r="4" fill="#800080" />
  <circle cx="132" cy="136" r="4" fill="#800080" />
  <circle cx="138" cy="163" r="4" fill="#800080" />
  <circle cx="135" cy="171" r="3" fill="#800080" />
  <circle cx="13" cy="147" r="3" fill="#800080" />
  <circle cx="16" cy="103" r="3" fill="#800080" />
  <circle cx="20" cy="168" r="3" fill="#800080" />
  <circle cx="33" cy="185" r="3" fill="#800080" />
  <circle cx="101" cy="193" r="3" fill="#800080" />
  <circle cx="107" cy="220" r="3" fill="#800080" />
  <circle cx="109" cy="66" r="3" fill="#800080" />
  <circle cx="113" cy="209" r="3" fill="#800080" />
  <circle cx="122" cy="234" r="3" fill="#800080" />
  <circle cx="126" cy="78" r="3" fill="#800080" />
  <circle cx="129" cy="113" r="3" fill="#800080" />
  <circle cx="138" cy="136" r="3" fill="#800080" />
  <circle cx="143" cy="109" r="3" fill="#800080" />
  <circle cx="154" cy="239" r="3" fill="#800080" />
</svg>
