<?xml version="1.0"?>
<svg width="115" height="256">
  <circle cx="18" cy="147" r="10" fill="#800080" />
  <circle cx="20" cy="167" r="10" fill="#800080" />
  <circle cx="90" cy="112" r="10" fill="#800080" />
  <circle cx="29" cy="185" r="9" fill="#800080" />
  <circle cx="90" cy="186" r="9" fill="#800080" />
  <circle cx="90" cy="241" r="9" fill="#800080" />
  <circle cx="21" cy="129" r="8" fill="#800080" />
  <circle cx="91" cy="130" r="8" fill="#800080" />
  <circle cx="91" cy="146" r="8" fill="#800080" />
  <circle cx="91" cy="162" r="8" fill="#800080" />
  <circle cx="91" cy="203" r="8" fill="#800080" />
  <circle cx="91" cy="219" r="8" fill="#800080" />
  <circle cx="28" cy="116" r="6" fill="#800080" />
  <circle cx="41" cy="195" r="6" fill="#800080" />
  <circle cx="37" cy="108" r="5" fill="#800080" />
  <circle cx="52" cy="198" r="5" fill="#800080" />
  <circle cx="47" cy="103" r="4" fill="#800080" />
  <circle cx="58" cy="101" r="4" fill="#800080" />
  <circle cx="61" cy="198" r="4" fill="#800080" />
  <circle cx="70" cy="196" r="4" fill="#800080" />
  <circle cx="75" cy="104" r="4" fill="#800080" />
</svg>
