<?xml version="1.0"?>
<svg width="159" height="256">
  <circle cx="19" cy="133" r="10" fill="#800080" />
  <circle cx="23" cy="156" r="10" fill="#800080" />
  <circle cx="121" cy="224" r="10" fill="#800080" />
  <circle cx="138" cy="117" r="10" fill="#800080" />
  <circle cx="139" cy="137" r="10" fill="#800080" />
  <circle cx="20" cy="114" r="9" fill="#800080" />
  <circle cx="131" cy="96" r="9" fill="#800080" />
  <circle cx="25" cy="97" r="8" fill="#800080" />
  <circle cx="31" cy="173" r="8" fill="#800080" />
  <circle cx="106" cy="212" r="8" fill="#800080" />
  <circle cx="118" cy="78" r="8" fill="#800080" />
  <circle cx="129" cy="171" r="8" fill="#800080" />
  <circle cx="135" cy="155" r="8" fill="#800080" />
  <circle cx="136" cy="235" r="8" fill="#800080" />
  <circle cx="33" cy="83" r="7" fill="#800080" />
  <circle cx="41" cy="185" r="7" fill="#800080" />
  <circle cx="93" cy="201" r="7" fill="#800080" />
  <circle cx="105" cy="68" r="6" fill="#800080" />
  <circle cx="116" cy="187" r="6" fill="#800080" />
  <circle cx="41" cy="74" r="5" fill="#800080" />
  <circle cx="50" cy="69" r="5" fill="#800080" />
  <circle cx="50" cy="193" r="5" fill="#800080" />
  <circle cx="62" cy="197" r="5" fill="#800080" />
  <circle cx="105" cy="194" r="5" fill="#800080" />
  <circle cx="58" cy="64" r="4" fill="#800080" />
  <circle cx="67" cy="62" r="4" fill="#800080" />
  <circle cx="71" cy="199" r="4" fill="#800080" />
  <circle cx="76" cy="61" r="4" fill="#800080" />
  <circle cx="79" cy="199" r="4" fill="#800080" />
  <circle cx="84" cy="62" r="4" fill="#800080" />
  <circle cx="92" cy="63" r="4" fill="#800080" />
  <circle cx="148" cy="240" r="4" fill="#800080" />
</svg>
