<?xml version="1.0"?>
<svg width="115" height="256">
  <circle cx="20" cy="166" r="11" fill="#800080" />
  <circle cx="19" cy="142" r="11" fill="#800080" />
  <circle cx="90" cy="112" r="10" fill="#800080" />
  <circle cx="90" cy="187" r="10" fill="#800080" />
  <circle cx="90" cy="242" r="10" fill="#800080" />
  <circle cx="29" cy="185" r="9" fill="#800080" />
  <circle cx="91" cy="130" r="9" fill="#800080" />
  <circle cx="91" cy="147" r="9" fill="#800080" />
  <circle cx="91" cy="164" r="9" fill="#800080" />
  <circle cx="91" cy="205" r="9" fill="#800080" />
  <circle cx="91" cy="222" r="9" fill="#800080" />
  <circle cx="25" cy="123" r="8" fill="#800080" />
  <circle cx="42" cy="195" r="7" fill="#800080" />
  <circle cx="34" cy="111" r="6" fill="#800080" />
  <circle cx="54" cy="198" r="5" fill="#800080" />
  <circle cx="43" cy="105" r="5" fill="#800080" />
  <circle cx="58" cy="101" r="5" fill="#800080" />
  <circle cx="63" cy="198" r="5" fill="#800080" />
  <circle cx="75" cy="104" r="5" fill="#800080" />
  <circle cx="72" cy="195" r="4" fill="#800080" />
  <circle cx="66" cy="101" r="4" fill="#800080" />
  <circle cx="74" cy="248" r="4" fill="#800080" />
  <circle cx="103" cy="247" r="4" fill="#800080" />
  <circle cx="11" cy="154" r="3" fill="#800080" />
  <circle cx="15" cy="128" r="3" fill="#800080" />
  <circle cx="16" cy="179" r="3" fill="#800080" />
  <circle cx="26" cy="113" r="3" fill="#800080" />
  <circle cx="27" cy="154" r="3" fill="#800080" />
  <circle cx="32" cy="196" r="3" fill="#800080" />
  <circle cx="50" cy="101" r="3" fill="#800080" />
  <circle cx="77" cy="190" r="3" fill="#800080" />
  <circle cx="85" cy="175" r="3" fill="#800080" />
  <circle cx="90" cy="175" r="3" fill="#800080" />
  <circle cx="95" cy="175" r="3" fill="#800080" />
  <circle cx="97" cy="101" r="3" fill="#800080" />
  <circle cx="98" cy="232" r="3" fill="#800080" />
  <circle cx="109" cy="246" r="3" fill="#800080" />
</svg>
