<?xml version="1.0"?>
<svg width="125" height="256">
  <circle cx="101" cy="95" r="10" fill="#800080" />
  <circle cx="32" cy="188" r="10" fill="#800080" />
  <circle cx="33" cy="80" r="10" fill="#800080" />
  <circle cx="33" cy="99" r="10" fill="#800080" />
  <circle cx="33" cy="118" r="10" fill="#800080" />
  <circle cx="33" cy="137" r="10" fill="#800080" />
  <circle cx="33" cy="156" r="10" fill="#800080" />
  <circle cx="77" cy="154" r="9" fill="#800080" />
  <circle cx="67" cy="138" r="9" fill="#800080" />
  <circle cx="87" cy="169" r="9" fill="#800080" />
  <circle cx="97" cy="114" r="9" fill="#800080" />
  <circle cx="97" cy="185" r="9" fill="#800080" />
  <circle cx="94" cy="77" r="8" fill="#800080" />
  <circle cx="30" cy="172" r="7" fill="#800080" />
  <circle cx="42" cy="66" r="7" fill="#800080" />
  <circle cx="86" cy="126" r="6" fill="#800080" />
  <circle cx="28" cy="65" r="6" fill="#800080" />
  <circle cx="108" cy="195" r="6" fill="#800080" />
  <circle cx="80" cy="68" r="5" fill="#800080" />
  <circle cx="15" cy="64" r="5" fill="#800080" />
  <circle cx="20" cy="196" r="5" fill="#800080" />
  <circle cx="44" cy="196" r="5" fill="#800080" />
  <circle cx="53" cy="64" r="5" fill="#800080" />
  <circle cx="67" cy="65" r="5" fill="#800080" />
  <circle cx="47" cy="134" r="4" fill="#800080" />
  <circle cx="52" cy="195" r="4" fill="#800080" />
  <circle cx="54" cy="134" r="4" fill="#800080" />
  <circle cx="76" cy="129" r="4" fill="#800080" />
  <circle cx="117" cy="196" r="4" fill="#800080" />
</svg>
