<?xml version="1.0"?>
<svg width="125" height="256">
  <circle cx="31" cy="191" r="9" fill="#800080" />
  <circle cx="33" cy="79" r="9" fill="#800080" />
  <circle cx="33" cy="97" r="9" fill="#800080" />
  <circle cx="33" cy="115" r="9" fill="#800080" />
  <circle cx="33" cy="133" r="9" fill="#800080" />
  <circle cx="33" cy="151" r="9" fill="#800080" />
  <circle cx="33" cy="169" r="9" fill="#800080" />
  <circle cx="97" cy="81" r="9" fill="#800080" />
  <circle cx="100" cy="99" r="9" fill="#800080" />
  <circle cx="66" cy="138" r="8" fill="#800080" />
  <circle cx="75" cy="152" r="8" fill="#800080" />
  <circle cx="84" cy="166" r="8" fill="#800080" />
  <circle cx="93" cy="180" r="8" fill="#800080" />
  <circle cx="96" cy="116" r="8" fill="#800080" />
  <circle cx="104" cy="192" r="8" fill="#800080" />
  <circle cx="42" cy="66" r="6" fill="#800080" />
  <circle cx="27" cy="65" r="5" fill="#800080" />
  <circle cx="78" cy="130" r="5" fill="#800080" />
  <circle cx="80" cy="68" r="5" fill="#800080" />
  <circle cx="15" cy="64" r="4" fill="#800080" />
  <circle cx="44" cy="196" r="4" fill="#800080" />
  <circle cx="52" cy="64" r="4" fill="#800080" />
  <circle cx="67" cy="65" r="4" fill="#800080" />
  <circle cx="85" cy="124" r="4" fill="#800080" />
  <circle cx="89" cy="70" r="4" fill="#800080" />
</svg>
