<?xml version="1.0"?>
<svg width="92" height="256">
  <circle cx="25" cy="139" r="10" fill="#800080" />
  <circle cx="66" cy="160" r="10" fill="#800080" />
  <circle cx="43" cy="149" r="9" fill="#800080" />
  <circle cx="76" cy="176" r="8" fill="#800080" />
  <circle cx="18" cy="120" r="8" fill="#800080" />
  <circle cx="18" cy="190" r="7" fill="#800080" />
  <circle cx="70" cy="111" r="7" fill="#800080" />
  <circle cx="71" cy="190" r="7" fill="#800080" />
  <circle cx="25" cy="108" r="6" fill="#800080" />
  <circle cx="61" cy="197" r="5" fill="#800080" />
  <circle cx="14" cy="177" r="5" fill="#800080" />
  <circle cx="30" cy="196" r="5" fill="#800080" />
  <circle cx="35" cy="102" r="5" fill="#800080" />
  <circle cx="40" cy="199" r="5" fill="#800080" />
  <circle cx="44" cy="101" r="5" fill="#800080" />
  <circle cx="49" cy="200" r="5" fill="#800080" />
  <circle cx="56" cy="149" r="5" fill="#800080" />
  <circle cx="58" cy="104" r="5" fill="#800080" />
  <circle cx="73" cy="122" r="5" fill="#800080" />
  <circle cx="52" cy="158" r="4" fill="#800080" />
  <circle cx="14" cy="131" r="4" fill="#800080" />
  <circle cx="72" cy="101" r="4" fill="#800080" />
  <circle cx="73" cy="130" r="4" fill="#800080" />
  <circle cx="79" cy="165" r="4" fill="#800080" />
</svg>
