<?xml version="1.0"?>
<svg width="113" height="256">
  <circle cx="86" cy="146" r="10" fill="#800080" />
  <circle cx="27" cy="110" r="9" fill="#800080" />
  <circle cx="20" cy="89" r="9" fill="#800080" />
  <circle cx="41" cy="121" r="9" fill="#800080" />
  <circle cx="58" cy="129" r="9" fill="#800080" />
  <circle cx="95" cy="163" r="9" fill="#800080" />
  <circle cx="88" cy="75" r="8" fill="#800080" />
  <circle cx="19" cy="184" r="8" fill="#800080" />
  <circle cx="92" cy="182" r="8" fill="#800080" />
  <circle cx="26" cy="73" r="7" fill="#800080" />
  <circle cx="71" cy="138" r="7" fill="#800080" />
  <circle cx="80" cy="194" r="6" fill="#800080" />
  <circle cx="17" cy="197" r="6" fill="#800080" />
  <circle cx="16" cy="171" r="5" fill="#800080" />
  <circle cx="29" cy="192" r="5" fill="#800080" />
  <circle cx="34" cy="65" r="5" fill="#800080" />
  <circle cx="38" cy="195" r="5" fill="#800080" />
  <circle cx="43" cy="62" r="5" fill="#800080" />
  <circle cx="47" cy="198" r="5" fill="#800080" />
  <circle cx="52" cy="61" r="5" fill="#800080" />
  <circle cx="56" cy="199" r="5" fill="#800080" />
  <circle cx="61" cy="62" r="5" fill="#800080" />
  <circle cx="65" cy="199" r="5" fill="#800080" />
  <circle cx="70" cy="64" r="5" fill="#800080" />
  <circle cx="90" cy="87" r="5" fill="#800080" />
  <circle cx="91" cy="63" r="5" fill="#800080" />
  <circle cx="92" cy="96" r="5" fill="#800080" />
  <circle cx="78" cy="68" r="4" fill="#800080" />
  <circle cx="14" cy="163" r="4" fill="#800080" />
  <circle cx="16" cy="101" r="4" fill="#800080" />
  <circle cx="70" cy="128" r="3" fill="#800080" />
  <circle cx="17" cy="78" r="3" fill="#800080" />
  <circle cx="27" cy="99" r="3" fill="#800080" />
  <circle cx="30" cy="121" r="3" fill="#800080" />
  <circle cx="72" cy="195" r="3" fill="#800080" />
  <circle cx="72" cy="200" r="3" fill="#800080" />
  <circle cx="80" cy="133" r="3" fill="#800080" />
  <circle cx="88" cy="192" r="3" fill="#800080" />
  <circle cx="98" cy="150" r="3" fill="#800080" />
  <circle cx="100" cy="174" r="3" fill="#800080" />
</svg>
