<?xml version="1.0"?>
<svg width="113" height="256">
  <circle cx="86" cy="146" r="10" fill="#800080" />
  <circle cx="23" cy="104" r="9" fill="#800080" />
  <circle cx="37" cy="118" r="9" fill="#800080" />
  <circle cx="70" cy="135" r="9" fill="#800080" />
  <circle cx="20" cy="186" r="8" fill="#800080" />
  <circle cx="52" cy="127" r="8" fill="#800080" />
  <circle cx="88" cy="75" r="8" fill="#800080" />
  <circle cx="94" cy="176" r="8" fill="#800080" />
  <circle cx="19" cy="88" r="7" fill="#800080" />
  <circle cx="95" cy="161" r="7" fill="#800080" />
  <circle cx="23" cy="75" r="6" fill="#800080" />
  <circle cx="86" cy="190" r="6" fill="#800080" />
  <circle cx="16" cy="171" r="5" fill="#800080" />
  <circle cx="31" cy="67" r="5" fill="#800080" />
  <circle cx="32" cy="193" r="5" fill="#800080" />
  <circle cx="76" cy="67" r="5" fill="#800080" />
  <circle cx="76" cy="196" r="5" fill="#800080" />
  <circle cx="91" cy="88" r="5" fill="#800080" />
  <circle cx="16" cy="198" r="4" fill="#800080" />
  <circle cx="40" cy="63" r="4" fill="#800080" />
  <circle cx="41" cy="197" r="4" fill="#800080" />
  <circle cx="48" cy="62" r="4" fill="#800080" />
  <circle cx="49" cy="199" r="4" fill="#800080" />
  <circle cx="57" cy="199" r="4" fill="#800080" />
  <circle cx="59" cy="62" r="4" fill="#800080" />
  <circle cx="65" cy="199" r="4" fill="#800080" />
  <circle cx="67" cy="63" r="4" fill="#800080" />
  <circle cx="91" cy="63" r="4" fill="#800080" />
  <circle cx="92" cy="97" r="4" fill="#800080" />
</svg>
