<?xml version="1.0"?>
<svg width="92" height="256">
  <circle cx="20" cy="132" r="9" fill="#800080" />
  <circle cx="34" cy="145" r="9" fill="#800080" />
  <circle cx="53" cy="153" r="9" fill="#800080" />
  <circle cx="69" cy="163" r="9" fill="#800080" />
  <circle cx="74" cy="184" r="7" fill="#800080" />
  <circle cx="17" cy="187" r="6" fill="#800080" />
  <circle cx="18" cy="117" r="6" fill="#800080" />
  <circle cx="69" cy="111" r="6" fill="#800080" />
  <circle cx="25" cy="107" r="5" fill="#800080" />
  <circle cx="63" cy="196" r="5" fill="#800080" />
  <circle cx="14" cy="177" r="4" fill="#800080" />
  <circle cx="15" cy="197" r="4" fill="#800080" />
  <circle cx="25" cy="194" r="4" fill="#800080" />
  <circle cx="35" cy="102" r="4" fill="#800080" />
  <circle cx="35" cy="198" r="4" fill="#800080" />
  <circle cx="44" cy="101" r="4" fill="#800080" />
  <circle cx="49" cy="200" r="4" fill="#800080" />
  <circle cx="58" cy="104" r="4" fill="#800080" />
  <circle cx="72" cy="121" r="4" fill="#800080" />
  <circle cx="78" cy="173" r="4" fill="#800080" />
</svg>
