<?xml version="1.0"?>
<svg width="128" height="256">
  <circle cx="62" cy="190" r="10" fill="#800080" />
  <circle cx="63" cy="69" r="9" fill="#800080" />
  <circle cx="63" cy="86" r="9" fill="#800080" />
  <circle cx="63" cy="103" r="9" fill="#800080" />
  <circle cx="63" cy="120" r="9" fill="#800080" />
  <circle cx="63" cy="137" r="9" fill="#800080" />
  <circle cx="63" cy="154" r="9" fill="#800080" />
  <circle cx="63" cy="171" r="9" fill="#800080" />
  <circle cx="114" cy="69" r="9" fill="#800080" />
  <circle cx="13" cy="69" r="8" fill="#800080" />
  <circle cx="9" cy="83" r="5" fill="#800080" />
  <circle cx="8" cy="92" r="5" fill="#800080" />
  <circle cx="25" cy="65" r="5" fill="#800080" />
  <circle cx="76" cy="196" r="5" fill="#800080" />
  <circle cx="100" cy="65" r="5" fill="#800080" />
  <circle cx="117" cy="82" r="5" fill="#800080" />
  <circle cx="119" cy="91" r="5" fill="#800080" />
  <circle cx="49" cy="196" r="4" fill="#800080" />
  <circle cx="7" cy="100" r="4" fill="#800080" />
  <circle cx="33" cy="64" r="4" fill="#800080" />
  <circle cx="40" cy="64" r="4" fill="#800080" />
  <circle cx="47" cy="64" r="4" fill="#800080" />
  <circle cx="75" cy="64" r="4" fill="#800080" />
  <circle cx="82" cy="64" r="4" fill="#800080" />
  <circle cx="84" cy="195" r="4" fill="#800080" />
  <circle cx="89" cy="64" r="4" fill="#800080" />
  <circle cx="118" cy="99" r="4" fill="#800080" />
  <circle cx="43" cy="196" r="3" fill="#800080" />
</svg>
