<?xml version="1.0"?>
<svg width="128" height="256">
  <circle cx="61" cy="191" r="9" fill="#800080" />
  <circle cx="13" cy="69" r="8" fill="#800080" />
  <circle cx="63" cy="69" r="8" fill="#800080" />
  <circle cx="63" cy="85" r="8" fill="#800080" />
  <circle cx="63" cy="101" r="8" fill="#800080" />
  <circle cx="63" cy="117" r="8" fill="#800080" />
  <circle cx="63" cy="133" r="8" fill="#800080" />
  <circle cx="63" cy="149" r="8" fill="#800080" />
  <circle cx="63" cy="165" r="8" fill="#800080" />
  <circle cx="113" cy="69" r="8" fill="#800080" />
  <circle cx="8" cy="84" r="4" fill="#800080" />
  <circle cx="8" cy="92" r="4" fill="#800080" />
  <circle cx="25" cy="65" r="4" fill="#800080" />
  <circle cx="58" cy="178" r="4" fill="#800080" />
  <circle cx="66" cy="177" r="4" fill="#800080" />
  <circle cx="74" cy="196" r="4" fill="#800080" />
  <circle cx="82" cy="196" r="4" fill="#800080" />
  <circle cx="100" cy="65" r="4" fill="#800080" />
  <circle cx="117" cy="81" r="4" fill="#800080" />
  <circle cx="118" cy="89" r="4" fill="#800080" />
  <circle cx="119" cy="97" r="4" fill="#800080" />
</svg>
