<?xml version="1.0"?>
<svg width="119" height="256">
  <circle cx="27" cy="169" r="10" fill="#800080" />
  <circle cx="90" cy="183" r="10" fill="#800080" />
  <circle cx="32" cy="188" r="9" fill="#800080" />
  <circle cx="26" cy="111" r="9" fill="#800080" />
  <circle cx="26" cy="128" r="9" fill="#800080" />
  <circle cx="26" cy="145" r="9" fill="#800080" />
  <circle cx="91" cy="110" r="9" fill="#800080" />
  <circle cx="91" cy="127" r="9" fill="#800080" />
  <circle cx="91" cy="144" r="9" fill="#800080" />
  <circle cx="91" cy="161" r="9" fill="#800080" />
  <circle cx="45" cy="197" r="6" fill="#800080" />
  <circle cx="56" cy="198" r="6" fill="#800080" />
  <circle cx="9" cy="108" r="5" fill="#800080" />
  <circle cx="73" cy="108" r="5" fill="#800080" />
  <circle cx="97" cy="196" r="5" fill="#800080" />
  <circle cx="108" cy="196" r="5" fill="#800080" />
  <circle cx="66" cy="196" r="4" fill="#800080" />
  <circle cx="73" cy="192" r="4" fill="#800080" />
  <circle cx="87" cy="196" r="4" fill="#800080" />
  <circle cx="21" cy="157" r="3" fill="#800080" />
  <circle cx="22" cy="181" r="3" fill="#800080" />
  <circle cx="26" cy="156" r="3" fill="#800080" />
  <circle cx="31" cy="156" r="3" fill="#800080" />
  <circle cx="33" cy="101" r="3" fill="#800080" />
  <circle cx="37" cy="199" r="3" fill="#800080" />
  <circle cx="78" cy="187" r="3" fill="#800080" />
  <circle cx="80" cy="106" r="3" fill="#800080" />
  <circle cx="97" cy="172" r="3" fill="#800080" />
</svg>
