<?xml version="1.0"?>
<svg width="150" height="256">
  <circle cx="28" cy="83" r="9" fill="#800080" />
  <circle cx="28" cy="101" r="9" fill="#800080" />
  <circle cx="28" cy="119" r="9" fill="#800080" />
  <circle cx="28" cy="137" r="9" fill="#800080" />
  <circle cx="33" cy="170" r="9" fill="#800080" />
  <circle cx="41" cy="186" r="8" fill="#800080" />
  <circle cx="28" cy="153" r="7" fill="#800080" />
  <circle cx="25" cy="67" r="6" fill="#800080" />
  <circle cx="53" cy="194" r="6" fill="#800080" />
  <circle cx="65" cy="197" r="6" fill="#800080" />
  <circle cx="77" cy="198" r="6" fill="#800080" />
  <circle cx="126" cy="67" r="6" fill="#800080" />
  <circle cx="36" cy="66" r="5" fill="#800080" />
  <circle cx="88" cy="197" r="5" fill="#800080" />
  <circle cx="98" cy="194" r="5" fill="#800080" />
  <circle cx="106" cy="188" r="5" fill="#800080" />
  <circle cx="113" cy="181" r="5" fill="#800080" />
  <circle cx="119" cy="170" r="5" fill="#800080" />
  <circle cx="122" cy="160" r="5" fill="#800080" />
  <circle cx="124" cy="144" r="5" fill="#800080" />
  <circle cx="125" cy="78" r="5" fill="#800080" />
  <circle cx="125" cy="88" r="5" fill="#800080" />
  <circle cx="125" cy="98" r="5" fill="#800080" />
  <circle cx="125" cy="108" r="5" fill="#800080" />
  <circle cx="125" cy="118" r="5" fill="#800080" />
  <circle cx="125" cy="128" r="5" fill="#800080" />
  <circle cx="10" cy="65" r="4" fill="#800080" />
  <circle cx="111" cy="65" r="4" fill="#800080" />
</svg>
