<?xml version="1.0"?>
<svg width="130" height="256">
  <circle cx="21" cy="71" r="10" fill="#800080" />
  <circle cx="66" cy="182" r="10" fill="#800080" />
  <circle cx="26" cy="91" r="9" fill="#800080" />
  <circle cx="33" cy="108" r="8" fill="#800080" />
  <circle cx="40" cy="123" r="8" fill="#800080" />
  <circle cx="46" cy="139" r="8" fill="#800080" />
  <circle cx="53" cy="154" r="8" fill="#800080" />
  <circle cx="56" cy="168" r="6" fill="#800080" />
  <circle cx="113" cy="67" r="6" fill="#800080" />
  <circle cx="100" cy="105" r="5" fill="#800080" />
  <circle cx="108" cy="83" r="5" fill="#800080" />
  <circle cx="4" cy="65" r="4" fill="#800080" />
  <circle cx="35" cy="65" r="4" fill="#800080" />
  <circle cx="66" cy="196" r="4" fill="#800080" />
  <circle cx="76" cy="170" r="4" fill="#800080" />
  <circle cx="79" cy="161" r="4" fill="#800080" />
  <circle cx="82" cy="153" r="4" fill="#800080" />
  <circle cx="85" cy="145" r="4" fill="#800080" />
  <circle cx="88" cy="136" r="4" fill="#800080" />
  <circle cx="91" cy="128" r="4" fill="#800080" />
  <circle cx="94" cy="119" r="4" fill="#800080" />
  <circle cx="97" cy="65" r="4" fill="#800080" />
  <circle cx="103" cy="94" r="4" fill="#800080" />
  <circle cx="123" cy="65" r="4" fill="#800080" />
</svg>
