<?xml version="1.0"?>
<svg width="130" height="256">
  <circle cx="22" cy="72" r="11" fill="#800080" />
  <circle cx="66" cy="182" r="10" fill="#800080" />
  <circle cx="27" cy="93" r="9" fill="#800080" />
  <circle cx="34" cy="110" r="9" fill="#800080" />
  <circle cx="41" cy="127" r="9" fill="#800080" />
  <circle cx="48" cy="144" r="9" fill="#800080" />
  <circle cx="56" cy="162" r="9" fill="#800080" />
  <circle cx="114" cy="68" r="7" fill="#800080" />
  <circle cx="100" cy="105" r="5" fill="#800080" />
  <circle cx="5" cy="65" r="5" fill="#800080" />
  <circle cx="36" cy="65" r="5" fill="#800080" />
  <circle cx="66" cy="196" r="5" fill="#800080" />
  <circle cx="76" cy="170" r="5" fill="#800080" />
  <circle cx="79" cy="161" r="5" fill="#800080" />
  <circle cx="83" cy="150" r="5" fill="#800080" />
  <circle cx="87" cy="139" r="5" fill="#800080" />
  <circle cx="91" cy="128" r="5" fill="#800080" />
  <circle cx="94" cy="119" r="5" fill="#800080" />
  <circle cx="97" cy="65" r="5" fill="#800080" />
  <circle cx="103" cy="94" r="5" fill="#800080" />
  <circle cx="107" cy="83" r="5" fill="#800080" />
  <circle cx="55" cy="174" r="4" fill="#800080" />
  <circle cx="124" cy="64" r="4" fill="#800080" />
</svg>
