<?xml version="1.0"?>
<svg width="101" height="256">
  <circle cx="50" cy="186" r="10" fill="#800080" />
  <circle cx="19" cy="110" r="10" fill="#800080" />
  <circle cx="24" cy="129" r="9" fill="#800080" />
  <circle cx="33" cy="150" r="9" fill="#800080" />
  <circle cx="41" cy="168" r="9" fill="#800080" />
  <circle cx="86" cy="108" r="7" fill="#800080" />
  <circle cx="74" cy="138" r="5" fill="#800080" />
  <circle cx="60" cy="175" r="5" fill="#800080" />
  <circle cx="64" cy="164" r="5" fill="#800080" />
  <circle cx="68" cy="153" r="5" fill="#800080" />
  <circle cx="77" cy="128" r="5" fill="#800080" />
  <circle cx="81" cy="119" r="5" fill="#800080" />
  <circle cx="72" cy="105" r="4" fill="#800080" />
  <circle cx="4" cy="104" r="4" fill="#800080" />
  <circle cx="24" cy="141" r="4" fill="#800080" />
  <circle cx="32" cy="104" r="4" fill="#800080" />
  <circle cx="33" cy="138" r="4" fill="#800080" />
  <circle cx="96" cy="104" r="4" fill="#800080" />
  <circle cx="70" cy="145" r="3" fill="#800080" />
  <circle cx="31" cy="161" r="3" fill="#800080" />
  <circle cx="39" cy="179" r="3" fill="#800080" />
  <circle cx="43" cy="157" r="3" fill="#800080" />
  <circle cx="48" cy="198" r="3" fill="#800080" />
  <circle cx="53" cy="198" r="3" fill="#800080" />
</svg>
