<?xml version="1.0"?>
<svg width="199" height="256">
  <circle cx="102" cy="88" r="12" fill="#800080" />
  <circle cx="24" cy="72" r="11" fill="#800080" />
  <circle cx="59" cy="177" r="11" fill="#800080" />
  <circle cx="137" cy="179" r="10" fill="#800080" />
  <circle cx="111" cy="108" r="9" fill="#800080" />
  <circle cx="28" cy="91" r="9" fill="#800080" />
  <circle cx="34" cy="110" r="9" fill="#800080" />
  <circle cx="40" cy="127" r="9" fill="#800080" />
  <circle cx="46" cy="145" r="9" fill="#800080" />
  <circle cx="117" cy="125" r="9" fill="#800080" />
  <circle cx="123" cy="142" r="9" fill="#800080" />
  <circle cx="129" cy="161" r="9" fill="#800080" />
  <circle cx="183" cy="68" r="7" fill="#800080" />
  <circle cx="49" cy="160" r="7" fill="#800080" />
  <circle cx="102" cy="70" r="6" fill="#800080" />
  <circle cx="59" cy="193" r="6" fill="#800080" />
  <circle cx="138" cy="194" r="6" fill="#800080" />
  <circle cx="177" cy="81" r="6" fill="#800080" />
  <circle cx="170" cy="101" r="5" fill="#800080" />
  <circle cx="5" cy="65" r="5" fill="#800080" />
  <circle cx="38" cy="65" r="5" fill="#800080" />
  <circle cx="69" cy="165" r="5" fill="#800080" />
  <circle cx="72" cy="155" r="5" fill="#800080" />
  <circle cx="75" cy="146" r="5" fill="#800080" />
  <circle cx="78" cy="137" r="5" fill="#800080" />
  <circle cx="81" cy="127" r="5" fill="#800080" />
  <circle cx="84" cy="118" r="5" fill="#800080" />
  <circle cx="87" cy="109" r="5" fill="#800080" />
  <circle cx="90" cy="100" r="5" fill="#800080" />
  <circle cx="147" cy="168" r="5" fill="#800080" />
  <circle cx="150" cy="159" r="5" fill="#800080" />
  <circle cx="153" cy="150" r="5" fill="#800080" />
  <circle cx="156" cy="141" r="5" fill="#800080" />
  <circle cx="159" cy="132" r="5" fill="#800080" />
  <circle cx="162" cy="123" r="5" fill="#800080" />
  <circle cx="165" cy="65" r="5" fill="#800080" />
  <circle cx="165" cy="114" r="5" fill="#800080" />
  <circle cx="172" cy="92" r="5" fill="#800080" />
  <circle cx="46" cy="64" r="4" fill="#800080" />
  <circle cx="173" cy="64" r="4" fill="#800080" />
  <circle cx="193" cy="64" r="4" fill="#800080" />
  <circle cx="12" cy="63" r="3" fill="#800080" />
  <circle cx="25" cy="102" r="3" fill="#800080" />
  <circle cx="37" cy="99" r="3" fill="#800080" />
  <circle cx="58" cy="160" r="3" fill="#800080" />
  <circle cx="100" cy="62" r="3" fill="#800080" />
  <circle cx="114" cy="97" r="3" fill="#800080" />
  <circle cx="120" cy="153" r="3" fill="#800080" />
  <circle cx="132" cy="150" r="3" fill="#800080" />
  <circle cx="170" cy="108" r="3" fill="#800080" />
</svg>
