<?xml version="1.0"?>
<svg width="160" height="256">
  <circle cx="23" cy="111" r="10" fill="#800080" />
  <circle cx="46" cy="182" r="9" fill="#800080" />
  <circle cx="80" cy="118" r="9" fill="#800080" />
  <circle cx="106" cy="183" r="9" fill="#800080" />
  <circle cx="27" cy="129" r="8" fill="#800080" />
  <circle cx="32" cy="145" r="8" fill="#800080" />
  <circle cx="38" cy="162" r="8" fill="#800080" />
  <circle cx="88" cy="135" r="8" fill="#800080" />
  <circle cx="95" cy="155" r="8" fill="#800080" />
  <circle cx="98" cy="169" r="6" fill="#800080" />
  <circle cx="141" cy="107" r="6" fill="#800080" />
  <circle cx="47" cy="196" r="5" fill="#800080" />
  <circle cx="59" cy="164" r="4" fill="#800080" />
  <circle cx="70" cy="132" r="4" fill="#800080" />
  <circle cx="79" cy="105" r="4" fill="#800080" />
  <circle cx="105" cy="196" r="4" fill="#800080" />
  <circle cx="117" cy="172" r="4" fill="#800080" />
  <circle cx="120" cy="163" r="4" fill="#800080" />
  <circle cx="123" cy="155" r="4" fill="#800080" />
  <circle cx="126" cy="146" r="4" fill="#800080" />
  <circle cx="129" cy="137" r="4" fill="#800080" />
  <circle cx="132" cy="129" r="4" fill="#800080" />
  <circle cx="135" cy="120" r="4" fill="#800080" />
</svg>
