<?xml version="1.0"?>
<svg width="160" height="256">
  <circle cx="23" cy="112" r="11" fill="#800080" />
  <circle cx="81" cy="120" r="10" fill="#800080" />
  <circle cx="46" cy="182" r="10" fill="#800080" />
  <circle cx="106" cy="183" r="10" fill="#800080" />
  <circle cx="28" cy="132" r="9" fill="#800080" />
  <circle cx="34" cy="150" r="9" fill="#800080" />
  <circle cx="89" cy="138" r="8" fill="#800080" />
  <circle cx="94" cy="153" r="8" fill="#800080" />
  <circle cx="38" cy="166" r="7" fill="#800080" />
  <circle cx="98" cy="167" r="7" fill="#800080" />
  <circle cx="141" cy="107" r="7" fill="#800080" />
  <circle cx="128" cy="141" r="5" fill="#800080" />
  <circle cx="46" cy="196" r="5" fill="#800080" />
  <circle cx="59" cy="164" r="5" fill="#800080" />
  <circle cx="70" cy="132" r="5" fill="#800080" />
  <circle cx="79" cy="105" r="5" fill="#800080" />
  <circle cx="106" cy="197" r="5" fill="#800080" />
  <circle cx="117" cy="172" r="5" fill="#800080" />
  <circle cx="120" cy="163" r="5" fill="#800080" />
  <circle cx="124" cy="152" r="5" fill="#800080" />
  <circle cx="131" cy="132" r="5" fill="#800080" />
  <circle cx="134" cy="123" r="5" fill="#800080" />
  <circle cx="62" cy="155" r="4" fill="#800080" />
  <circle cx="4" cy="104" r="4" fill="#800080" />
  <circle cx="36" cy="104" r="4" fill="#800080" />
  <circle cx="56" cy="172" r="4" fill="#800080" />
  <circle cx="64" cy="147" r="4" fill="#800080" />
  <circle cx="67" cy="140" r="4" fill="#800080" />
  <circle cx="128" cy="104" r="4" fill="#800080" />
  <circle cx="151" cy="104" r="4" fill="#800080" />
</svg>
