<?xml version="1.0"?>
<svg width="199" height="256">
  <circle cx="102" cy="88" r="11" fill="#800080" />
  <circle cx="23" cy="71" r="10" fill="#800080" />
  <circle cx="58" cy="176" r="10" fill="#800080" />
  <circle cx="137" cy="179" r="10" fill="#800080" />
  <circle cx="27" cy="89" r="8" fill="#800080" />
  <circle cx="32" cy="105" r="8" fill="#800080" />
  <circle cx="38" cy="121" r="8" fill="#800080" />
  <circle cx="43" cy="137" r="8" fill="#800080" />
  <circle cx="49" cy="153" r="8" fill="#800080" />
  <circle cx="110" cy="106" r="8" fill="#800080" />
  <circle cx="115" cy="122" r="8" fill="#800080" />
  <circle cx="121" cy="138" r="8" fill="#800080" />
  <circle cx="127" cy="154" r="8" fill="#800080" />
  <circle cx="183" cy="68" r="7" fill="#800080" />
  <circle cx="59" cy="192" r="6" fill="#800080" />
  <circle cx="102" cy="71" r="6" fill="#800080" />
  <circle cx="137" cy="194" r="5" fill="#800080" />
  <circle cx="170" cy="101" r="5" fill="#800080" />
  <circle cx="174" cy="89" r="5" fill="#800080" />
  <circle cx="4" cy="65" r="4" fill="#800080" />
  <circle cx="37" cy="65" r="4" fill="#800080" />
  <circle cx="48" cy="165" r="4" fill="#800080" />
  <circle cx="69" cy="165" r="4" fill="#800080" />
  <circle cx="72" cy="155" r="4" fill="#800080" />
  <circle cx="75" cy="146" r="4" fill="#800080" />
  <circle cx="78" cy="137" r="4" fill="#800080" />
  <circle cx="81" cy="127" r="4" fill="#800080" />
  <circle cx="84" cy="118" r="4" fill="#800080" />
  <circle cx="87" cy="109" r="4" fill="#800080" />
  <circle cx="90" cy="100" r="4" fill="#800080" />
  <circle cx="126" cy="166" r="4" fill="#800080" />
  <circle cx="134" cy="165" r="4" fill="#800080" />
  <circle cx="147" cy="168" r="4" fill="#800080" />
  <circle cx="150" cy="159" r="4" fill="#800080" />
  <circle cx="153" cy="150" r="4" fill="#800080" />
  <circle cx="156" cy="141" r="4" fill="#800080" />
  <circle cx="159" cy="132" r="4" fill="#800080" />
  <circle cx="162" cy="123" r="4" fill="#800080" />
  <circle cx="165" cy="65" r="4" fill="#800080" />
  <circle cx="165" cy="114" r="4" fill="#800080" />
  <circle cx="176" cy="80" r="4" fill="#800080" />
</svg>
