<?xml version="1.0"?>
<svg width="129" height="256">
  <circle cx="104" cy="189" r="11" fill="#800080" />
  <circle cx="25" cy="71" r="11" fill="#800080" />
  <circle cx="64" cy="134" r="9" fill="#800080" />
  <circle cx="35" cy="91" r="8" fill="#800080" />
  <circle cx="44" cy="104" r="8" fill="#800080" />
  <circle cx="53" cy="117" r="8" fill="#800080" />
  <circle cx="75" cy="147" r="8" fill="#800080" />
  <circle cx="85" cy="160" r="8" fill="#800080" />
  <circle cx="94" cy="173" r="7" fill="#800080" />
  <circle cx="17" cy="194" r="7" fill="#800080" />
  <circle cx="106" cy="67" r="7" fill="#800080" />
  <circle cx="25" cy="184" r="5" fill="#800080" />
  <circle cx="5" cy="65" r="5" fill="#800080" />
  <circle cx="29" cy="196" r="5" fill="#800080" />
  <circle cx="30" cy="176" r="5" fill="#800080" />
  <circle cx="36" cy="167" r="5" fill="#800080" />
  <circle cx="42" cy="159" r="5" fill="#800080" />
  <circle cx="48" cy="150" r="5" fill="#800080" />
  <circle cx="54" cy="143" r="5" fill="#800080" />
  <circle cx="68" cy="121" r="5" fill="#800080" />
  <circle cx="74" cy="113" r="5" fill="#800080" />
  <circle cx="80" cy="104" r="5" fill="#800080" />
  <circle cx="86" cy="96" r="5" fill="#800080" />
  <circle cx="89" cy="65" r="5" fill="#800080" />
  <circle cx="91" cy="88" r="5" fill="#800080" />
  <circle cx="97" cy="80" r="5" fill="#800080" />
  <circle cx="117" cy="65" r="5" fill="#800080" />
  <circle cx="118" cy="196" r="5" fill="#800080" />
  <circle cx="91" cy="196" r="4" fill="#800080" />
  <circle cx="5" cy="196" r="4" fill="#800080" />
  <circle cx="25" cy="85" r="4" fill="#800080" />
  <circle cx="37" cy="195" r="4" fill="#800080" />
  <circle cx="38" cy="64" r="4" fill="#800080" />
  <circle cx="45" cy="64" r="4" fill="#800080" />
  <circle cx="13" cy="64" r="3" fill="#800080" />
  <circle cx="35" cy="81" r="3" fill="#800080" />
  <circle cx="51" cy="63" r="3" fill="#800080" />
  <circle cx="54" cy="127" r="3" fill="#800080" />
  <circle cx="84" cy="196" r="3" fill="#800080" />
  <circle cx="95" cy="164" r="3" fill="#800080" />
  <circle cx="96" cy="63" r="3" fill="#800080" />
  <circle cx="103" cy="174" r="3" fill="#800080" />
  <circle cx="104" cy="76" r="3" fill="#800080" />
  <circle cx="125" cy="194" r="3" fill="#800080" />
</svg>
