<?xml version="1.0"?>
<svg width="106" height="256">
  <circle cx="25" cy="111" r="10" fill="#800080" />
  <circle cx="81" cy="190" r="10" fill="#800080" />
  <circle cx="52" cy="152" r="9" fill="#800080" />
  <circle cx="36" cy="130" r="8" fill="#800080" />
  <circle cx="63" cy="165" r="8" fill="#800080" />
  <circle cx="18" cy="194" r="7" fill="#800080" />
  <circle cx="71" cy="177" r="6" fill="#800080" />
  <circle cx="84" cy="106" r="6" fill="#800080" />
  <circle cx="42" cy="142" r="5" fill="#800080" />
  <circle cx="24" cy="184" r="5" fill="#800080" />
  <circle cx="30" cy="176" r="5" fill="#800080" />
  <circle cx="36" cy="168" r="5" fill="#800080" />
  <circle cx="42" cy="161" r="5" fill="#800080" />
  <circle cx="59" cy="139" r="5" fill="#800080" />
  <circle cx="65" cy="132" r="5" fill="#800080" />
  <circle cx="74" cy="121" r="5" fill="#800080" />
  <circle cx="34" cy="196" r="4" fill="#800080" />
  <circle cx="7" cy="104" r="4" fill="#800080" />
  <circle cx="7" cy="197" r="4" fill="#800080" />
  <circle cx="26" cy="124" r="4" fill="#800080" />
  <circle cx="37" cy="104" r="4" fill="#800080" />
  <circle cx="68" cy="197" r="4" fill="#800080" />
  <circle cx="69" cy="104" r="4" fill="#800080" />
  <circle cx="80" cy="115" r="4" fill="#800080" />
  <circle cx="93" cy="104" r="4" fill="#800080" />
  <circle cx="93" cy="197" r="4" fill="#800080" />
  <circle cx="100" cy="196" r="4" fill="#800080" />
  <circle cx="14" cy="104" r="3" fill="#800080" />
  <circle cx="27" cy="195" r="3" fill="#800080" />
  <circle cx="35" cy="119" r="3" fill="#800080" />
  <circle cx="43" cy="103" r="3" fill="#800080" />
  <circle cx="46" cy="135" r="3" fill="#800080" />
  <circle cx="49" cy="140" r="3" fill="#800080" />
  <circle cx="73" cy="169" r="3" fill="#800080" />
  <circle cx="75" cy="103" r="3" fill="#800080" />
  <circle cx="79" cy="176" r="3" fill="#800080" />
</svg>
