<?xml version="1.0"?>
<svg width="129" height="256">
  <circle cx="25" cy="71" r="10" fill="#800080" />
  <circle cx="103" cy="187" r="10" fill="#800080" />
  <circle cx="33" cy="88" r="8" fill="#800080" />
  <circle cx="58" cy="123" r="8" fill="#800080" />
  <circle cx="67" cy="137" r="8" fill="#800080" />
  <circle cx="78" cy="151" r="8" fill="#800080" />
  <circle cx="88" cy="164" r="8" fill="#800080" />
  <circle cx="42" cy="101" r="7" fill="#800080" />
  <circle cx="107" cy="68" r="7" fill="#800080" />
  <circle cx="17" cy="194" r="6" fill="#800080" />
  <circle cx="24" cy="185" r="5" fill="#800080" />
  <circle cx="30" cy="177" r="5" fill="#800080" />
  <circle cx="37" cy="167" r="5" fill="#800080" />
  <circle cx="47" cy="113" r="5" fill="#800080" />
  <circle cx="92" cy="88" r="5" fill="#800080" />
  <circle cx="98" cy="80" r="5" fill="#800080" />
  <circle cx="116" cy="195" r="5" fill="#800080" />
  <circle cx="5" cy="65" r="4" fill="#800080" />
  <circle cx="29" cy="196" r="4" fill="#800080" />
  <circle cx="37" cy="196" r="4" fill="#800080" />
  <circle cx="42" cy="159" r="4" fill="#800080" />
  <circle cx="47" cy="152" r="4" fill="#800080" />
  <circle cx="52" cy="145" r="4" fill="#800080" />
  <circle cx="70" cy="119" r="4" fill="#800080" />
  <circle cx="75" cy="111" r="4" fill="#800080" />
  <circle cx="80" cy="104" r="4" fill="#800080" />
  <circle cx="85" cy="97" r="4" fill="#800080" />
  <circle cx="89" cy="65" r="4" fill="#800080" />
  <circle cx="93" cy="176" r="4" fill="#800080" />
</svg>
