<?xml version="1.0"?>
<svg width="105" height="256">
  <circle cx="21" cy="111" r="10" fill="#800080" />
  <circle cx="54" cy="186" r="9" fill="#800080" />
  <circle cx="17" cy="242" r="8" fill="#800080" />
  <circle cx="27" cy="129" r="8" fill="#800080" />
  <circle cx="34" cy="144" r="8" fill="#800080" />
  <circle cx="41" cy="159" r="8" fill="#800080" />
  <circle cx="45" cy="173" r="6" fill="#800080" />
  <circle cx="91" cy="107" r="6" fill="#800080" />
  <circle cx="56" cy="200" r="5" fill="#800080" />
  <circle cx="27" cy="250" r="4" fill="#800080" />
  <circle cx="35" cy="246" r="4" fill="#800080" />
  <circle cx="41" cy="239" r="4" fill="#800080" />
  <circle cx="45" cy="231" r="4" fill="#800080" />
  <circle cx="49" cy="221" r="4" fill="#800080" />
  <circle cx="52" cy="213" r="4" fill="#800080" />
  <circle cx="65" cy="177" r="4" fill="#800080" />
  <circle cx="68" cy="169" r="4" fill="#800080" />
  <circle cx="71" cy="160" r="4" fill="#800080" />
  <circle cx="74" cy="151" r="4" fill="#800080" />
  <circle cx="77" cy="142" r="4" fill="#800080" />
  <circle cx="80" cy="133" r="4" fill="#800080" />
  <circle cx="83" cy="125" r="4" fill="#800080" />
  <circle cx="86" cy="117" r="4" fill="#800080" />
</svg>
