<?xml version="1.0"?>
<svg width="122" height="256">
  <circle cx="102" cy="191" r="9" fill="#800080" />
  <circle cx="17" cy="192" r="8" fill="#800080" />
  <circle cx="20" cy="69" r="8" fill="#800080" />
  <circle cx="27" cy="178" r="8" fill="#800080" />
  <circle cx="37" cy="164" r="8" fill="#800080" />
  <circle cx="47" cy="149" r="8" fill="#800080" />
  <circle cx="57" cy="135" r="8" fill="#800080" />
  <circle cx="66" cy="121" r="8" fill="#800080" />
  <circle cx="75" cy="107" r="8" fill="#800080" />
  <circle cx="84" cy="93" r="8" fill="#800080" />
  <circle cx="93" cy="79" r="8" fill="#800080" />
  <circle cx="101" cy="67" r="6" fill="#800080" />
  <circle cx="87" cy="195" r="5" fill="#800080" />
  <circle cx="15" cy="81" r="4" fill="#800080" />
  <circle cx="32" cy="65" r="4" fill="#800080" />
  <circle cx="40" cy="65" r="4" fill="#800080" />
  <circle cx="48" cy="65" r="4" fill="#800080" />
  <circle cx="64" cy="196" r="4" fill="#800080" />
  <circle cx="72" cy="196" r="4" fill="#800080" />
  <circle cx="106" cy="177" r="4" fill="#800080" />
</svg>
