<?xml version="1.0"?>
<svg width="102" height="256">
  <circle cx="18" cy="192" r="8" fill="#800080" />
  <circle cx="27" cy="179" r="8" fill="#800080" />
  <circle cx="37" cy="166" r="8" fill="#800080" />
  <circle cx="48" cy="152" r="8" fill="#800080" />
  <circle cx="79" cy="108" r="8" fill="#800080" />
  <circle cx="83" cy="193" r="8" fill="#800080" />
  <circle cx="20" cy="108" r="7" fill="#800080" />
  <circle cx="57" cy="139" r="7" fill="#800080" />
  <circle cx="65" cy="128" r="7" fill="#800080" />
  <circle cx="74" cy="120" r="5" fill="#800080" />
  <circle cx="15" cy="124" r="5" fill="#800080" />
  <circle cx="30" cy="196" r="5" fill="#800080" />
  <circle cx="31" cy="105" r="5" fill="#800080" />
  <circle cx="68" cy="196" r="5" fill="#800080" />
  <circle cx="87" cy="181" r="5" fill="#800080" />
  <circle cx="14" cy="132" r="4" fill="#800080" />
  <circle cx="38" cy="196" r="4" fill="#800080" />
  <circle cx="39" cy="104" r="4" fill="#800080" />
  <circle cx="45" cy="196" r="4" fill="#800080" />
  <circle cx="46" cy="104" r="4" fill="#800080" />
  <circle cx="52" cy="196" r="4" fill="#800080" />
  <circle cx="53" cy="104" r="4" fill="#800080" />
  <circle cx="59" cy="196" r="4" fill="#800080" />
  <circle cx="60" cy="104" r="4" fill="#800080" />
  <circle cx="67" cy="104" r="4" fill="#800080" />
  <circle cx="89" cy="169" r="4" fill="#800080" />
</svg>
