<?xml version="1.0"?>
<svg width="122" height="256">
  <circle cx="102" cy="191" r="9" fill="#800080" />
  <circle cx="18" cy="192" r="9" fill="#800080" />
  <circle cx="29" cy="176" r="9" fill="#800080" />
  <circle cx="99" cy="69" r="9" fill="#800080" />
  <circle cx="40" cy="160" r="8" fill="#800080" />
  <circle cx="18" cy="71" r="8" fill="#800080" />
  <circle cx="49" cy="146" r="8" fill="#800080" />
  <circle cx="58" cy="132" r="8" fill="#800080" />
  <circle cx="67" cy="119" r="8" fill="#800080" />
  <circle cx="76" cy="105" r="8" fill="#800080" />
  <circle cx="85" cy="90" r="8" fill="#800080" />
  <circle cx="88" cy="195" r="6" fill="#800080" />
  <circle cx="30" cy="66" r="5" fill="#800080" />
  <circle cx="15" cy="83" r="5" fill="#800080" />
  <circle cx="39" cy="65" r="5" fill="#800080" />
  <circle cx="48" cy="65" r="5" fill="#800080" />
  <circle cx="64" cy="196" r="5" fill="#800080" />
  <circle cx="73" cy="196" r="5" fill="#800080" />
  <circle cx="89" cy="78" r="5" fill="#800080" />
  <circle cx="106" cy="177" r="5" fill="#800080" />
  <circle cx="97" cy="82" r="4" fill="#800080" />
  <circle cx="14" cy="91" r="4" fill="#800080" />
  <circle cx="14" cy="98" r="4" fill="#800080" />
  <circle cx="30" cy="196" r="4" fill="#800080" />
  <circle cx="37" cy="196" r="4" fill="#800080" />
  <circle cx="44" cy="196" r="4" fill="#800080" />
  <circle cx="51" cy="196" r="4" fill="#800080" />
  <circle cx="56" cy="64" r="4" fill="#800080" />
  <circle cx="63" cy="64" r="4" fill="#800080" />
  <circle cx="70" cy="64" r="4" fill="#800080" />
  <circle cx="77" cy="64" r="4" fill="#800080" />
  <circle cx="84" cy="64" r="4" fill="#800080" />
  <circle cx="108" cy="163" r="4" fill="#800080" />
  <circle cx="30" cy="164" r="3" fill="#800080" />
  <circle cx="18" cy="181" r="3" fill="#800080" />
  <circle cx="40" cy="170" r="3" fill="#800080" />
  <circle cx="50" cy="156" r="3" fill="#800080" />
  <circle cx="57" cy="195" r="3" fill="#800080" />
  <circle cx="59" cy="142" r="3" fill="#800080" />
  <circle cx="77" cy="115" r="3" fill="#800080" />
  <circle cx="80" cy="194" r="3" fill="#800080" />
  <circle cx="86" cy="100" r="3" fill="#800080" />
  <circle cx="106" cy="170" r="3" fill="#800080" />
</svg>
