<?xml version="1.0"?>
<svg width="127" height="256">
  <circle cx="19" cy="111" r="11" fill="#800080" />
  <circle cx="19" cy="132" r="11" fill="#800080" />
  <circle cx="106" cy="101" r="11" fill="#800080" />
  <circle cx="106" cy="151" r="11" fill="#800080" />
  <circle cx="107" cy="122" r="11" fill="#800080" />
  <circle cx="21" cy="157" r="10" fill="#800080" />
  <circle cx="22" cy="89" r="10" fill="#800080" />
  <circle cx="27" cy="177" r="10" fill="#800080" />
  <circle cx="31" cy="70" r="10" fill="#800080" />
  <circle cx="93" cy="187" r="10" fill="#800080" />
  <circle cx="95" cy="70" r="10" fill="#800080" />
  <circle cx="39" cy="193" r="9" fill="#800080" />
  <circle cx="46" cy="58" r="9" fill="#800080" />
  <circle cx="56" cy="200" r="9" fill="#800080" />
  <circle cx="63" cy="55" r="9" fill="#800080" />
  <circle cx="74" cy="199" r="9" fill="#800080" />
  <circle cx="80" cy="58" r="9" fill="#800080" />
  <circle cx="102" cy="170" r="9" fill="#800080" />
  <circle cx="104" cy="84" r="7" fill="#800080" />
  <circle cx="113" cy="137" r="5" fill="#800080" />
  <circle cx="101" cy="136" r="4" fill="#800080" />
  <circle cx="12" cy="145" r="4" fill="#800080" />
  <circle cx="86" cy="199" r="4" fill="#800080" />
  <circle cx="27" cy="190" r="3" fill="#800080" />
  <circle cx="16" cy="169" r="3" fill="#800080" />
  <circle cx="18" cy="145" r="3" fill="#800080" />
  <circle cx="19" cy="77" r="3" fill="#800080" />
  <circle cx="23" cy="145" r="3" fill="#800080" />
  <circle cx="33" cy="58" r="3" fill="#800080" />
  <circle cx="33" cy="82" r="3" fill="#800080" />
  <circle cx="91" cy="56" r="3" fill="#800080" />
  <circle cx="94" cy="82" r="3" fill="#800080" />
  <circle cx="95" cy="87" r="3" fill="#800080" />
  <circle cx="105" cy="181" r="3" fill="#800080" />
</svg>
