<?xml version="1.0"?>
<svg width="127" height="256">
  <circle cx="65" cy="61" r="12" fill="#800080" />
  <circle cx="66" cy="195" r="12" fill="#800080" />
  <circle cx="67" cy="83" r="11" fill="#800080" />
  <circle cx="67" cy="104" r="11" fill="#800080" />
  <circle cx="67" cy="125" r="11" fill="#800080" />
  <circle cx="67" cy="146" r="11" fill="#800080" />
  <circle cx="67" cy="167" r="11" fill="#800080" />
  <circle cx="25" cy="197" r="9" fill="#800080" />
  <circle cx="42" cy="197" r="9" fill="#800080" />
  <circle cx="86" cy="197" r="9" fill="#800080" />
  <circle cx="103" cy="197" r="9" fill="#800080" />
  <circle cx="30" cy="78" r="8" fill="#800080" />
  <circle cx="43" cy="69" r="8" fill="#800080" />
  <circle cx="73" cy="181" r="4" fill="#800080" />
  <circle cx="50" cy="59" r="4" fill="#800080" />
  <circle cx="60" cy="180" r="4" fill="#800080" />
  <circle cx="25" cy="88" r="3" fill="#800080" />
  <circle cx="52" cy="204" r="3" fill="#800080" />
  <circle cx="66" cy="180" r="3" fill="#800080" />
  <circle cx="113" cy="204" r="3" fill="#800080" />
  <circle cx="114" cy="191" r="3" fill="#800080" />
  <circle cx="114" cy="196" r="3" fill="#800080" />
</svg>
