<?xml version="1.0"?>
<svg width="127" height="256">
  <circle cx="24" cy="194" r="12" fill="#800080" />
  <circle cx="99" cy="73" r="11" fill="#800080" />
  <circle cx="102" cy="94" r="11" fill="#800080" />
  <circle cx="25" cy="78" r="10" fill="#800080" />
  <circle cx="38" cy="62" r="9" fill="#800080" />
  <circle cx="32" cy="174" r="9" fill="#800080" />
  <circle cx="44" cy="161" r="9" fill="#800080" />
  <circle cx="44" cy="197" r="9" fill="#800080" />
  <circle cx="56" cy="55" r="9" fill="#800080" />
  <circle cx="58" cy="149" r="9" fill="#800080" />
  <circle cx="61" cy="197" r="9" fill="#800080" />
  <circle cx="72" cy="137" r="9" fill="#800080" />
  <circle cx="74" cy="56" r="9" fill="#800080" />
  <circle cx="78" cy="197" r="9" fill="#800080" />
  <circle cx="85" cy="125" r="9" fill="#800080" />
  <circle cx="95" cy="197" r="9" fill="#800080" />
  <circle cx="97" cy="113" r="8" fill="#800080" />
  <circle cx="89" cy="58" r="7" fill="#800080" />
  <circle cx="109" cy="194" r="6" fill="#800080" />
  <circle cx="25" cy="65" r="4" fill="#800080" />
  <circle cx="107" cy="203" r="4" fill="#800080" />
  <circle cx="82" cy="65" r="3" fill="#800080" />
  <circle cx="13" cy="204" r="3" fill="#800080" />
  <circle cx="15" cy="86" r="3" fill="#800080" />
  <circle cx="20" cy="180" r="3" fill="#800080" />
  <circle cx="45" cy="51" r="3" fill="#800080" />
  <circle cx="47" cy="150" r="3" fill="#800080" />
  <circle cx="86" cy="114" r="3" fill="#800080" />
  <circle cx="98" cy="59" r="3" fill="#800080" />
  <circle cx="106" cy="107" r="3" fill="#800080" />
  <circle cx="110" cy="82" r="3" fill="#800080" />
  <circle cx="113" cy="202" r="3" fill="#800080" />
</svg>
