<?xml version="1.0"?>
<svg width="127" height="256">
  <circle cx="84" cy="63" r="14" fill="#800080" />
  <circle cx="88" cy="163" r="13" fill="#800080" />
  <circle cx="15" cy="159" r="11" fill="#800080" />
  <circle cx="88" cy="86" r="10" fill="#800080" />
  <circle cx="88" cy="105" r="10" fill="#800080" />
  <circle cx="88" cy="124" r="10" fill="#800080" />
  <circle cx="88" cy="185" r="10" fill="#800080" />
  <circle cx="34" cy="163" r="9" fill="#800080" />
  <circle cx="51" cy="163" r="9" fill="#800080" />
  <circle cx="87" cy="142" r="9" fill="#800080" />
  <circle cx="109" cy="163" r="9" fill="#800080" />
  <circle cx="24" cy="141" r="8" fill="#800080" />
  <circle cx="33" cy="127" r="8" fill="#800080" />
  <circle cx="42" cy="113" r="8" fill="#800080" />
  <circle cx="51" cy="100" r="8" fill="#800080" />
  <circle cx="60" cy="87" r="8" fill="#800080" />
  <circle cx="67" cy="162" r="8" fill="#800080" />
  <circle cx="67" cy="74" r="6" fill="#800080" />
  <circle cx="84" cy="200" r="6" fill="#800080" />
  <circle cx="94" cy="199" r="5" fill="#800080" />
  <circle cx="70" cy="83" r="3" fill="#800080" />
  <circle cx="14" cy="146" r="3" fill="#800080" />
  <circle cx="43" cy="123" r="3" fill="#800080" />
  <circle cx="68" cy="66" r="3" fill="#800080" />
  <circle cx="96" cy="51" r="3" fill="#800080" />
  <circle cx="96" cy="75" r="3" fill="#800080" />
  <circle cx="96" cy="134" r="3" fill="#800080" />
</svg>
