<?xml version="1.0"?>
<svg width="127" height="256">
  <circle cx="26" cy="122" r="12" fill="#800080" />
  <circle cx="29" cy="60" r="11" fill="#800080" />
  <circle cx="101" cy="133" r="11" fill="#800080" />
  <circle cx="104" cy="173" r="11" fill="#800080" />
  <circle cx="23" cy="181" r="10" fill="#800080" />
  <circle cx="25" cy="86" r="10" fill="#800080" />
  <circle cx="84" cy="118" r="10" fill="#800080" />
  <circle cx="105" cy="153" r="10" fill="#800080" />
  <circle cx="90" cy="192" r="9" fill="#800080" />
  <circle cx="36" cy="195" r="9" fill="#800080" />
  <circle cx="48" cy="57" r="9" fill="#800080" />
  <circle cx="53" cy="200" r="9" fill="#800080" />
  <circle cx="62" cy="114" r="9" fill="#800080" />
  <circle cx="65" cy="57" r="9" fill="#800080" />
  <circle cx="70" cy="200" r="9" fill="#800080" />
  <circle cx="82" cy="57" r="9" fill="#800080" />
  <circle cx="99" cy="57" r="9" fill="#800080" />
  <circle cx="22" cy="103" r="8" fill="#800080" />
  <circle cx="45" cy="118" r="8" fill="#800080" />
  <circle cx="103" cy="188" r="4" fill="#800080" />
  <circle cx="20" cy="72" r="4" fill="#800080" />
  <circle cx="32" cy="74" r="4" fill="#800080" />
  <circle cx="82" cy="202" r="4" fill="#800080" />
  <circle cx="97" cy="119" r="4" fill="#800080" />
  <circle cx="24" cy="194" r="3" fill="#800080" />
  <circle cx="12" cy="173" r="3" fill="#800080" />
  <circle cx="15" cy="132" r="3" fill="#800080" />
  <circle cx="26" cy="73" r="3" fill="#800080" />
  <circle cx="32" cy="97" r="3" fill="#800080" />
  <circle cx="32" cy="102" r="3" fill="#800080" />
  <circle cx="32" cy="107" r="3" fill="#800080" />
  <circle cx="72" cy="121" r="3" fill="#800080" />
  <circle cx="73" cy="109" r="3" fill="#800080" />
  <circle cx="79" cy="191" r="3" fill="#800080" />
  <circle cx="92" cy="180" r="3" fill="#800080" />
  <circle cx="112" cy="142" r="3" fill="#800080" />
  <circle cx="114" cy="163" r="3" fill="#800080" />
</svg>
