<?xml version="1.0"?>
<svg width="127" height="256">
  <circle cx="24" cy="133" r="13" fill="#800080" />
  <circle cx="24" cy="160" r="11" fill="#800080" />
  <circle cx="105" cy="142" r="11" fill="#800080" />
  <circle cx="106" cy="163" r="11" fill="#800080" />
  <circle cx="95" cy="123" r="10" fill="#800080" />
  <circle cx="22" cy="106" r="10" fill="#800080" />
  <circle cx="27" cy="87" r="10" fill="#800080" />
  <circle cx="31" cy="181" r="10" fill="#800080" />
  <circle cx="93" cy="191" r="10" fill="#800080" />
  <circle cx="96" cy="67" r="10" fill="#800080" />
  <circle cx="37" cy="69" r="9" fill="#800080" />
  <circle cx="44" cy="195" r="9" fill="#800080" />
  <circle cx="51" cy="58" r="9" fill="#800080" />
  <circle cx="61" cy="200" r="9" fill="#800080" />
  <circle cx="68" cy="55" r="9" fill="#800080" />
  <circle cx="73" cy="113" r="9" fill="#800080" />
  <circle cx="55" cy="114" r="8" fill="#800080" />
  <circle cx="77" cy="199" r="8" fill="#800080" />
  <circle cx="83" cy="55" r="7" fill="#800080" />
  <circle cx="40" cy="122" r="6" fill="#800080" />
  <circle cx="104" cy="179" r="6" fill="#800080" />
  <circle cx="86" cy="111" r="4" fill="#800080" />
  <circle cx="15" cy="118" r="4" fill="#800080" />
  <circle cx="15" cy="147" r="4" fill="#800080" />
  <circle cx="95" cy="178" r="4" fill="#800080" />
  <circle cx="107" cy="75" r="4" fill="#800080" />
  <circle cx="82" cy="121" r="3" fill="#800080" />
  <circle cx="20" cy="173" r="3" fill="#800080" />
  <circle cx="21" cy="118" r="3" fill="#800080" />
  <circle cx="25" cy="74" r="3" fill="#800080" />
  <circle cx="26" cy="118" r="3" fill="#800080" />
  <circle cx="31" cy="147" r="3" fill="#800080" />
  <circle cx="32" cy="193" r="3" fill="#800080" />
  <circle cx="39" cy="58" r="3" fill="#800080" />
  <circle cx="45" cy="114" r="3" fill="#800080" />
  <circle cx="82" cy="64" r="3" fill="#800080" />
  <circle cx="92" cy="55" r="3" fill="#800080" />
  <circle cx="95" cy="79" r="3" fill="#800080" />
  <circle cx="100" cy="79" r="3" fill="#800080" />
  <circle cx="105" cy="187" r="3" fill="#800080" />
  <circle cx="107" cy="126" r="3" fill="#800080" />
  <circle cx="115" cy="152" r="3" fill="#800080" />
</svg>
