<?xml version="1.0"?>
<svg width="127" height="256">
  <circle cx="21" cy="173" r="11" fill="#800080" />
  <circle cx="23" cy="88" r="11" fill="#800080" />
  <circle cx="101" cy="77" r="11" fill="#800080" />
  <circle cx="104" cy="178" r="11" fill="#800080" />
  <circle cx="106" cy="155" r="11" fill="#800080" />
  <circle cx="21" cy="152" r="10" fill="#800080" />
  <circle cx="48" cy="123" r="10" fill="#800080" />
  <circle cx="79" cy="123" r="10" fill="#800080" />
  <circle cx="99" cy="104" r="10" fill="#800080" />
  <circle cx="29" cy="68" r="9" fill="#800080" />
  <circle cx="29" cy="107" r="9" fill="#800080" />
  <circle cx="30" cy="191" r="9" fill="#800080" />
  <circle cx="88" cy="60" r="9" fill="#800080" />
  <circle cx="90" cy="195" r="9" fill="#800080" />
  <circle cx="97" cy="137" r="8" fill="#800080" />
  <circle cx="30" cy="136" r="8" fill="#800080" />
  <circle cx="43" cy="57" r="8" fill="#800080" />
  <circle cx="45" cy="199" r="8" fill="#800080" />
  <circle cx="58" cy="54" r="8" fill="#800080" />
  <circle cx="60" cy="201" r="8" fill="#800080" />
  <circle cx="73" cy="54" r="7" fill="#800080" />
  <circle cx="74" cy="199" r="7" fill="#800080" />
  <circle cx="63" cy="121" r="6" fill="#800080" />
  <circle cx="108" cy="92" r="5" fill="#800080" />
  <circle cx="92" cy="117" r="4" fill="#800080" />
  <circle cx="95" cy="91" r="4" fill="#800080" />
  <circle cx="100" cy="63" r="4" fill="#800080" />
  <circle cx="102" cy="192" r="4" fill="#800080" />
  <circle cx="35" cy="118" r="3" fill="#800080" />
  <circle cx="12" cy="162" r="3" fill="#800080" />
  <circle cx="18" cy="73" r="3" fill="#800080" />
  <circle cx="18" cy="101" r="3" fill="#800080" />
  <circle cx="18" cy="186" r="3" fill="#800080" />
  <circle cx="19" cy="140" r="3" fill="#800080" />
  <circle cx="32" cy="57" r="3" fill="#800080" />
  <circle cx="40" cy="111" r="3" fill="#800080" />
  <circle cx="40" cy="133" r="3" fill="#800080" />
  <circle cx="60" cy="129" r="3" fill="#800080" />
  <circle cx="65" cy="129" r="3" fill="#800080" />
  <circle cx="86" cy="112" r="3" fill="#800080" />
  <circle cx="86" cy="134" r="3" fill="#800080" />
  <circle cx="91" cy="128" r="3" fill="#800080" />
  <circle cx="101" cy="90" r="3" fill="#800080" />
  <circle cx="107" cy="139" r="3" fill="#800080" />
  <circle cx="113" cy="167" r="3" fill="#800080" />
</svg>
