<?xml version="1.0"?>
<svg width="127" height="256">
  <circle cx="103" cy="123" r="13" fill="#800080" />
  <circle cx="22" cy="86" r="11" fill="#800080" />
  <circle cx="21" cy="107" r="11" fill="#800080" />
  <circle cx="104" cy="99" r="11" fill="#800080" />
  <circle cx="28" cy="128" r="10" fill="#800080" />
  <circle cx="27" cy="183" r="10" fill="#800080" />
  <circle cx="31" cy="67" r="10" fill="#800080" />
  <circle cx="92" cy="68" r="10" fill="#800080" />
  <circle cx="94" cy="181" r="10" fill="#800080" />
  <circle cx="102" cy="161" r="10" fill="#800080" />
  <circle cx="43" cy="141" r="9" fill="#800080" />
  <circle cx="40" cy="197" r="9" fill="#800080" />
  <circle cx="47" cy="57" r="9" fill="#800080" />
  <circle cx="57" cy="200" r="9" fill="#800080" />
  <circle cx="64" cy="55" r="9" fill="#800080" />
  <circle cx="74" cy="198" r="9" fill="#800080" />
  <circle cx="66" cy="144" r="8" fill="#800080" />
  <circle cx="103" cy="143" r="8" fill="#800080" />
  <circle cx="80" cy="139" r="7" fill="#800080" />
  <circle cx="79" cy="56" r="7" fill="#800080" />
  <circle cx="101" cy="82" r="7" fill="#800080" />
  <circle cx="87" cy="194" r="5" fill="#800080" />
  <circle cx="88" cy="131" r="4" fill="#800080" />
  <circle cx="31" cy="141" r="4" fill="#800080" />
  <circle cx="53" cy="149" r="4" fill="#800080" />
  <circle cx="55" cy="139" r="4" fill="#800080" />
  <circle cx="113" cy="137" r="4" fill="#800080" />
  <circle cx="17" cy="121" r="3" fill="#800080" />
  <circle cx="19" cy="72" r="3" fill="#800080" />
  <circle cx="26" cy="195" r="3" fill="#800080" />
  <circle cx="36" cy="55" r="3" fill="#800080" />
  <circle cx="78" cy="65" r="3" fill="#800080" />
  <circle cx="81" cy="187" r="3" fill="#800080" />
  <circle cx="88" cy="56" r="3" fill="#800080" />
  <circle cx="89" cy="137" r="3" fill="#800080" />
  <circle cx="92" cy="80" r="3" fill="#800080" />
  <circle cx="92" cy="169" r="3" fill="#800080" />
  <circle cx="104" cy="73" r="3" fill="#800080" />
  <circle cx="104" cy="173" r="3" fill="#800080" />
  <circle cx="111" cy="151" r="3" fill="#800080" />
  <circle cx="113" cy="110" r="3" fill="#800080" />
  <circle cx="113" cy="143" r="3" fill="#800080" />
</svg>
