<?xml version="1.0"?>
<svg width="76" height="256">
  <circle cx="49" cy="118" r="11" fill="#800080" />
  <circle cx="50" cy="169" r="11" fill="#800080" />
  <circle cx="51" cy="139" r="11" fill="#800080" />
  <circle cx="43" cy="94" r="10" fill="#800080" />
  <circle cx="41" cy="206" r="10" fill="#800080" />
  <circle cx="35" cy="76" r="9" fill="#800080" />
  <circle cx="28" cy="231" r="9" fill="#800080" />
  <circle cx="45" cy="188" r="9" fill="#800080" />
  <circle cx="23" cy="56" r="8" fill="#800080" />
  <circle cx="16" cy="247" r="8" fill="#800080" />
  <circle cx="13" cy="46" r="6" fill="#800080" />
  <circle cx="38" cy="221" r="5" fill="#800080" />
  <circle cx="45" cy="154" r="5" fill="#800080" />
  <circle cx="54" cy="154" r="5" fill="#800080" />
  <circle cx="30" cy="217" r="4" fill="#800080" />
  <circle cx="24" cy="67" r="4" fill="#800080" />
  <circle cx="32" cy="64" r="4" fill="#800080" />
  <circle cx="53" cy="104" r="4" fill="#800080" />
  <circle cx="40" cy="107" r="3" fill="#800080" />
  <circle cx="5" cy="42" r="3" fill="#800080" />
  <circle cx="6" cy="252" r="3" fill="#800080" />
  <circle cx="17" cy="237" r="3" fill="#800080" />
  <circle cx="21" cy="45" r="3" fill="#800080" />
  <circle cx="26" cy="242" r="3" fill="#800080" />
  <circle cx="46" cy="82" r="3" fill="#800080" />
  <circle cx="56" cy="182" r="3" fill="#800080" />
</svg>
