<?xml version="1.0"?>
<svg width="63" height="256">
  <circle cx="36" cy="51" r="11" fill="#800080" />
  <circle cx="36" cy="244" r="11" fill="#800080" />
  <circle cx="37" cy="72" r="11" fill="#800080" />
  <circle cx="37" cy="93" r="11" fill="#800080" />
  <circle cx="37" cy="114" r="11" fill="#800080" />
  <circle cx="37" cy="135" r="11" fill="#800080" />
  <circle cx="37" cy="156" r="11" fill="#800080" />
  <circle cx="37" cy="177" r="11" fill="#800080" />
  <circle cx="37" cy="198" r="11" fill="#800080" />
  <circle cx="37" cy="219" r="11" fill="#800080" />
  <circle cx="8" cy="47" r="8" fill="#800080" />
  <circle cx="8" cy="247" r="8" fill="#800080" />
  <circle cx="21" cy="45" r="5" fill="#800080" />
  <circle cx="20" cy="244" r="5" fill="#800080" />
  <circle cx="44" cy="232" r="3" fill="#800080" />
  <circle cx="17" cy="53" r="3" fill="#800080" />
  <circle cx="18" cy="251" r="3" fill="#800080" />
  <circle cx="22" cy="52" r="3" fill="#800080" />
  <circle cx="23" cy="251" r="3" fill="#800080" />
  <circle cx="29" cy="231" r="3" fill="#800080" />
</svg>
