<?xml version="1.0"?>
<svg width="152" height="256">
  <circle cx="116" cy="149" r="12" fill="#800080" />
  <circle cx="35" cy="150" r="12" fill="#800080" />
  <circle cx="15" cy="196" r="10" fill="#800080" />
  <circle cx="22" cy="177" r="10" fill="#800080" />
  <circle cx="42" cy="128" r="10" fill="#800080" />
  <circle cx="50" cy="109" r="10" fill="#800080" />
  <circle cx="58" cy="89" r="10" fill="#800080" />
  <circle cx="70" cy="60" r="10" fill="#800080" />
  <circle cx="91" cy="80" r="10" fill="#800080" />
  <circle cx="99" cy="100" r="10" fill="#800080" />
  <circle cx="106" cy="119" r="10" fill="#800080" />
  <circle cx="126" cy="169" r="10" fill="#800080" />
  <circle cx="133" cy="188" r="10" fill="#800080" />
  <circle cx="55" cy="152" r="9" fill="#800080" />
  <circle cx="72" cy="152" r="9" fill="#800080" />
  <circle cx="89" cy="152" r="9" fill="#800080" />
  <circle cx="87" cy="63" r="7" fill="#800080" />
  <circle cx="61" cy="73" r="6" fill="#800080" />
  <circle cx="115" cy="132" r="6" fill="#800080" />
  <circle cx="142" cy="201" r="6" fill="#800080" />
  <circle cx="23" cy="162" r="5" fill="#800080" />
  <circle cx="32" cy="166" r="5" fill="#800080" />
  <circle cx="82" cy="53" r="4" fill="#800080" />
  <circle cx="70" cy="73" r="4" fill="#800080" />
  <circle cx="101" cy="147" r="4" fill="#800080" />
  <circle cx="101" cy="154" r="4" fill="#800080" />
  <circle cx="105" cy="132" r="4" fill="#800080" />
  <circle cx="132" cy="201" r="4" fill="#800080" />
  <circle cx="68" cy="80" r="3" fill="#800080" />
  <circle cx="4" cy="203" r="3" fill="#800080" />
  <circle cx="26" cy="189" r="3" fill="#800080" />
  <circle cx="31" cy="136" r="3" fill="#800080" />
  <circle cx="46" cy="140" r="3" fill="#800080" />
  <circle cx="47" cy="97" r="3" fill="#800080" />
  <circle cx="53" cy="121" r="3" fill="#800080" />
  <circle cx="60" cy="101" r="3" fill="#800080" />
  <circle cx="80" cy="70" r="3" fill="#800080" />
  <circle cx="88" cy="53" r="3" fill="#800080" />
  <circle cx="88" cy="92" r="3" fill="#800080" />
  <circle cx="101" cy="88" r="3" fill="#800080" />
  <circle cx="106" cy="138" r="3" fill="#800080" />
  <circle cx="129" cy="156" r="3" fill="#800080" />
  <circle cx="137" cy="176" r="3" fill="#800080" />
</svg>
