<?xml version="1.0"?>
<svg width="127" height="256">
  <circle cx="28" cy="112" r="13" fill="#800080" />
  <circle cx="27" cy="177" r="13" fill="#800080" />
  <circle cx="100" cy="108" r="11" fill="#800080" />
  <circle cx="25" cy="50" r="11" fill="#800080" />
  <circle cx="25" cy="71" r="11" fill="#800080" />
  <circle cx="25" cy="135" r="11" fill="#800080" />
  <circle cx="104" cy="172" r="11" fill="#800080" />
  <circle cx="106" cy="129" r="11" fill="#800080" />
  <circle cx="106" cy="150" r="11" fill="#800080" />
  <circle cx="94" cy="192" r="10" fill="#800080" />
  <circle cx="24" cy="155" r="10" fill="#800080" />
  <circle cx="85" cy="94" r="9" fill="#800080" />
  <circle cx="23" cy="90" r="9" fill="#800080" />
  <circle cx="23" cy="198" r="9" fill="#800080" />
  <circle cx="73" cy="201" r="8" fill="#800080" />
  <circle cx="57" cy="93" r="8" fill="#800080" />
  <circle cx="53" cy="198" r="7" fill="#800080" />
  <circle cx="44" cy="101" r="6" fill="#800080" />
  <circle cx="70" cy="88" r="6" fill="#800080" />
  <circle cx="42" cy="189" r="5" fill="#800080" />
  <circle cx="85" cy="203" r="4" fill="#800080" />
  <circle cx="62" cy="204" r="4" fill="#800080" />
  <circle cx="97" cy="94" r="4" fill="#800080" />
  <circle cx="106" cy="186" r="3" fill="#800080" />
  <circle cx="33" cy="83" r="3" fill="#800080" />
  <circle cx="33" cy="97" r="3" fill="#800080" />
  <circle cx="34" cy="163" r="3" fill="#800080" />
  <circle cx="44" cy="196" r="3" fill="#800080" />
  <circle cx="47" cy="93" r="3" fill="#800080" />
  <circle cx="62" cy="196" r="3" fill="#800080" />
  <circle cx="67" cy="96" r="3" fill="#800080" />
  <circle cx="72" cy="96" r="3" fill="#800080" />
  <circle cx="81" cy="193" r="3" fill="#800080" />
  <circle cx="114" cy="162" r="3" fill="#800080" />
</svg>
