<?xml version="1.0"?>
<svg width="165" height="256">
  <circle cx="22" cy="122" r="12" fill="#800080" />
  <circle cx="24" cy="147" r="11" fill="#800080" />
  <circle cx="25" cy="100" r="11" fill="#800080" />
  <circle cx="31" cy="168" r="11" fill="#800080" />
  <circle cx="35" cy="80" r="11" fill="#800080" />
  <circle cx="45" cy="185" r="11" fill="#800080" />
  <circle cx="137" cy="76" r="11" fill="#800080" />
  <circle cx="132" cy="184" r="10" fill="#800080" />
  <circle cx="50" cy="65" r="10" fill="#800080" />
  <circle cx="64" cy="196" r="10" fill="#800080" />
  <circle cx="78" cy="56" r="10" fill="#800080" />
  <circle cx="88" cy="200" r="10" fill="#800080" />
  <circle cx="118" cy="61" r="10" fill="#800080" />
  <circle cx="99" cy="56" r="9" fill="#800080" />
  <circle cx="106" cy="198" r="9" fill="#800080" />
  <circle cx="144" cy="170" r="8" fill="#800080" />
  <circle cx="121" cy="196" r="6" fill="#800080" />
  <circle cx="63" cy="55" r="6" fill="#800080" />
  <circle cx="64" cy="65" r="4" fill="#800080" />
  <circle cx="75" cy="204" r="4" fill="#800080" />
  <circle cx="117" cy="187" r="4" fill="#800080" />
  <circle cx="131" cy="61" r="4" fill="#800080" />
  <circle cx="150" cy="83" r="4" fill="#800080" />
  <circle cx="15" cy="136" r="3" fill="#800080" />
  <circle cx="19" cy="160" r="3" fill="#800080" />
  <circle cx="22" cy="86" r="3" fill="#800080" />
  <circle cx="30" cy="181" r="3" fill="#800080" />
  <circle cx="31" cy="134" r="3" fill="#800080" />
  <circle cx="36" cy="67" r="3" fill="#800080" />
  <circle cx="37" cy="93" r="3" fill="#800080" />
  <circle cx="44" cy="172" r="3" fill="#800080" />
  <circle cx="48" cy="77" r="3" fill="#800080" />
  <circle cx="50" cy="198" r="3" fill="#800080" />
  <circle cx="76" cy="192" r="3" fill="#800080" />
  <circle cx="76" cy="197" r="3" fill="#800080" />
  <circle cx="89" cy="49" r="3" fill="#800080" />
  <circle cx="110" cy="51" r="3" fill="#800080" />
  <circle cx="124" cy="73" r="3" fill="#800080" />
  <circle cx="133" cy="172" r="3" fill="#800080" />
  <circle cx="136" cy="89" r="3" fill="#800080" />
  <circle cx="144" cy="180" r="3" fill="#800080" />
</svg>
