<?xml version="1.0"?>
<svg width="114" height="256">
  <circle cx="21" cy="162" r="11" fill="#800080" />
  <circle cx="20" cy="134" r="11" fill="#800080" />
  <circle cx="95" cy="180" r="10" fill="#800080" />
  <circle cx="25" cy="113" r="10" fill="#800080" />
  <circle cx="27" cy="182" r="10" fill="#800080" />
  <circle cx="89" cy="103" r="10" fill="#800080" />
  <circle cx="41" cy="196" r="9" fill="#800080" />
  <circle cx="37" cy="98" r="9" fill="#800080" />
  <circle cx="79" cy="197" r="9" fill="#800080" />
  <circle cx="61" cy="91" r="8" fill="#800080" />
  <circle cx="57" cy="200" r="8" fill="#800080" />
  <circle cx="76" cy="92" r="7" fill="#800080" />
  <circle cx="100" cy="115" r="6" fill="#800080" />
  <circle cx="48" cy="89" r="5" fill="#800080" />
  <circle cx="13" cy="148" r="5" fill="#800080" />
  <circle cx="90" cy="117" r="5" fill="#800080" />
  <circle cx="92" cy="194" r="5" fill="#800080" />
  <circle cx="26" cy="148" r="4" fill="#800080" />
  <circle cx="49" cy="97" r="4" fill="#800080" />
  <circle cx="68" cy="204" r="4" fill="#800080" />
  <circle cx="29" cy="195" r="3" fill="#800080" />
  <circle cx="15" cy="121" r="3" fill="#800080" />
  <circle cx="16" cy="175" r="3" fill="#800080" />
  <circle cx="20" cy="147" r="3" fill="#800080" />
  <circle cx="25" cy="101" r="3" fill="#800080" />
  <circle cx="67" cy="195" r="3" fill="#800080" />
  <circle cx="83" cy="186" r="3" fill="#800080" />
  <circle cx="85" cy="91" r="3" fill="#800080" />
  <circle cx="105" cy="172" r="3" fill="#800080" />
</svg>
