<?xml version="1.0"?>
<svg width="165" height="256">
  <circle cx="30" cy="61" r="12" fill="#800080" />
  <circle cx="29" cy="84" r="12" fill="#800080" />
  <circle cx="29" cy="107" r="12" fill="#800080" />
  <circle cx="29" cy="130" r="12" fill="#800080" />
  <circle cx="29" cy="153" r="12" fill="#800080" />
  <circle cx="29" cy="176" r="12" fill="#800080" />
  <circle cx="143" cy="120" r="12" fill="#800080" />
  <circle cx="140" cy="151" r="11" fill="#800080" />
  <circle cx="126" cy="77" r="11" fill="#800080" />
  <circle cx="128" cy="175" r="11" fill="#800080" />
  <circle cx="138" cy="96" r="11" fill="#800080" />
  <circle cx="108" cy="191" r="10" fill="#800080" />
  <circle cx="27" cy="197" r="10" fill="#800080" />
  <circle cx="109" cy="65" r="10" fill="#800080" />
  <circle cx="80" cy="58" r="9" fill="#800080" />
  <circle cx="45" cy="197" r="9" fill="#800080" />
  <circle cx="50" cy="57" r="9" fill="#800080" />
  <circle cx="62" cy="197" r="9" fill="#800080" />
  <circle cx="79" cy="197" r="9" fill="#800080" />
  <circle cx="65" cy="55" r="7" fill="#800080" />
  <circle cx="94" cy="199" r="6" fill="#800080" />
  <circle cx="94" cy="56" r="6" fill="#800080" />
  <circle cx="148" cy="137" r="5" fill="#800080" />
  <circle cx="136" cy="135" r="5" fill="#800080" />
  <circle cx="141" cy="166" r="5" fill="#800080" />
  <circle cx="122" cy="189" r="4" fill="#800080" />
  <circle cx="91" cy="65" r="4" fill="#800080" />
  <circle cx="93" cy="190" r="4" fill="#800080" />
  <circle cx="129" cy="161" r="4" fill="#800080" />
  <circle cx="114" cy="179" r="3" fill="#800080" />
  <circle cx="20" cy="72" r="3" fill="#800080" />
  <circle cx="60" cy="64" r="3" fill="#800080" />
  <circle cx="65" cy="64" r="3" fill="#800080" />
  <circle cx="97" cy="64" r="3" fill="#800080" />
  <circle cx="121" cy="64" r="3" fill="#800080" />
  <circle cx="133" cy="109" r="3" fill="#800080" />
  <circle cx="139" cy="81" r="3" fill="#800080" />
  <circle cx="148" cy="106" r="3" fill="#800080" />
</svg>
