<?xml version="1.0"?>
<svg width="127" height="256">
  <circle cx="99" cy="113" r="13" fill="#800080" />
  <circle cx="99" cy="177" r="13" fill="#800080" />
  <circle cx="22" cy="171" r="11" fill="#800080" />
  <circle cx="19" cy="143" r="11" fill="#800080" />
  <circle cx="22" cy="121" r="11" fill="#800080" />
  <circle cx="101" cy="50" r="11" fill="#800080" />
  <circle cx="101" cy="71" r="11" fill="#800080" />
  <circle cx="101" cy="136" r="11" fill="#800080" />
  <circle cx="31" cy="191" r="10" fill="#800080" />
  <circle cx="31" cy="101" r="10" fill="#800080" />
  <circle cx="100" cy="91" r="10" fill="#800080" />
  <circle cx="48" cy="200" r="9" fill="#800080" />
  <circle cx="99" cy="155" r="9" fill="#800080" />
  <circle cx="100" cy="198" r="9" fill="#800080" />
  <circle cx="47" cy="92" r="8" fill="#800080" />
  <circle cx="62" cy="91" r="8" fill="#800080" />
  <circle cx="64" cy="200" r="8" fill="#800080" />
  <circle cx="78" cy="195" r="7" fill="#800080" />
  <circle cx="76" cy="95" r="6" fill="#800080" />
  <circle cx="84" cy="103" r="5" fill="#800080" />
  <circle cx="14" cy="158" r="4" fill="#800080" />
  <circle cx="21" cy="157" r="4" fill="#800080" />
  <circle cx="28" cy="155" r="4" fill="#800080" />
  <circle cx="84" cy="186" r="4" fill="#800080" />
  <circle cx="19" cy="107" r="3" fill="#800080" />
  <circle cx="12" cy="131" r="3" fill="#800080" />
  <circle cx="18" cy="184" r="3" fill="#800080" />
  <circle cx="29" cy="133" r="3" fill="#800080" />
  <circle cx="35" cy="203" r="3" fill="#800080" />
  <circle cx="36" cy="89" r="3" fill="#800080" />
  <circle cx="108" cy="163" r="3" fill="#800080" />
  <circle cx="109" cy="148" r="3" fill="#800080" />
  <circle cx="109" cy="190" r="3" fill="#800080" />
</svg>
