<?xml version="1.0"?>
<svg width="152" height="256">
  <circle cx="31" cy="125" r="13" fill="#800080" />
  <circle cx="30" cy="61" r="12" fill="#800080" />
  <circle cx="29" cy="84" r="12" fill="#800080" />
  <circle cx="29" cy="149" r="12" fill="#800080" />
  <circle cx="29" cy="172" r="12" fill="#800080" />
  <circle cx="29" cy="195" r="12" fill="#800080" />
  <circle cx="26" cy="104" r="9" fill="#800080" />
  <circle cx="49" cy="197" r="9" fill="#800080" />
  <circle cx="50" cy="57" r="9" fill="#800080" />
  <circle cx="52" cy="125" r="9" fill="#800080" />
  <circle cx="66" cy="197" r="9" fill="#800080" />
  <circle cx="67" cy="57" r="9" fill="#800080" />
  <circle cx="69" cy="125" r="9" fill="#800080" />
  <circle cx="83" cy="197" r="9" fill="#800080" />
  <circle cx="84" cy="57" r="9" fill="#800080" />
  <circle cx="86" cy="125" r="9" fill="#800080" />
  <circle cx="100" cy="197" r="9" fill="#800080" />
  <circle cx="101" cy="57" r="9" fill="#800080" />
  <circle cx="103" cy="125" r="9" fill="#800080" />
  <circle cx="117" cy="197" r="9" fill="#800080" />
  <circle cx="118" cy="57" r="9" fill="#800080" />
  <circle cx="120" cy="125" r="9" fill="#800080" />
  <circle cx="134" cy="197" r="9" fill="#800080" />
  <circle cx="132" cy="54" r="6" fill="#800080" />
  <circle cx="130" cy="63" r="4" fill="#800080" />
  <circle cx="37" cy="97" r="3" fill="#800080" />
  <circle cx="20" cy="72" r="3" fill="#800080" />
  <circle cx="20" cy="137" r="3" fill="#800080" />
  <circle cx="37" cy="102" r="3" fill="#800080" />
  <circle cx="37" cy="107" r="3" fill="#800080" />
  <circle cx="136" cy="62" r="3" fill="#800080" />
</svg>
