<?xml version="1.0"?>
<svg width="127" height="256">
  <circle cx="22" cy="142" r="12" fill="#800080" />
  <circle cx="105" cy="139" r="11" fill="#800080" />
  <circle cx="22" cy="167" r="11" fill="#800080" />
  <circle cx="23" cy="119" r="10" fill="#800080" />
  <circle cx="31" cy="187" r="10" fill="#800080" />
  <circle cx="100" cy="111" r="10" fill="#800080" />
  <circle cx="100" cy="186" r="9" fill="#800080" />
  <circle cx="33" cy="102" r="9" fill="#800080" />
  <circle cx="87" cy="97" r="9" fill="#800080" />
  <circle cx="46" cy="198" r="8" fill="#800080" />
  <circle cx="41" cy="142" r="8" fill="#800080" />
  <circle cx="48" cy="93" r="8" fill="#800080" />
  <circle cx="56" cy="142" r="8" fill="#800080" />
  <circle cx="61" cy="201" r="8" fill="#800080" />
  <circle cx="63" cy="90" r="8" fill="#800080" />
  <circle cx="71" cy="142" r="8" fill="#800080" />
  <circle cx="76" cy="200" r="8" fill="#800080" />
  <circle cx="86" cy="142" r="8" fill="#800080" />
  <circle cx="90" cy="198" r="6" fill="#800080" />
  <circle cx="109" cy="123" r="5" fill="#800080" />
  <circle cx="75" cy="88" r="5" fill="#800080" />
  <circle cx="99" cy="125" r="4" fill="#800080" />
  <circle cx="13" cy="155" r="4" fill="#800080" />
  <circle cx="73" cy="96" r="4" fill="#800080" />
  <circle cx="13" cy="130" r="3" fill="#800080" />
  <circle cx="18" cy="180" r="3" fill="#800080" />
  <circle cx="21" cy="107" r="3" fill="#800080" />
  <circle cx="29" cy="155" r="3" fill="#800080" />
  <circle cx="35" cy="199" r="3" fill="#800080" />
  <circle cx="38" cy="91" r="3" fill="#800080" />
  <circle cx="87" cy="190" r="3" fill="#800080" />
  <circle cx="98" cy="98" r="3" fill="#800080" />
  <circle cx="98" cy="197" r="3" fill="#800080" />
</svg>
