<?xml version="1.0"?>
<svg width="178" height="256">
  <circle cx="22" cy="120" r="12" fill="#800080" />
  <circle cx="149" cy="139" r="12" fill="#800080" />
  <circle cx="24" cy="148" r="11" fill="#800080" />
  <circle cx="26" cy="96" r="11" fill="#800080" />
  <circle cx="32" cy="169" r="11" fill="#800080" />
  <circle cx="37" cy="77" r="11" fill="#800080" />
  <circle cx="134" cy="69" r="11" fill="#800080" />
  <circle cx="150" cy="178" r="11" fill="#800080" />
  <circle cx="46" cy="185" r="10" fill="#800080" />
  <circle cx="54" cy="63" r="10" fill="#800080" />
  <circle cx="90" cy="200" r="10" fill="#800080" />
  <circle cx="103" cy="137" r="10" fill="#800080" />
  <circle cx="122" cy="137" r="10" fill="#800080" />
  <circle cx="65" cy="196" r="9" fill="#800080" />
  <circle cx="72" cy="57" r="9" fill="#800080" />
  <circle cx="89" cy="55" r="9" fill="#800080" />
  <circle cx="106" cy="56" r="9" fill="#800080" />
  <circle cx="108" cy="198" r="9" fill="#800080" />
  <circle cx="125" cy="194" r="9" fill="#800080" />
  <circle cx="149" cy="159" r="9" fill="#800080" />
  <circle cx="148" cy="80" r="7" fill="#800080" />
  <circle cx="121" cy="57" r="6" fill="#800080" />
  <circle cx="139" cy="191" r="6" fill="#800080" />
  <circle cx="15" cy="135" r="4" fill="#800080" />
  <circle cx="29" cy="134" r="4" fill="#800080" />
  <circle cx="33" cy="183" r="4" fill="#800080" />
  <circle cx="53" cy="197" r="4" fill="#800080" />
  <circle cx="75" cy="204" r="4" fill="#800080" />
  <circle cx="77" cy="193" r="4" fill="#800080" />
  <circle cx="115" cy="65" r="4" fill="#800080" />
  <circle cx="135" cy="131" r="4" fill="#800080" />
  <circle cx="136" cy="182" r="4" fill="#800080" />
  <circle cx="137" cy="83" r="4" fill="#800080" />
  <circle cx="16" cy="106" r="3" fill="#800080" />
  <circle cx="19" cy="161" r="3" fill="#800080" />
  <circle cx="21" cy="134" r="3" fill="#800080" />
  <circle cx="23" cy="83" r="3" fill="#800080" />
  <circle cx="32" cy="109" r="3" fill="#800080" />
  <circle cx="39" cy="64" r="3" fill="#800080" />
  <circle cx="50" cy="75" r="3" fill="#800080" />
  <circle cx="58" cy="185" r="3" fill="#800080" />
  <circle cx="121" cy="65" r="3" fill="#800080" />
  <circle cx="133" cy="144" r="3" fill="#800080" />
  <circle cx="134" cy="137" r="3" fill="#800080" />
  <circle cx="158" cy="151" r="3" fill="#800080" />
  <circle cx="159" cy="166" r="3" fill="#800080" />
</svg>
