<?xml version="1.0"?>
<svg width="165" height="256">
  <circle cx="31" cy="124" r="13" fill="#800080" />
  <circle cx="134" cy="124" r="13" fill="#800080" />
  <circle cx="29" cy="60" r="12" fill="#800080" />
  <circle cx="29" cy="83" r="12" fill="#800080" />
  <circle cx="29" cy="148" r="12" fill="#800080" />
  <circle cx="29" cy="171" r="12" fill="#800080" />
  <circle cx="29" cy="194" r="12" fill="#800080" />
  <circle cx="135" cy="59" r="11" fill="#800080" />
  <circle cx="135" cy="80" r="11" fill="#800080" />
  <circle cx="135" cy="101" r="11" fill="#800080" />
  <circle cx="135" cy="147" r="11" fill="#800080" />
  <circle cx="135" cy="168" r="11" fill="#800080" />
  <circle cx="135" cy="189" r="11" fill="#800080" />
  <circle cx="26" cy="103" r="9" fill="#800080" />
  <circle cx="52" cy="124" r="9" fill="#800080" />
  <circle cx="69" cy="124" r="9" fill="#800080" />
  <circle cx="86" cy="124" r="9" fill="#800080" />
  <circle cx="103" cy="124" r="9" fill="#800080" />
  <circle cx="116" cy="120" r="5" fill="#800080" />
  <circle cx="116" cy="129" r="5" fill="#800080" />
  <circle cx="142" cy="202" r="4" fill="#800080" />
  <circle cx="128" cy="202" r="4" fill="#800080" />
  <circle cx="135" cy="203" r="4" fill="#800080" />
  <circle cx="37" cy="96" r="3" fill="#800080" />
  <circle cx="20" cy="136" r="3" fill="#800080" />
  <circle cx="37" cy="101" r="3" fill="#800080" />
  <circle cx="37" cy="106" r="3" fill="#800080" />
</svg>
