<?xml version="1.0"?>
<svg width="127" height="256">
  <circle cx="27" cy="113" r="13" fill="#800080" />
  <circle cx="95" cy="100" r="11" fill="#800080" />
  <circle cx="25" cy="50" r="11" fill="#800080" />
  <circle cx="25" cy="71" r="11" fill="#800080" />
  <circle cx="25" cy="136" r="11" fill="#800080" />
  <circle cx="25" cy="157" r="11" fill="#800080" />
  <circle cx="25" cy="178" r="11" fill="#800080" />
  <circle cx="102" cy="121" r="11" fill="#800080" />
  <circle cx="102" cy="142" r="11" fill="#800080" />
  <circle cx="102" cy="163" r="11" fill="#800080" />
  <circle cx="102" cy="184" r="11" fill="#800080" />
  <circle cx="24" cy="91" r="10" fill="#800080" />
  <circle cx="23" cy="197" r="9" fill="#800080" />
  <circle cx="72" cy="91" r="9" fill="#800080" />
  <circle cx="55" cy="94" r="7" fill="#800080" />
  <circle cx="97" cy="200" r="6" fill="#800080" />
  <circle cx="43" cy="103" r="5" fill="#800080" />
  <circle cx="107" cy="199" r="5" fill="#800080" />
  <circle cx="85" cy="88" r="4" fill="#800080" />
  <circle cx="33" cy="190" r="3" fill="#800080" />
  <circle cx="33" cy="204" r="3" fill="#800080" />
  <circle cx="34" cy="82" r="3" fill="#800080" />
  <circle cx="34" cy="195" r="3" fill="#800080" />
  <circle cx="46" cy="96" r="3" fill="#800080" />
  <circle cx="81" cy="99" r="3" fill="#800080" />
  <circle cx="107" cy="107" r="3" fill="#800080" />
</svg>
