<?xml version="1.0"?>
<svg width="114" height="256">
  <circle cx="85" cy="60" r="12" fill="#800080" />
  <circle cx="23" cy="188" r="11" fill="#800080" />
  <circle cx="83" cy="179" r="11" fill="#800080" />
  <circle cx="86" cy="82" r="11" fill="#800080" />
  <circle cx="86" cy="103" r="11" fill="#800080" />
  <circle cx="86" cy="124" r="11" fill="#800080" />
  <circle cx="86" cy="145" r="11" fill="#800080" />
  <circle cx="70" cy="195" r="9" fill="#800080" />
  <circle cx="40" cy="199" r="9" fill="#800080" />
  <circle cx="53" cy="57" r="9" fill="#800080" />
  <circle cx="12" cy="173" r="7" fill="#800080" />
  <circle cx="55" cy="197" r="7" fill="#800080" />
  <circle cx="82" cy="162" r="7" fill="#800080" />
  <circle cx="68" cy="55" r="6" fill="#800080" />
  <circle cx="93" cy="159" r="5" fill="#800080" />
  <circle cx="23" cy="173" r="4" fill="#800080" />
  <circle cx="82" cy="193" r="4" fill="#800080" />
  <circle cx="92" cy="167" r="4" fill="#800080" />
  <circle cx="50" cy="206" r="3" fill="#800080" />
  <circle cx="10" cy="182" r="3" fill="#800080" />
  <circle cx="20" cy="167" r="3" fill="#800080" />
  <circle cx="27" cy="201" r="3" fill="#800080" />
  <circle cx="55" cy="206" r="3" fill="#800080" />
  <circle cx="60" cy="206" r="3" fill="#800080" />
  <circle cx="63" cy="64" r="3" fill="#800080" />
  <circle cx="68" cy="63" r="3" fill="#800080" />
  <circle cx="95" cy="71" r="3" fill="#800080" />
</svg>
