<?xml version="1.0"?>
<svg width="152" height="256">
  <circle cx="31" cy="135" r="14" fill="#800080" />
  <circle cx="63" cy="120" r="12" fill="#800080" />
  <circle cx="29" cy="60" r="12" fill="#800080" />
  <circle cx="29" cy="83" r="12" fill="#800080" />
  <circle cx="29" cy="106" r="12" fill="#800080" />
  <circle cx="29" cy="160" r="12" fill="#800080" />
  <circle cx="29" cy="183" r="12" fill="#800080" />
  <circle cx="78" cy="137" r="10" fill="#800080" />
  <circle cx="91" cy="152" r="10" fill="#800080" />
  <circle cx="104" cy="168" r="10" fill="#800080" />
  <circle cx="117" cy="183" r="10" fill="#800080" />
  <circle cx="88" cy="90" r="9" fill="#800080" />
  <circle cx="75" cy="103" r="9" fill="#800080" />
  <circle cx="100" cy="77" r="9" fill="#800080" />
  <circle cx="112" cy="64" r="9" fill="#800080" />
  <circle cx="129" cy="198" r="9" fill="#800080" />
  <circle cx="125" cy="55" r="7" fill="#800080" />
  <circle cx="24" cy="200" r="6" fill="#800080" />
  <circle cx="35" cy="200" r="6" fill="#800080" />
  <circle cx="50" cy="132" r="5" fill="#800080" />
  <circle cx="142" cy="202" r="4" fill="#800080" />
  <circle cx="21" cy="120" r="4" fill="#800080" />
  <circle cx="48" cy="124" r="4" fill="#800080" />
  <circle cx="37" cy="119" r="3" fill="#800080" />
  <circle cx="20" cy="148" r="3" fill="#800080" />
  <circle cx="64" cy="106" r="3" fill="#800080" />
  <circle cx="77" cy="125" r="3" fill="#800080" />
  <circle cx="79" cy="149" r="3" fill="#800080" />
  <circle cx="86" cy="101" r="3" fill="#800080" />
  <circle cx="90" cy="140" r="3" fill="#800080" />
  <circle cx="91" cy="164" r="3" fill="#800080" />
  <circle cx="99" cy="88" r="3" fill="#800080" />
  <circle cx="103" cy="156" r="3" fill="#800080" />
  <circle cx="105" cy="180" r="3" fill="#800080" />
  <circle cx="111" cy="75" r="3" fill="#800080" />
  <circle cx="115" cy="53" r="3" fill="#800080" />
  <circle cx="116" cy="171" r="3" fill="#800080" />
  <circle cx="117" cy="195" r="3" fill="#800080" />
  <circle cx="129" cy="186" r="3" fill="#800080" />
  <circle cx="134" cy="51" r="3" fill="#800080" />
</svg>
