<?xml version="1.0"?>
<svg width="114" height="256">
  <circle cx="28" cy="153" r="13" fill="#800080" />
  <circle cx="53" cy="141" r="11" fill="#800080" />
  <circle cx="25" cy="50" r="11" fill="#800080" />
  <circle cx="25" cy="71" r="11" fill="#800080" />
  <circle cx="25" cy="92" r="11" fill="#800080" />
  <circle cx="25" cy="113" r="11" fill="#800080" />
  <circle cx="25" cy="176" r="11" fill="#800080" />
  <circle cx="88" cy="187" r="10" fill="#800080" />
  <circle cx="24" cy="196" r="10" fill="#800080" />
  <circle cx="67" cy="159" r="10" fill="#800080" />
  <circle cx="65" cy="123" r="9" fill="#800080" />
  <circle cx="23" cy="132" r="9" fill="#800080" />
  <circle cx="77" cy="110" r="9" fill="#800080" />
  <circle cx="89" cy="97" r="9" fill="#800080" />
  <circle cx="76" cy="174" r="7" fill="#800080" />
  <circle cx="99" cy="200" r="7" fill="#800080" />
  <circle cx="100" cy="89" r="5" fill="#800080" />
  <circle cx="86" cy="174" r="4" fill="#800080" />
  <circle cx="44" cy="152" r="3" fill="#800080" />
  <circle cx="33" cy="125" r="3" fill="#800080" />
  <circle cx="40" cy="142" r="3" fill="#800080" />
  <circle cx="53" cy="128" r="3" fill="#800080" />
  <circle cx="55" cy="154" r="3" fill="#800080" />
  <circle cx="66" cy="146" r="3" fill="#800080" />
  <circle cx="79" cy="163" r="3" fill="#800080" />
  <circle cx="88" cy="199" r="3" fill="#800080" />
  <circle cx="100" cy="191" r="3" fill="#800080" />
  <circle cx="107" cy="87" r="3" fill="#800080" />
  <circle cx="108" cy="202" r="3" fill="#800080" />
</svg>
