<?xml version="1.0"?>
<svg width="190" height="256">
  <circle cx="27" cy="113" r="13" fill="#800080" />
  <circle cx="96" cy="114" r="12" fill="#800080" />
  <circle cx="161" cy="103" r="11" fill="#800080" />
  <circle cx="25" cy="136" r="11" fill="#800080" />
  <circle cx="25" cy="157" r="11" fill="#800080" />
  <circle cx="25" cy="178" r="11" fill="#800080" />
  <circle cx="95" cy="136" r="11" fill="#800080" />
  <circle cx="95" cy="157" r="11" fill="#800080" />
  <circle cx="95" cy="178" r="11" fill="#800080" />
  <circle cx="165" cy="124" r="11" fill="#800080" />
  <circle cx="165" cy="145" r="11" fill="#800080" />
  <circle cx="165" cy="166" r="11" fill="#800080" />
  <circle cx="165" cy="187" r="11" fill="#800080" />
  <circle cx="84" cy="95" r="10" fill="#800080" />
  <circle cx="144" cy="92" r="9" fill="#800080" />
  <circle cx="23" cy="197" r="9" fill="#800080" />
  <circle cx="93" cy="197" r="9" fill="#800080" />
  <circle cx="66" cy="91" r="8" fill="#800080" />
  <circle cx="22" cy="92" r="8" fill="#800080" />
  <circle cx="128" cy="92" r="7" fill="#800080" />
  <circle cx="51" cy="95" r="7" fill="#800080" />
  <circle cx="116" cy="98" r="6" fill="#800080" />
  <circle cx="42" cy="103" r="5" fill="#800080" />
  <circle cx="159" cy="202" r="5" fill="#800080" />
  <circle cx="168" cy="202" r="5" fill="#800080" />
  <circle cx="109" cy="105" r="4" fill="#800080" />
  <circle cx="97" cy="99" r="4" fill="#800080" />
  <circle cx="156" cy="89" r="4" fill="#800080" />
  <circle cx="31" cy="98" r="3" fill="#800080" />
  <circle cx="32" cy="87" r="3" fill="#800080" />
  <circle cx="32" cy="92" r="3" fill="#800080" />
  <circle cx="33" cy="190" r="3" fill="#800080" />
  <circle cx="33" cy="204" r="3" fill="#800080" />
  <circle cx="103" cy="190" r="3" fill="#800080" />
  <circle cx="103" cy="204" r="3" fill="#800080" />
  <circle cx="172" cy="112" r="3" fill="#800080" />
</svg>
