<?xml version="1.0"?>
<svg width="127" height="256">
  <circle cx="106" cy="132" r="11" fill="#800080" />
  <circle cx="19" cy="144" r="11" fill="#800080" />
  <circle cx="22" cy="123" r="11" fill="#800080" />
  <circle cx="22" cy="166" r="11" fill="#800080" />
  <circle cx="104" cy="170" r="11" fill="#800080" />
  <circle cx="100" cy="110" r="10" fill="#800080" />
  <circle cx="31" cy="104" r="10" fill="#800080" />
  <circle cx="30" cy="187" r="9" fill="#800080" />
  <circle cx="89" cy="194" r="9" fill="#800080" />
  <circle cx="104" cy="151" r="9" fill="#800080" />
  <circle cx="85" cy="95" r="8" fill="#800080" />
  <circle cx="43" cy="198" r="8" fill="#800080" />
  <circle cx="45" cy="93" r="8" fill="#800080" />
  <circle cx="58" cy="201" r="8" fill="#800080" />
  <circle cx="60" cy="91" r="8" fill="#800080" />
  <circle cx="73" cy="200" r="8" fill="#800080" />
  <circle cx="102" cy="186" r="6" fill="#800080" />
  <circle cx="73" cy="89" r="5" fill="#800080" />
  <circle cx="93" cy="181" r="4" fill="#800080" />
  <circle cx="19" cy="180" r="4" fill="#800080" />
  <circle cx="96" cy="96" r="4" fill="#800080" />
  <circle cx="111" cy="118" r="3" fill="#800080" />
  <circle cx="12" cy="156" r="3" fill="#800080" />
  <circle cx="18" cy="110" r="3" fill="#800080" />
  <circle cx="29" cy="154" r="3" fill="#800080" />
  <circle cx="32" cy="176" r="3" fill="#800080" />
  <circle cx="32" cy="198" r="3" fill="#800080" />
  <circle cx="35" cy="92" r="3" fill="#800080" />
  <circle cx="70" cy="96" r="3" fill="#800080" />
  <circle cx="75" cy="96" r="3" fill="#800080" />
  <circle cx="88" cy="105" r="3" fill="#800080" />
  <circle cx="96" cy="122" r="3" fill="#800080" />
  <circle cx="113" cy="159" r="3" fill="#800080" />
  <circle cx="114" cy="144" r="3" fill="#800080" />
  <circle cx="115" cy="149" r="3" fill="#800080" />
  <circle cx="115" cy="154" r="3" fill="#800080" />
</svg>
