<?xml version="1.0"?>
<svg width="178" height="256">
  <circle cx="22" cy="115" r="12" fill="#800080" />
  <circle cx="22" cy="138" r="12" fill="#800080" />
  <circle cx="155" cy="115" r="12" fill="#800080" />
  <circle cx="155" cy="138" r="12" fill="#800080" />
  <circle cx="29" cy="89" r="11" fill="#800080" />
  <circle cx="27" cy="160" r="11" fill="#800080" />
  <circle cx="38" cy="179" r="11" fill="#800080" />
  <circle cx="140" cy="77" r="11" fill="#800080" />
  <circle cx="147" cy="167" r="11" fill="#800080" />
  <circle cx="42" cy="71" r="10" fill="#800080" />
  <circle cx="56" cy="193" r="10" fill="#800080" />
  <circle cx="78" cy="56" r="10" fill="#800080" />
  <circle cx="88" cy="200" r="10" fill="#800080" />
  <circle cx="99" cy="56" r="10" fill="#800080" />
  <circle cx="121" cy="62" r="10" fill="#800080" />
  <circle cx="125" cy="191" r="10" fill="#800080" />
  <circle cx="59" cy="61" r="9" fill="#800080" />
  <circle cx="106" cy="198" r="9" fill="#800080" />
  <circle cx="149" cy="95" r="9" fill="#800080" />
  <circle cx="71" cy="201" r="7" fill="#800080" />
  <circle cx="140" cy="183" r="6" fill="#800080" />
  <circle cx="158" cy="155" r="5" fill="#800080" />
  <circle cx="146" cy="152" r="5" fill="#800080" />
  <circle cx="18" cy="99" r="4" fill="#800080" />
  <circle cx="29" cy="75" r="4" fill="#800080" />
  <circle cx="32" cy="103" r="4" fill="#800080" />
  <circle cx="43" cy="193" r="4" fill="#800080" />
  <circle cx="131" cy="178" r="4" fill="#800080" />
  <circle cx="134" cy="62" r="4" fill="#800080" />
  <circle cx="69" cy="191" r="3" fill="#800080" />
  <circle cx="12" cy="126" r="3" fill="#800080" />
  <circle cx="15" cy="151" r="3" fill="#800080" />
  <circle cx="24" cy="173" r="3" fill="#800080" />
  <circle cx="42" cy="83" r="3" fill="#800080" />
  <circle cx="46" cy="59" r="3" fill="#800080" />
  <circle cx="51" cy="181" r="3" fill="#800080" />
  <circle cx="66" cy="51" r="3" fill="#800080" />
  <circle cx="74" cy="192" r="3" fill="#800080" />
  <circle cx="109" cy="64" r="3" fill="#800080" />
  <circle cx="111" cy="51" r="3" fill="#800080" />
  <circle cx="117" cy="201" r="3" fill="#800080" />
  <circle cx="126" cy="74" r="3" fill="#800080" />
  <circle cx="137" cy="191" r="3" fill="#800080" />
  <circle cx="148" cy="180" r="3" fill="#800080" />
  <circle cx="152" cy="84" r="3" fill="#800080" />
  <circle cx="160" cy="96" r="3" fill="#800080" />
  <circle cx="160" cy="101" r="3" fill="#800080" />
  <circle cx="165" cy="126" r="3" fill="#800080" />
</svg>
