<?xml version="1.0"?>
<svg width="127" height="256">
  <circle cx="27" cy="112" r="13" fill="#800080" />
  <circle cx="27" cy="177" r="13" fill="#800080" />
  <circle cx="100" cy="108" r="11" fill="#800080" />
  <circle cx="25" cy="135" r="11" fill="#800080" />
  <circle cx="25" cy="200" r="11" fill="#800080" />
  <circle cx="25" cy="221" r="11" fill="#800080" />
  <circle cx="25" cy="242" r="11" fill="#800080" />
  <circle cx="104" cy="172" r="11" fill="#800080" />
  <circle cx="106" cy="129" r="11" fill="#800080" />
  <circle cx="106" cy="150" r="11" fill="#800080" />
  <circle cx="94" cy="192" r="10" fill="#800080" />
  <circle cx="24" cy="155" r="10" fill="#800080" />
  <circle cx="82" cy="93" r="9" fill="#800080" />
  <circle cx="73" cy="201" r="8" fill="#800080" />
  <circle cx="22" cy="92" r="8" fill="#800080" />
  <circle cx="57" cy="93" r="8" fill="#800080" />
  <circle cx="56" cy="199" r="7" fill="#800080" />
  <circle cx="44" cy="101" r="6" fill="#800080" />
  <circle cx="44" cy="192" r="6" fill="#800080" />
  <circle cx="69" cy="88" r="5" fill="#800080" />
  <circle cx="85" cy="203" r="4" fill="#800080" />
  <circle cx="68" cy="96" r="4" fill="#800080" />
  <circle cx="94" cy="92" r="4" fill="#800080" />
  <circle cx="106" cy="186" r="3" fill="#800080" />
  <circle cx="32" cy="87" r="3" fill="#800080" />
  <circle cx="32" cy="92" r="3" fill="#800080" />
  <circle cx="32" cy="97" r="3" fill="#800080" />
  <circle cx="34" cy="163" r="3" fill="#800080" />
  <circle cx="41" cy="184" r="3" fill="#800080" />
  <circle cx="47" cy="93" r="3" fill="#800080" />
  <circle cx="63" cy="206" r="3" fill="#800080" />
  <circle cx="81" cy="193" r="3" fill="#800080" />
  <circle cx="100" cy="95" r="3" fill="#800080" />
  <circle cx="112" cy="116" r="3" fill="#800080" />
  <circle cx="114" cy="162" r="3" fill="#800080" />
</svg>
