<?xml version="1.0"?>
<svg width="152" height="256">
  <circle cx="31" cy="136" r="13" fill="#800080" />
  <circle cx="30" cy="61" r="12" fill="#800080" />
  <circle cx="29" cy="84" r="12" fill="#800080" />
  <circle cx="29" cy="107" r="12" fill="#800080" />
  <circle cx="29" cy="160" r="12" fill="#800080" />
  <circle cx="29" cy="183" r="12" fill="#800080" />
  <circle cx="127" cy="81" r="11" fill="#800080" />
  <circle cx="124" cy="118" r="11" fill="#800080" />
  <circle cx="112" cy="64" r="10" fill="#800080" />
  <circle cx="106" cy="133" r="9" fill="#800080" />
  <circle cx="50" cy="57" r="9" fill="#800080" />
  <circle cx="52" cy="136" r="9" fill="#800080" />
  <circle cx="67" cy="57" r="9" fill="#800080" />
  <circle cx="69" cy="136" r="9" fill="#800080" />
  <circle cx="84" cy="57" r="9" fill="#800080" />
  <circle cx="86" cy="136" r="9" fill="#800080" />
  <circle cx="132" cy="100" r="8" fill="#800080" />
  <circle cx="24" cy="200" r="6" fill="#800080" />
  <circle cx="35" cy="200" r="6" fill="#800080" />
  <circle cx="98" cy="55" r="6" fill="#800080" />
  <circle cx="126" cy="66" r="4" fill="#800080" />
  <circle cx="21" cy="121" r="4" fill="#800080" />
  <circle cx="95" cy="64" r="4" fill="#800080" />
  <circle cx="118" cy="132" r="4" fill="#800080" />
  <circle cx="121" cy="102" r="4" fill="#800080" />
  <circle cx="37" cy="120" r="3" fill="#800080" />
  <circle cx="20" cy="72" r="3" fill="#800080" />
  <circle cx="20" cy="148" r="3" fill="#800080" />
  <circle cx="27" cy="121" r="3" fill="#800080" />
  <circle cx="32" cy="121" r="3" fill="#800080" />
  <circle cx="97" cy="141" r="3" fill="#800080" />
  <circle cx="121" cy="94" r="3" fill="#800080" />
  <circle cx="136" cy="110" r="3" fill="#800080" />
  <circle cx="138" cy="90" r="3" fill="#800080" />
</svg>
