<?xml version="1.0"?>
<svg width="178" height="256">
  <circle cx="93" cy="203" r="13" fill="#800080" />
  <circle cx="22" cy="115" r="12" fill="#800080" />
  <circle cx="22" cy="138" r="12" fill="#800080" />
  <circle cx="155" cy="115" r="12" fill="#800080" />
  <circle cx="155" cy="138" r="12" fill="#800080" />
  <circle cx="28" cy="163" r="11" fill="#800080" />
  <circle cx="27" cy="93" r="11" fill="#800080" />
  <circle cx="44" cy="185" r="11" fill="#800080" />
  <circle cx="102" cy="228" r="11" fill="#800080" />
  <circle cx="140" cy="77" r="11" fill="#800080" />
  <circle cx="147" cy="167" r="11" fill="#800080" />
  <circle cx="39" cy="74" r="10" fill="#800080" />
  <circle cx="56" cy="62" r="10" fill="#800080" />
  <circle cx="78" cy="56" r="10" fill="#800080" />
  <circle cx="99" cy="56" r="10" fill="#800080" />
  <circle cx="121" cy="62" r="10" fill="#800080" />
  <circle cx="128" cy="189" r="10" fill="#800080" />
  <circle cx="63" cy="196" r="9" fill="#800080" />
  <circle cx="118" cy="240" r="9" fill="#800080" />
  <circle cx="149" cy="95" r="9" fill="#800080" />
  <circle cx="134" cy="241" r="8" fill="#800080" />
  <circle cx="113" cy="198" r="7" fill="#800080" />
  <circle cx="158" cy="155" r="5" fill="#800080" />
  <circle cx="29" cy="178" r="5" fill="#800080" />
  <circle cx="75" cy="203" r="5" fill="#800080" />
  <circle cx="76" cy="194" r="5" fill="#800080" />
  <circle cx="140" cy="181" r="5" fill="#800080" />
  <circle cx="146" cy="152" r="5" fill="#800080" />
  <circle cx="134" cy="175" r="4" fill="#800080" />
  <circle cx="17" cy="153" r="4" fill="#800080" />
  <circle cx="26" cy="79" r="4" fill="#800080" />
  <circle cx="41" cy="171" r="4" fill="#800080" />
  <circle cx="89" cy="219" r="4" fill="#800080" />
  <circle cx="134" cy="62" r="4" fill="#800080" />
  <circle cx="32" cy="149" r="3" fill="#800080" />
  <circle cx="12" cy="126" r="3" fill="#800080" />
  <circle cx="15" cy="102" r="3" fill="#800080" />
  <circle cx="39" cy="86" r="3" fill="#800080" />
  <circle cx="42" cy="62" r="3" fill="#800080" />
  <circle cx="50" cy="198" r="3" fill="#800080" />
  <circle cx="64" cy="52" r="3" fill="#800080" />
  <circle cx="68" cy="64" r="3" fill="#800080" />
  <circle cx="104" cy="215" r="3" fill="#800080" />
  <circle cx="104" cy="241" r="3" fill="#800080" />
  <circle cx="105" cy="192" r="3" fill="#800080" />
  <circle cx="109" cy="64" r="3" fill="#800080" />
  <circle cx="111" cy="51" r="3" fill="#800080" />
  <circle cx="114" cy="189" r="3" fill="#800080" />
  <circle cx="126" cy="74" r="3" fill="#800080" />
  <circle cx="140" cy="188" r="3" fill="#800080" />
  <circle cx="143" cy="235" r="3" fill="#800080" />
  <circle cx="144" cy="240" r="3" fill="#800080" />
  <circle cx="144" cy="245" r="3" fill="#800080" />
  <circle cx="147" cy="180" r="3" fill="#800080" />
  <circle cx="152" cy="84" r="3" fill="#800080" />
  <circle cx="160" cy="96" r="3" fill="#800080" />
  <circle cx="160" cy="101" r="3" fill="#800080" />
  <circle cx="165" cy="126" r="3" fill="#800080" />
</svg>
