<?xml version="1.0"?>
<svg width="152" height="256">
  <circle cx="128" cy="149" r="11" fill="#800080" />
  <circle cx="24" cy="177" r="11" fill="#800080" />
  <circle cx="28" cy="83" r="11" fill="#800080" />
  <circle cx="32" cy="104" r="11" fill="#800080" />
  <circle cx="122" cy="72" r="11" fill="#800080" />
  <circle cx="129" cy="176" r="11" fill="#800080" />
  <circle cx="50" cy="117" r="10" fill="#800080" />
  <circle cx="39" cy="192" r="10" fill="#800080" />
  <circle cx="69" cy="123" r="10" fill="#800080" />
  <circle cx="88" cy="127" r="10" fill="#800080" />
  <circle cx="107" cy="132" r="10" fill="#800080" />
  <circle cx="39" cy="65" r="9" fill="#800080" />
  <circle cx="57" cy="199" r="9" fill="#800080" />
  <circle cx="60" cy="56" r="9" fill="#800080" />
  <circle cx="74" cy="200" r="9" fill="#800080" />
  <circle cx="77" cy="55" r="9" fill="#800080" />
  <circle cx="92" cy="199" r="9" fill="#800080" />
  <circle cx="94" cy="56" r="9" fill="#800080" />
  <circle cx="109" cy="195" r="9" fill="#800080" />
  <circle cx="110" cy="58" r="7" fill="#800080" />
  <circle cx="123" cy="192" r="5" fill="#800080" />
  <circle cx="121" cy="133" r="5" fill="#800080" />
  <circle cx="137" cy="162" r="5" fill="#800080" />
  <circle cx="47" cy="55" r="4" fill="#800080" />
  <circle cx="26" cy="69" r="4" fill="#800080" />
  <circle cx="26" cy="191" r="4" fill="#800080" />
  <circle cx="37" cy="118" r="4" fill="#800080" />
  <circle cx="114" cy="144" r="4" fill="#800080" />
  <circle cx="116" cy="184" r="4" fill="#800080" />
  <circle cx="51" cy="64" r="3" fill="#800080" />
  <circle cx="20" cy="95" r="3" fill="#800080" />
  <circle cx="102" cy="65" r="3" fill="#800080" />
  <circle cx="107" cy="67" r="3" fill="#800080" />
  <circle cx="119" cy="59" r="3" fill="#800080" />
  <circle cx="123" cy="162" r="3" fill="#800080" />
  <circle cx="128" cy="136" r="3" fill="#800080" />
  <circle cx="128" cy="162" r="3" fill="#800080" />
  <circle cx="130" cy="189" r="3" fill="#800080" />
  <circle cx="132" cy="82" r="3" fill="#800080" />
</svg>
