<?xml version="1.0"?>
<svg width="114" height="256">
  <circle cx="21" cy="120" r="10" fill="#800080" />
  <circle cx="33" cy="136" r="10" fill="#800080" />
  <circle cx="82" cy="152" r="10" fill="#800080" />
  <circle cx="94" cy="184" r="10" fill="#800080" />
  <circle cx="21" cy="189" r="9" fill="#800080" />
  <circle cx="24" cy="102" r="9" fill="#800080" />
  <circle cx="51" cy="142" r="9" fill="#800080" />
  <circle cx="55" cy="201" r="9" fill="#800080" />
  <circle cx="84" cy="98" r="9" fill="#800080" />
  <circle cx="95" cy="166" r="9" fill="#800080" />
  <circle cx="38" cy="199" r="8" fill="#800080" />
  <circle cx="39" cy="93" r="8" fill="#800080" />
  <circle cx="54" cy="91" r="8" fill="#800080" />
  <circle cx="71" cy="199" r="8" fill="#800080" />
  <circle cx="69" cy="91" r="7" fill="#800080" />
  <circle cx="66" cy="144" r="7" fill="#800080" />
  <circle cx="96" cy="108" r="6" fill="#800080" />
  <circle cx="84" cy="197" r="6" fill="#800080" />
  <circle cx="11" cy="181" r="4" fill="#800080" />
  <circle cx="20" cy="133" r="4" fill="#800080" />
  <circle cx="87" cy="110" r="4" fill="#800080" />
  <circle cx="95" cy="154" r="4" fill="#800080" />
  <circle cx="27" cy="200" r="3" fill="#800080" />
  <circle cx="14" cy="109" r="3" fill="#800080" />
  <circle cx="17" cy="178" r="3" fill="#800080" />
  <circle cx="22" cy="177" r="3" fill="#800080" />
  <circle cx="29" cy="91" r="3" fill="#800080" />
  <circle cx="32" cy="190" r="3" fill="#800080" />
  <circle cx="59" cy="151" r="3" fill="#800080" />
  <circle cx="64" cy="153" r="3" fill="#800080" />
  <circle cx="69" cy="153" r="3" fill="#800080" />
  <circle cx="92" cy="196" r="3" fill="#800080" />
  <circle cx="95" cy="100" r="3" fill="#800080" />
  <circle cx="104" cy="174" r="3" fill="#800080" />
</svg>
