<?xml version="1.0"?>
<svg width="165" height="256">
  <circle cx="28" cy="60" r="12" fill="#800080" />
  <circle cx="28" cy="83" r="12" fill="#800080" />
  <circle cx="28" cy="106" r="12" fill="#800080" />
  <circle cx="28" cy="129" r="12" fill="#800080" />
  <circle cx="28" cy="152" r="11" fill="#800080" />
  <circle cx="33" cy="173" r="11" fill="#800080" />
  <circle cx="129" cy="177" r="11" fill="#800080" />
  <circle cx="136" cy="59" r="11" fill="#800080" />
  <circle cx="136" cy="80" r="11" fill="#800080" />
  <circle cx="136" cy="101" r="11" fill="#800080" />
  <circle cx="136" cy="122" r="11" fill="#800080" />
  <circle cx="136" cy="143" r="11" fill="#800080" />
  <circle cx="46" cy="190" r="10" fill="#800080" />
  <circle cx="81" cy="200" r="10" fill="#800080" />
  <circle cx="112" cy="193" r="10" fill="#800080" />
  <circle cx="63" cy="198" r="8" fill="#800080" />
  <circle cx="139" cy="161" r="8" fill="#800080" />
  <circle cx="97" cy="201" r="7" fill="#800080" />
  <circle cx="33" cy="187" r="4" fill="#800080" />
  <circle cx="125" cy="191" r="4" fill="#800080" />
  <circle cx="127" cy="162" r="4" fill="#800080" />
  <circle cx="128" cy="155" r="3" fill="#800080" />
  <circle cx="19" cy="141" r="3" fill="#800080" />
  <circle cx="21" cy="164" r="3" fill="#800080" />
  <circle cx="37" cy="141" r="3" fill="#800080" />
  <circle cx="53" cy="201" r="3" fill="#800080" />
  <circle cx="94" cy="192" r="3" fill="#800080" />
  <circle cx="99" cy="191" r="3" fill="#800080" />
</svg>
