<?xml version="1.0"?>
<svg width="127" height="256">
  <circle cx="99" cy="178" r="12" fill="#800080" />
  <circle cx="27" cy="183" r="11" fill="#800080" />
  <circle cx="24" cy="95" r="11" fill="#800080" />
  <circle cx="24" cy="116" r="11" fill="#800080" />
  <circle cx="24" cy="137" r="11" fill="#800080" />
  <circle cx="24" cy="158" r="11" fill="#800080" />
  <circle cx="101" cy="95" r="11" fill="#800080" />
  <circle cx="101" cy="116" r="11" fill="#800080" />
  <circle cx="101" cy="137" r="11" fill="#800080" />
  <circle cx="100" cy="157" r="10" fill="#800080" />
  <circle cx="41" cy="198" r="9" fill="#800080" />
  <circle cx="100" cy="198" r="9" fill="#800080" />
  <circle cx="57" cy="200" r="8" fill="#800080" />
  <circle cx="72" cy="198" r="7" fill="#800080" />
  <circle cx="82" cy="190" r="5" fill="#800080" />
  <circle cx="28" cy="198" r="4" fill="#800080" />
  <circle cx="18" cy="171" r="3" fill="#800080" />
  <circle cx="31" cy="170" r="3" fill="#800080" />
  <circle cx="109" cy="167" r="3" fill="#800080" />
  <circle cx="109" cy="189" r="3" fill="#800080" />
</svg>
