<?xml version="1.0"?>
<svg width="152" height="256">
  <circle cx="17" cy="62" r="11" fill="#800080" />
  <circle cx="72" cy="196" r="11" fill="#800080" />
  <circle cx="128" cy="79" r="11" fill="#800080" />
  <circle cx="25" cy="82" r="10" fill="#800080" />
  <circle cx="32" cy="101" r="10" fill="#800080" />
  <circle cx="40" cy="120" r="10" fill="#800080" />
  <circle cx="48" cy="139" r="10" fill="#800080" />
  <circle cx="56" cy="159" r="10" fill="#800080" />
  <circle cx="93" cy="167" r="10" fill="#800080" />
  <circle cx="100" cy="148" r="10" fill="#800080" />
  <circle cx="108" cy="128" r="10" fill="#800080" />
  <circle cx="116" cy="108" r="10" fill="#800080" />
  <circle cx="135" cy="59" r="10" fill="#800080" />
  <circle cx="63" cy="177" r="9" fill="#800080" />
  <circle cx="87" cy="184" r="8" fill="#800080" />
  <circle cx="118" cy="93" r="6" fill="#800080" />
  <circle cx="87" cy="196" r="5" fill="#800080" />
  <circle cx="128" cy="94" r="5" fill="#800080" />
  <circle cx="5" cy="52" r="4" fill="#800080" />
  <circle cx="119" cy="121" r="3" fill="#800080" />
  <circle cx="14" cy="75" r="3" fill="#800080" />
  <circle cx="29" cy="70" r="3" fill="#800080" />
  <circle cx="29" cy="113" r="3" fill="#800080" />
  <circle cx="36" cy="89" r="3" fill="#800080" />
  <circle cx="37" cy="132" r="3" fill="#800080" />
  <circle cx="43" cy="108" r="3" fill="#800080" />
  <circle cx="45" cy="151" r="3" fill="#800080" />
  <circle cx="51" cy="127" r="3" fill="#800080" />
  <circle cx="58" cy="147" r="3" fill="#800080" />
  <circle cx="60" cy="188" r="3" fill="#800080" />
  <circle cx="84" cy="203" r="3" fill="#800080" />
  <circle cx="97" cy="136" r="3" fill="#800080" />
  <circle cx="105" cy="116" r="3" fill="#800080" />
  <circle cx="110" cy="140" r="3" fill="#800080" />
  <circle cx="127" cy="101" r="3" fill="#800080" />
  <circle cx="140" cy="71" r="3" fill="#800080" />
  <circle cx="145" cy="51" r="3" fill="#800080" />
</svg>
