<?xml version="1.0"?>
<svg width="165" height="256">
  <circle cx="80" cy="96" r="11" fill="#800080" />
  <circle cx="41" cy="196" r="11" fill="#800080" />
  <circle cx="116" cy="196" r="11" fill="#800080" />
  <circle cx="12" cy="96" r="10" fill="#800080" />
  <circle cx="17" cy="115" r="10" fill="#800080" />
  <circle cx="150" cy="106" r="10" fill="#800080" />
  <circle cx="22" cy="134" r="9" fill="#800080" />
  <circle cx="27" cy="151" r="9" fill="#800080" />
  <circle cx="31" cy="168" r="9" fill="#800080" />
  <circle cx="131" cy="176" r="9" fill="#800080" />
  <circle cx="136" cy="157" r="9" fill="#800080" />
  <circle cx="141" cy="137" r="9" fill="#800080" />
  <circle cx="57" cy="172" r="8" fill="#800080" />
  <circle cx="60" cy="157" r="8" fill="#800080" />
  <circle cx="64" cy="142" r="8" fill="#800080" />
  <circle cx="68" cy="127" r="8" fill="#800080" />
  <circle cx="92" cy="111" r="8" fill="#800080" />
  <circle cx="95" cy="126" r="8" fill="#800080" />
  <circle cx="99" cy="141" r="8" fill="#800080" />
  <circle cx="103" cy="156" r="8" fill="#800080" />
  <circle cx="106" cy="171" r="8" fill="#800080" />
  <circle cx="73" cy="113" r="7" fill="#800080" />
  <circle cx="143" cy="122" r="7" fill="#800080" />
  <circle cx="157" cy="91" r="6" fill="#800080" />
  <circle cx="54" cy="185" r="6" fill="#800080" />
  <circle cx="32" cy="182" r="5" fill="#800080" />
  <circle cx="106" cy="183" r="5" fill="#800080" />
  <circle cx="130" cy="189" r="5" fill="#800080" />
  <circle cx="54" cy="203" r="4" fill="#800080" />
  <circle cx="55" cy="194" r="4" fill="#800080" />
  <circle cx="114" cy="180" r="4" fill="#800080" />
  <circle cx="130" cy="197" r="4" fill="#800080" />
  <circle cx="147" cy="93" r="4" fill="#800080" />
  <circle cx="39" cy="177" r="3" fill="#800080" />
  <circle cx="39" cy="182" r="3" fill="#800080" />
  <circle cx="91" cy="87" r="3" fill="#800080" />
  <circle cx="93" cy="93" r="3" fill="#800080" />
  <circle cx="93" cy="98" r="3" fill="#800080" />
  <circle cx="128" cy="203" r="3" fill="#800080" />
  <circle cx="133" cy="146" r="3" fill="#800080" />
  <circle cx="144" cy="148" r="3" fill="#800080" />
  <circle cx="148" cy="87" r="3" fill="#800080" />
  <circle cx="150" cy="129" r="3" fill="#800080" />
  <circle cx="152" cy="118" r="3" fill="#800080" />
  <circle cx="152" cy="123" r="3" fill="#800080" />
</svg>
