<?xml version="1.0"?>
<svg width="216" height="256">
  <circle cx="108" cy="62" r="13" fill="#800080" />
  <circle cx="55" cy="194" r="12" fill="#800080" />
  <circle cx="152" cy="195" r="12" fill="#800080" />
  <circle cx="16" cy="64" r="11" fill="#800080" />
  <circle cx="22" cy="85" r="11" fill="#800080" />
  <circle cx="28" cy="106" r="11" fill="#800080" />
  <circle cx="35" cy="130" r="11" fill="#800080" />
  <circle cx="184" cy="118" r="11" fill="#800080" />
  <circle cx="190" cy="97" r="11" fill="#800080" />
  <circle cx="196" cy="75" r="11" fill="#800080" />
  <circle cx="41" cy="151" r="10" fill="#800080" />
  <circle cx="46" cy="170" r="10" fill="#800080" />
  <circle cx="167" cy="179" r="10" fill="#800080" />
  <circle cx="172" cy="159" r="10" fill="#800080" />
  <circle cx="177" cy="140" r="10" fill="#800080" />
  <circle cx="76" cy="160" r="9" fill="#800080" />
  <circle cx="71" cy="178" r="9" fill="#800080" />
  <circle cx="80" cy="143" r="9" fill="#800080" />
  <circle cx="85" cy="125" r="9" fill="#800080" />
  <circle cx="90" cy="107" r="9" fill="#800080" />
  <circle cx="95" cy="89" r="9" fill="#800080" />
  <circle cx="119" cy="83" r="9" fill="#800080" />
  <circle cx="123" cy="100" r="9" fill="#800080" />
  <circle cx="128" cy="117" r="9" fill="#800080" />
  <circle cx="132" cy="134" r="9" fill="#800080" />
  <circle cx="137" cy="151" r="9" fill="#800080" />
  <circle cx="142" cy="168" r="9" fill="#800080" />
  <circle cx="204" cy="57" r="8" fill="#800080" />
  <circle cx="95" cy="75" r="5" fill="#800080" />
  <circle cx="70" cy="201" r="5" fill="#800080" />
  <circle cx="71" cy="191" r="5" fill="#800080" />
  <circle cx="141" cy="181" r="5" fill="#800080" />
  <circle cx="168" cy="193" r="5" fill="#800080" />
  <circle cx="6" cy="53" r="4" fill="#800080" />
  <circle cx="43" cy="183" r="4" fill="#800080" />
  <circle cx="103" cy="78" r="4" fill="#800080" />
  <circle cx="149" cy="179" r="4" fill="#800080" />
  <circle cx="166" cy="202" r="4" fill="#800080" />
  <circle cx="193" cy="59" r="4" fill="#800080" />
  <circle cx="25" cy="120" r="3" fill="#800080" />
  <circle cx="12" cy="51" r="3" fill="#800080" />
  <circle cx="17" cy="51" r="3" fill="#800080" />
  <circle cx="31" cy="143" r="3" fill="#800080" />
  <circle cx="37" cy="117" r="3" fill="#800080" />
  <circle cx="46" cy="139" r="3" fill="#800080" />
  <circle cx="54" cy="180" r="3" fill="#800080" />
  <circle cx="121" cy="71" r="3" fill="#800080" />
  <circle cx="173" cy="127" r="3" fill="#800080" />
  <circle cx="177" cy="171" r="3" fill="#800080" />
  <circle cx="185" cy="84" r="3" fill="#800080" />
  <circle cx="187" cy="131" r="3" fill="#800080" />
  <circle cx="194" cy="52" r="3" fill="#800080" />
  <circle cx="201" cy="88" r="3" fill="#800080" />
</svg>
