<?xml version="1.0"?>
<svg width="114" height="256">
  <circle cx="56" cy="146" r="12" fill="#800080" />
  <circle cx="92" cy="94" r="9" fill="#800080" />
  <circle cx="18" cy="198" r="9" fill="#800080" />
  <circle cx="20" cy="93" r="9" fill="#800080" />
  <circle cx="29" cy="183" r="9" fill="#800080" />
  <circle cx="30" cy="108" r="9" fill="#800080" />
  <circle cx="39" cy="168" r="9" fill="#800080" />
  <circle cx="41" cy="124" r="9" fill="#800080" />
  <circle cx="70" cy="162" r="9" fill="#800080" />
  <circle cx="72" cy="124" r="9" fill="#800080" />
  <circle cx="80" cy="177" r="9" fill="#800080" />
  <circle cx="82" cy="109" r="9" fill="#800080" />
  <circle cx="90" cy="192" r="9" fill="#800080" />
  <circle cx="101" cy="201" r="5" fill="#800080" />
  <circle cx="42" cy="155" r="4" fill="#800080" />
  <circle cx="43" cy="136" r="4" fill="#800080" />
  <circle cx="49" cy="160" r="4" fill="#800080" />
  <circle cx="52" cy="131" r="4" fill="#800080" />
  <circle cx="68" cy="136" r="4" fill="#800080" />
  <circle cx="61" cy="131" r="3" fill="#800080" />
  <circle cx="7" cy="204" r="3" fill="#800080" />
  <circle cx="8" cy="87" r="3" fill="#800080" />
  <circle cx="29" cy="194" r="3" fill="#800080" />
  <circle cx="31" cy="97" r="3" fill="#800080" />
  <circle cx="41" cy="113" r="3" fill="#800080" />
  <circle cx="70" cy="151" r="3" fill="#800080" />
  <circle cx="90" cy="203" r="3" fill="#800080" />
  <circle cx="91" cy="181" r="3" fill="#800080" />
  <circle cx="102" cy="87" r="3" fill="#800080" />
</svg>
