<?xml version="1.0"?>
<svg width="152" height="256">
  <circle cx="77" cy="126" r="13" fill="#800080" />
  <circle cx="24" cy="196" r="10" fill="#800080" />
  <circle cx="28" cy="58" r="10" fill="#800080" />
  <circle cx="37" cy="178" r="10" fill="#800080" />
  <circle cx="40" cy="75" r="10" fill="#800080" />
  <circle cx="97" cy="151" r="10" fill="#800080" />
  <circle cx="107" cy="83" r="10" fill="#800080" />
  <circle cx="109" cy="168" r="10" fill="#800080" />
  <circle cx="119" cy="66" r="10" fill="#800080" />
  <circle cx="121" cy="185" r="10" fill="#800080" />
  <circle cx="52" cy="92" r="9" fill="#800080" />
  <circle cx="48" cy="162" r="9" fill="#800080" />
  <circle cx="59" cy="147" r="9" fill="#800080" />
  <circle cx="62" cy="107" r="9" fill="#800080" />
  <circle cx="90" cy="106" r="9" fill="#800080" />
  <circle cx="132" cy="199" r="8" fill="#800080" />
  <circle cx="131" cy="55" r="6" fill="#800080" />
  <circle cx="85" cy="142" r="5" fill="#800080" />
  <circle cx="92" cy="135" r="5" fill="#800080" />
  <circle cx="94" cy="93" r="5" fill="#800080" />
  <circle cx="102" cy="98" r="5" fill="#800080" />
  <circle cx="62" cy="134" r="4" fill="#800080" />
  <circle cx="11" cy="203" r="4" fill="#800080" />
  <circle cx="121" cy="52" r="4" fill="#800080" />
  <circle cx="15" cy="52" r="3" fill="#800080" />
  <circle cx="24" cy="184" r="3" fill="#800080" />
  <circle cx="28" cy="70" r="3" fill="#800080" />
  <circle cx="36" cy="190" r="3" fill="#800080" />
  <circle cx="37" cy="166" r="3" fill="#800080" />
  <circle cx="40" cy="63" r="3" fill="#800080" />
  <circle cx="40" cy="87" r="3" fill="#800080" />
  <circle cx="48" cy="151" r="3" fill="#800080" />
  <circle cx="49" cy="173" r="3" fill="#800080" />
  <circle cx="52" cy="80" r="3" fill="#800080" />
  <circle cx="59" cy="158" r="3" fill="#800080" />
  <circle cx="63" cy="96" r="3" fill="#800080" />
  <circle cx="63" cy="118" r="3" fill="#800080" />
  <circle cx="68" cy="139" r="3" fill="#800080" />
  <circle cx="73" cy="110" r="3" fill="#800080" />
  <circle cx="90" cy="117" r="3" fill="#800080" />
  <circle cx="97" cy="163" r="3" fill="#800080" />
  <circle cx="107" cy="71" r="3" fill="#800080" />
  <circle cx="109" cy="156" r="3" fill="#800080" />
  <circle cx="109" cy="180" r="3" fill="#800080" />
  <circle cx="119" cy="78" r="3" fill="#800080" />
  <circle cx="120" cy="197" r="3" fill="#800080" />
  <circle cx="121" cy="173" r="3" fill="#800080" />
  <circle cx="142" cy="203" r="3" fill="#800080" />
</svg>
