<?xml version="1.0"?>
<svg width="152" height="256">
  <circle cx="76" cy="135" r="13" fill="#800080" />
  <circle cx="75" cy="158" r="11" fill="#800080" />
  <circle cx="75" cy="179" r="11" fill="#800080" />
  <circle cx="23" cy="59" r="10" fill="#800080" />
  <circle cx="34" cy="76" r="10" fill="#800080" />
  <circle cx="45" cy="93" r="10" fill="#800080" />
  <circle cx="56" cy="110" r="10" fill="#800080" />
  <circle cx="92" cy="116" r="10" fill="#800080" />
  <circle cx="103" cy="99" r="10" fill="#800080" />
  <circle cx="114" cy="82" r="10" fill="#800080" />
  <circle cx="125" cy="64" r="10" fill="#800080" />
  <circle cx="73" cy="198" r="9" fill="#800080" />
  <circle cx="137" cy="54" r="5" fill="#800080" />
  <circle cx="59" cy="124" r="5" fill="#800080" />
  <circle cx="68" cy="119" r="5" fill="#800080" />
  <circle cx="11" cy="52" r="4" fill="#800080" />
  <circle cx="83" cy="191" r="3" fill="#800080" />
  <circle cx="22" cy="71" r="3" fill="#800080" />
  <circle cx="33" cy="88" r="3" fill="#800080" />
  <circle cx="35" cy="64" r="3" fill="#800080" />
  <circle cx="44" cy="105" r="3" fill="#800080" />
  <circle cx="46" cy="81" r="3" fill="#800080" />
  <circle cx="84" cy="196" r="3" fill="#800080" />
  <circle cx="84" cy="201" r="3" fill="#800080" />
  <circle cx="90" cy="128" r="3" fill="#800080" />
  <circle cx="113" cy="70" r="3" fill="#800080" />
  <circle cx="125" cy="51" r="3" fill="#800080" />
  <circle cx="126" cy="76" r="3" fill="#800080" />
  <circle cx="130" cy="51" r="3" fill="#800080" />
</svg>
