<?xml version="1.0"?>
<svg width="114" height="256">
  <circle cx="57" cy="195" r="13" fill="#800080" />
  <circle cx="15" cy="96" r="10" fill="#800080" />
  <circle cx="22" cy="115" r="10" fill="#800080" />
  <circle cx="30" cy="134" r="10" fill="#800080" />
  <circle cx="37" cy="153" r="10" fill="#800080" />
  <circle cx="90" cy="121" r="10" fill="#800080" />
  <circle cx="97" cy="101" r="10" fill="#800080" />
  <circle cx="40" cy="237" r="9" fill="#800080" />
  <circle cx="16" cy="246" r="9" fill="#800080" />
  <circle cx="44" cy="171" r="9" fill="#800080" />
  <circle cx="51" cy="221" r="9" fill="#800080" />
  <circle cx="71" cy="173" r="9" fill="#800080" />
  <circle cx="77" cy="156" r="9" fill="#800080" />
  <circle cx="83" cy="139" r="9" fill="#800080" />
  <circle cx="30" cy="247" r="5" fill="#800080" />
  <circle cx="105" cy="89" r="5" fill="#800080" />
  <circle cx="61" cy="212" r="4" fill="#800080" />
  <circle cx="28" cy="239" r="4" fill="#800080" />
  <circle cx="43" cy="183" r="4" fill="#800080" />
  <circle cx="71" cy="185" r="4" fill="#800080" />
  <circle cx="95" cy="88" r="4" fill="#800080" />
  <circle cx="4" cy="88" r="3" fill="#800080" />
  <circle cx="19" cy="127" r="3" fill="#800080" />
  <circle cx="26" cy="103" r="3" fill="#800080" />
  <circle cx="33" cy="122" r="3" fill="#800080" />
  <circle cx="49" cy="209" r="3" fill="#800080" />
  <circle cx="51" cy="232" r="3" fill="#800080" />
  <circle cx="52" cy="180" r="3" fill="#800080" />
  <circle cx="54" cy="210" r="3" fill="#800080" />
  <circle cx="87" cy="109" r="3" fill="#800080" />
  <circle cx="100" cy="113" r="3" fill="#800080" />
</svg>
