<?xml version="1.0"?>
<svg width="139" height="256">
  <circle cx="20" cy="194" r="13" fill="#800080" />
  <circle cx="113" cy="61" r="13" fill="#800080" />
  <circle cx="31" cy="174" r="9" fill="#800080" />
  <circle cx="23" cy="57" r="9" fill="#800080" />
  <circle cx="40" cy="57" r="9" fill="#800080" />
  <circle cx="41" cy="197" r="9" fill="#800080" />
  <circle cx="42" cy="159" r="9" fill="#800080" />
  <circle cx="53" cy="144" r="9" fill="#800080" />
  <circle cx="57" cy="57" r="9" fill="#800080" />
  <circle cx="58" cy="197" r="9" fill="#800080" />
  <circle cx="64" cy="130" r="9" fill="#800080" />
  <circle cx="74" cy="57" r="9" fill="#800080" />
  <circle cx="75" cy="116" r="9" fill="#800080" />
  <circle cx="75" cy="197" r="9" fill="#800080" />
  <circle cx="86" cy="102" r="9" fill="#800080" />
  <circle cx="91" cy="57" r="9" fill="#800080" />
  <circle cx="92" cy="197" r="9" fill="#800080" />
  <circle cx="97" cy="88" r="9" fill="#800080" />
  <circle cx="109" cy="197" r="9" fill="#800080" />
  <circle cx="125" cy="196" r="8" fill="#800080" />
  <circle cx="109" cy="79" r="6" fill="#800080" />
  <circle cx="100" cy="75" r="4" fill="#800080" />
  <circle cx="19" cy="179" r="3" fill="#800080" />
  <circle cx="31" cy="163" r="3" fill="#800080" />
  <circle cx="42" cy="170" r="3" fill="#800080" />
  <circle cx="53" cy="155" r="3" fill="#800080" />
  <circle cx="64" cy="141" r="3" fill="#800080" />
  <circle cx="75" cy="127" r="3" fill="#800080" />
  <circle cx="86" cy="113" r="3" fill="#800080" />
  <circle cx="97" cy="99" r="3" fill="#800080" />
</svg>
