<?xml version="1.0"?>
<svg width="114" height="256">
  <circle cx="87" cy="98" r="13" fill="#800080" />
  <circle cx="22" cy="194" r="13" fill="#800080" />
  <circle cx="35" cy="172" r="10" fill="#800080" />
  <circle cx="47" cy="156" r="10" fill="#800080" />
  <circle cx="59" cy="140" r="10" fill="#800080" />
  <circle cx="71" cy="124" r="10" fill="#800080" />
  <circle cx="21" cy="93" r="9" fill="#800080" />
  <circle cx="38" cy="93" r="9" fill="#800080" />
  <circle cx="55" cy="93" r="9" fill="#800080" />
  <circle cx="42" cy="198" r="8" fill="#800080" />
  <circle cx="57" cy="198" r="8" fill="#800080" />
  <circle cx="72" cy="198" r="8" fill="#800080" />
  <circle cx="87" cy="198" r="8" fill="#800080" />
  <circle cx="69" cy="90" r="6" fill="#800080" />
  <circle cx="83" cy="115" r="5" fill="#800080" />
  <circle cx="99" cy="195" r="5" fill="#800080" />
  <circle cx="74" cy="110" r="4" fill="#800080" />
  <circle cx="98" cy="203" r="4" fill="#800080" />
  <circle cx="22" cy="178" r="3" fill="#800080" />
  <circle cx="35" cy="160" r="3" fill="#800080" />
  <circle cx="35" cy="184" r="3" fill="#800080" />
  <circle cx="47" cy="144" r="3" fill="#800080" />
  <circle cx="47" cy="168" r="3" fill="#800080" />
  <circle cx="59" cy="128" r="3" fill="#800080" />
  <circle cx="59" cy="152" r="3" fill="#800080" />
  <circle cx="66" cy="98" r="3" fill="#800080" />
  <circle cx="71" cy="98" r="3" fill="#800080" />
  <circle cx="71" cy="136" r="3" fill="#800080" />
</svg>
