<?xml version="1.0"?>
<svg width="135" height="256">
  <circle cx="67" cy="112" r="14" fill="#800080" />
  <circle cx="23" cy="106" r="11" fill="#800080" />
  <circle cx="24" cy="127" r="11" fill="#800080" />
  <circle cx="110" cy="92" r="11" fill="#800080" />
  <circle cx="111" cy="113" r="11" fill="#800080" />
  <circle cx="26" cy="81" r="10" fill="#800080" />
  <circle cx="27" cy="147" r="10" fill="#800080" />
  <circle cx="33" cy="62" r="10" fill="#800080" />
  <circle cx="99" cy="59" r="10" fill="#800080" />
  <circle cx="103" cy="159" r="10" fill="#800080" />
  <circle cx="108" cy="140" r="10" fill="#800080" />
  <circle cx="35" cy="166" r="9" fill="#800080" />
  <circle cx="47" cy="49" r="9" fill="#800080" />
  <circle cx="49" cy="178" r="9" fill="#800080" />
  <circle cx="64" cy="45" r="9" fill="#800080" />
  <circle cx="66" cy="181" r="9" fill="#800080" />
  <circle cx="83" cy="47" r="9" fill="#800080" />
  <circle cx="85" cy="178" r="9" fill="#800080" />
  <circle cx="109" cy="74" r="8" fill="#800080" />
  <circle cx="98" cy="173" r="5" fill="#800080" />
  <circle cx="116" cy="128" r="5" fill="#800080" />
  <circle cx="18" cy="92" r="4" fill="#800080" />
  <circle cx="92" cy="167" r="4" fill="#800080" />
  <circle cx="104" cy="126" r="4" fill="#800080" />
</svg>
