<?xml version="1.0"?>
<svg width="135" height="256">
  <circle cx="29" cy="175" r="13" fill="#800080" />
  <circle cx="104" cy="64" r="11" fill="#800080" />
  <circle cx="30" cy="67" r="10" fill="#800080" />
  <circle cx="97" cy="102" r="10" fill="#800080" />
  <circle cx="106" cy="84" r="10" fill="#800080" />
  <circle cx="43" cy="51" r="9" fill="#800080" />
  <circle cx="39" cy="155" r="9" fill="#800080" />
  <circle cx="50" cy="179" r="9" fill="#800080" />
  <circle cx="52" cy="143" r="9" fill="#800080" />
  <circle cx="60" cy="45" r="9" fill="#800080" />
  <circle cx="66" cy="131" r="9" fill="#800080" />
  <circle cx="67" cy="179" r="9" fill="#800080" />
  <circle cx="80" cy="46" r="9" fill="#800080" />
  <circle cx="80" cy="119" r="9" fill="#800080" />
  <circle cx="84" cy="179" r="9" fill="#800080" />
  <circle cx="101" cy="179" r="9" fill="#800080" />
  <circle cx="95" cy="49" r="6" fill="#800080" />
  <circle cx="114" cy="175" r="5" fill="#800080" />
  <circle cx="30" cy="54" r="4" fill="#800080" />
  <circle cx="92" cy="115" r="4" fill="#800080" />
  <circle cx="113" cy="183" r="4" fill="#800080" />
</svg>
