<?xml version="1.0"?>
<svg width="135" height="256">
  <circle cx="103" cy="62" r="11" fill="#800080" />
  <circle cx="108" cy="160" r="11" fill="#800080" />
  <circle cx="27" cy="158" r="10" fill="#800080" />
  <circle cx="28" cy="68" r="10" fill="#800080" />
  <circle cx="69" cy="112" r="10" fill="#800080" />
  <circle cx="104" cy="85" r="10" fill="#800080" />
  <circle cx="107" cy="134" r="10" fill="#800080" />
  <circle cx="40" cy="174" r="9" fill="#800080" />
  <circle cx="40" cy="52" r="9" fill="#800080" />
  <circle cx="58" cy="181" r="9" fill="#800080" />
  <circle cx="59" cy="45" r="9" fill="#800080" />
  <circle cx="75" cy="181" r="9" fill="#800080" />
  <circle cx="76" cy="45" r="9" fill="#800080" />
  <circle cx="92" cy="176" r="9" fill="#800080" />
  <circle cx="93" cy="100" r="8" fill="#800080" />
  <circle cx="93" cy="121" r="8" fill="#800080" />
  <circle cx="92" cy="47" r="7" fill="#800080" />
  <circle cx="116" cy="146" r="5" fill="#800080" />
  <circle cx="55" cy="107" r="5" fill="#800080" />
  <circle cx="55" cy="116" r="5" fill="#800080" />
  <circle cx="81" cy="104" r="5" fill="#800080" />
  <circle cx="105" cy="175" r="5" fill="#800080" />
  <circle cx="83" cy="113" r="4" fill="#800080" />
  <circle cx="27" cy="171" r="4" fill="#800080" />
  <circle cx="80" cy="120" r="4" fill="#800080" />
  <circle cx="112" cy="74" r="4" fill="#800080" />
</svg>
