<?xml version="1.0"?>
<svg width="135" height="256">
  <circle cx="90" cy="52" r="13" fill="#800080" />
  <circle cx="93" cy="143" r="13" fill="#800080" />
  <circle cx="93" cy="75" r="11" fill="#800080" />
  <circle cx="93" cy="96" r="11" fill="#800080" />
  <circle cx="93" cy="117" r="11" fill="#800080" />
  <circle cx="93" cy="166" r="11" fill="#800080" />
  <circle cx="21" cy="142" r="10" fill="#800080" />
  <circle cx="38" cy="144" r="8" fill="#800080" />
  <circle cx="53" cy="144" r="8" fill="#800080" />
  <circle cx="68" cy="144" r="8" fill="#800080" />
  <circle cx="113" cy="144" r="8" fill="#800080" />
  <circle cx="30" cy="122" r="7" fill="#800080" />
  <circle cx="38" cy="110" r="7" fill="#800080" />
  <circle cx="46" cy="98" r="7" fill="#800080" />
  <circle cx="54" cy="87" r="7" fill="#800080" />
  <circle cx="62" cy="76" r="7" fill="#800080" />
  <circle cx="70" cy="65" r="7" fill="#800080" />
  <circle cx="88" cy="182" r="6" fill="#800080" />
  <circle cx="98" cy="181" r="5" fill="#800080" />
  <circle cx="21" cy="128" r="4" fill="#800080" />
  <circle cx="73" cy="55" r="4" fill="#800080" />
  <circle cx="78" cy="149" r="3" fill="#800080" />
  <circle cx="28" cy="131" r="3" fill="#800080" />
  <circle cx="78" cy="139" r="3" fill="#800080" />
  <circle cx="78" cy="144" r="3" fill="#800080" />
  <circle cx="85" cy="129" r="3" fill="#800080" />
  <circle cx="100" cy="129" r="3" fill="#800080" />
  <circle cx="122" cy="150" r="3" fill="#800080" />
</svg>
