<?xml version="1.0"?>
<svg width="135" height="256">
  <circle cx="29" cy="118" r="13" fill="#800080" />
  <circle cx="110" cy="132" r="11" fill="#800080" />
  <circle cx="105" cy="162" r="10" fill="#800080" />
  <circle cx="27" cy="93" r="10" fill="#800080" />
  <circle cx="28" cy="140" r="10" fill="#800080" />
  <circle cx="100" cy="110" r="10" fill="#800080" />
  <circle cx="101" cy="58" r="10" fill="#800080" />
  <circle cx="39" cy="167" r="9" fill="#800080" />
  <circle cx="31" cy="75" r="9" fill="#800080" />
  <circle cx="40" cy="59" r="9" fill="#800080" />
  <circle cx="55" cy="179" r="9" fill="#800080" />
  <circle cx="57" cy="47" r="9" fill="#800080" />
  <circle cx="76" cy="181" r="9" fill="#800080" />
  <circle cx="77" cy="45" r="9" fill="#800080" />
  <circle cx="81" cy="99" r="9" fill="#800080" />
  <circle cx="93" cy="176" r="8" fill="#800080" />
  <circle cx="62" cy="99" r="8" fill="#800080" />
  <circle cx="46" cy="107" r="7" fill="#800080" />
  <circle cx="29" cy="156" r="6" fill="#800080" />
  <circle cx="91" cy="45" r="6" fill="#800080" />
  <circle cx="113" cy="148" r="6" fill="#800080" />
  <circle cx="112" cy="117" r="4" fill="#800080" />
  <circle cx="38" cy="153" r="4" fill="#800080" />
  <circle cx="43" cy="179" r="4" fill="#800080" />
  <circle cx="45" cy="47" r="4" fill="#800080" />
  <circle cx="93" cy="98" r="4" fill="#800080" />
  <circle cx="103" cy="145" r="4" fill="#800080" />
  <circle cx="20" cy="104" r="3" fill="#800080" />
  <circle cx="52" cy="98" r="3" fill="#800080" />
  <circle cx="64" cy="187" r="3" fill="#800080" />
  <circle cx="66" cy="39" r="3" fill="#800080" />
  <circle cx="86" cy="53" r="3" fill="#800080" />
  <circle cx="87" cy="185" r="3" fill="#800080" />
  <circle cx="99" cy="46" r="3" fill="#800080" />
  <circle cx="99" cy="122" r="3" fill="#800080" />
  <circle cx="103" cy="174" r="3" fill="#800080" />
  <circle cx="111" cy="66" r="3" fill="#800080" />
</svg>
