<?xml version="1.0"?>
<svg width="135" height="256">
  <circle cx="106" cy="50" r="11" fill="#800080" />
  <circle cx="55" cy="176" r="11" fill="#800080" />
  <circle cx="59" cy="154" r="10" fill="#800080" />
  <circle cx="65" cy="133" r="10" fill="#800080" />
  <circle cx="73" cy="113" r="9" fill="#800080" />
  <circle cx="25" cy="47" r="9" fill="#800080" />
  <circle cx="42" cy="47" r="9" fill="#800080" />
  <circle cx="59" cy="47" r="9" fill="#800080" />
  <circle cx="76" cy="47" r="9" fill="#800080" />
  <circle cx="82" cy="95" r="9" fill="#800080" />
  <circle cx="92" cy="78" r="8" fill="#800080" />
  <circle cx="101" cy="67" r="6" fill="#800080" />
  <circle cx="90" cy="44" r="6" fill="#800080" />
  <circle cx="63" cy="120" r="3" fill="#800080" />
  <circle cx="49" cy="162" r="3" fill="#800080" />
  <circle cx="54" cy="142" r="3" fill="#800080" />
  <circle cx="65" cy="166" r="3" fill="#800080" />
  <circle cx="69" cy="145" r="3" fill="#800080" />
  <circle cx="72" cy="102" r="3" fill="#800080" />
  <circle cx="75" cy="124" r="3" fill="#800080" />
  <circle cx="82" cy="83" r="3" fill="#800080" />
  <circle cx="83" cy="106" r="3" fill="#800080" />
  <circle cx="87" cy="52" r="3" fill="#800080" />
  <circle cx="92" cy="52" r="3" fill="#800080" />
  <circle cx="92" cy="68" r="3" fill="#800080" />
  <circle cx="92" cy="88" r="3" fill="#800080" />
</svg>
