<?xml version="1.0"?>
<svg width="135" height="256">
  <circle cx="105" cy="67" r="11" fill="#800080" />
  <circle cx="25" cy="140" r="11" fill="#800080" />
  <circle cx="28" cy="72" r="11" fill="#800080" />
  <circle cx="109" cy="138" r="11" fill="#800080" />
  <circle cx="28" cy="162" r="10" fill="#800080" />
  <circle cx="53" cy="109" r="10" fill="#800080" />
  <circle cx="81" cy="109" r="10" fill="#800080" />
  <circle cx="102" cy="169" r="10" fill="#800080" />
  <circle cx="103" cy="89" r="10" fill="#800080" />
  <circle cx="33" cy="92" r="9" fill="#800080" />
  <circle cx="37" cy="54" r="9" fill="#800080" />
  <circle cx="41" cy="176" r="9" fill="#800080" />
  <circle cx="93" cy="51" r="9" fill="#800080" />
  <circle cx="34" cy="122" r="8" fill="#800080" />
  <circle cx="52" cy="45" r="8" fill="#800080" />
  <circle cx="57" cy="181" r="8" fill="#800080" />
  <circle cx="67" cy="43" r="8" fill="#800080" />
  <circle cx="72" cy="182" r="8" fill="#800080" />
  <circle cx="87" cy="179" r="8" fill="#800080" />
  <circle cx="98" cy="120" r="8" fill="#800080" />
  <circle cx="111" cy="155" r="7" fill="#800080" />
  <circle cx="80" cy="43" r="6" fill="#800080" />
  <circle cx="94" cy="101" r="5" fill="#800080" />
  <circle cx="67" cy="106" r="5" fill="#800080" />
  <circle cx="40" cy="103" r="4" fill="#800080" />
  <circle cx="101" cy="156" r="4" fill="#800080" />
  <circle cx="105" cy="53" r="4" fill="#800080" />
  <circle cx="109" cy="123" r="4" fill="#800080" />
  <circle cx="18" cy="153" r="3" fill="#800080" />
  <circle cx="22" cy="85" r="3" fill="#800080" />
  <circle cx="22" cy="127" r="3" fill="#800080" />
  <circle cx="24" cy="59" r="3" fill="#800080" />
  <circle cx="28" cy="174" r="3" fill="#800080" />
  <circle cx="40" cy="113" r="3" fill="#800080" />
  <circle cx="44" cy="97" r="3" fill="#800080" />
  <circle cx="44" cy="119" r="3" fill="#800080" />
  <circle cx="65" cy="113" r="3" fill="#800080" />
  <circle cx="80" cy="51" r="3" fill="#800080" />
  <circle cx="97" cy="181" r="3" fill="#800080" />
  <circle cx="101" cy="101" r="3" fill="#800080" />
  <circle cx="101" cy="150" r="3" fill="#800080" />
  <circle cx="112" cy="79" r="3" fill="#800080" />
  <circle cx="114" cy="164" r="3" fill="#800080" />
</svg>
