<?xml version="1.0"?>
<svg width="135" height="256">
  <circle cx="107" cy="107" r="13" fill="#800080" />
  <circle cx="25" cy="86" r="11" fill="#800080" />
  <circle cx="29" cy="107" r="10" fill="#800080" />
  <circle cx="29" cy="66" r="10" fill="#800080" />
  <circle cx="32" cy="166" r="10" fill="#800080" />
  <circle cx="89" cy="51" r="10" fill="#800080" />
  <circle cx="99" cy="161" r="10" fill="#800080" />
  <circle cx="102" cy="66" r="10" fill="#800080" />
  <circle cx="107" cy="85" r="10" fill="#800080" />
  <circle cx="107" cy="136" r="10" fill="#800080" />
  <circle cx="42" cy="123" r="9" fill="#800080" />
  <circle cx="42" cy="51" r="9" fill="#800080" />
  <circle cx="47" cy="179" r="9" fill="#800080" />
  <circle cx="59" cy="45" r="9" fill="#800080" />
  <circle cx="69" cy="181" r="9" fill="#800080" />
  <circle cx="86" cy="175" r="9" fill="#800080" />
  <circle cx="62" cy="130" r="8" fill="#800080" />
  <circle cx="77" cy="128" r="7" fill="#800080" />
  <circle cx="74" cy="43" r="7" fill="#800080" />
  <circle cx="89" cy="121" r="7" fill="#800080" />
  <circle cx="109" cy="150" r="5" fill="#800080" />
  <circle cx="114" cy="123" r="5" fill="#800080" />
  <circle cx="50" cy="133" r="4" fill="#800080" />
  <circle cx="29" cy="120" r="4" fill="#800080" />
  <circle cx="35" cy="179" r="4" fill="#800080" />
  <circle cx="98" cy="148" r="4" fill="#800080" />
  <circle cx="103" cy="123" r="4" fill="#800080" />
  <circle cx="30" cy="53" r="3" fill="#800080" />
  <circle cx="18" cy="98" r="3" fill="#800080" />
  <circle cx="21" cy="159" r="3" fill="#800080" />
  <circle cx="53" cy="122" r="3" fill="#800080" />
  <circle cx="56" cy="187" r="3" fill="#800080" />
  <circle cx="58" cy="175" r="3" fill="#800080" />
  <circle cx="58" cy="180" r="3" fill="#800080" />
  <circle cx="76" cy="52" r="3" fill="#800080" />
  <circle cx="97" cy="173" r="3" fill="#800080" />
  <circle cx="101" cy="52" r="3" fill="#800080" />
  <circle cx="117" cy="94" r="3" fill="#800080" />
</svg>
