<?xml version="1.0"?>
<svg width="135" height="256">
  <circle cx="79" cy="35" r="11" fill="#800080" />
  <circle cx="79" cy="223" r="11" fill="#800080" />
  <circle cx="80" cy="56" r="11" fill="#800080" />
  <circle cx="80" cy="77" r="11" fill="#800080" />
  <circle cx="80" cy="98" r="11" fill="#800080" />
  <circle cx="80" cy="119" r="11" fill="#800080" />
  <circle cx="80" cy="140" r="11" fill="#800080" />
  <circle cx="80" cy="161" r="11" fill="#800080" />
  <circle cx="80" cy="182" r="11" fill="#800080" />
  <circle cx="79" cy="202" r="10" fill="#800080" />
  <circle cx="36" cy="31" r="8" fill="#800080" />
  <circle cx="36" cy="226" r="8" fill="#800080" />
  <circle cx="51" cy="31" r="8" fill="#800080" />
  <circle cx="51" cy="226" r="8" fill="#800080" />
  <circle cx="64" cy="29" r="5" fill="#800080" />
  <circle cx="63" cy="223" r="5" fill="#800080" />
  <circle cx="62" cy="231" r="4" fill="#800080" />
  <circle cx="61" cy="36" r="3" fill="#800080" />
  <circle cx="66" cy="36" r="3" fill="#800080" />
  <circle cx="68" cy="232" r="3" fill="#800080" />
  <circle cx="88" cy="212" r="3" fill="#800080" />
</svg>
