<?xml version="1.0"?>
<svg width="135" height="256">
  <circle cx="47" cy="126" r="11" fill="#800080" />
  <circle cx="49" cy="104" r="11" fill="#800080" />
  <circle cx="49" cy="148" r="11" fill="#800080" />
  <circle cx="52" cy="169" r="10" fill="#800080" />
  <circle cx="53" cy="84" r="10" fill="#800080" />
  <circle cx="59" cy="189" r="10" fill="#800080" />
  <circle cx="61" cy="65" r="10" fill="#800080" />
  <circle cx="68" cy="207" r="9" fill="#800080" />
  <circle cx="70" cy="48" r="9" fill="#800080" />
  <circle cx="78" cy="222" r="9" fill="#800080" />
  <circle cx="81" cy="32" r="9" fill="#800080" />
  <circle cx="89" cy="230" r="5" fill="#800080" />
  <circle cx="92" cy="27" r="3" fill="#800080" />
  <circle cx="42" cy="160" r="3" fill="#800080" />
  <circle cx="48" cy="181" r="3" fill="#800080" />
  <circle cx="50" cy="72" r="3" fill="#800080" />
  <circle cx="57" cy="201" r="3" fill="#800080" />
  <circle cx="62" cy="177" r="3" fill="#800080" />
  <circle cx="64" cy="77" r="3" fill="#800080" />
  <circle cx="70" cy="37" r="3" fill="#800080" />
  <circle cx="70" cy="196" r="3" fill="#800080" />
  <circle cx="81" cy="43" r="3" fill="#800080" />
</svg>
