<?xml version="1.0"?>
<svg width="135" height="256">
  <circle cx="59" cy="175" r="11" fill="#800080" />
  <circle cx="107" cy="70" r="11" fill="#800080" />
  <circle cx="24" cy="68" r="10" fill="#800080" />
  <circle cx="61" cy="138" r="10" fill="#800080" />
  <circle cx="102" cy="96" r="10" fill="#800080" />
  <circle cx="94" cy="52" r="9" fill="#800080" />
  <circle cx="36" cy="53" r="9" fill="#800080" />
  <circle cx="53" cy="46" r="9" fill="#800080" />
  <circle cx="70" cy="45" r="9" fill="#800080" />
  <circle cx="73" cy="122" r="9" fill="#800080" />
  <circle cx="88" cy="110" r="8" fill="#800080" />
  <circle cx="83" cy="43" r="5" fill="#800080" />
  <circle cx="112" cy="85" r="5" fill="#800080" />
  <circle cx="107" cy="55" r="4" fill="#800080" />
  <circle cx="14" cy="78" r="4" fill="#800080" />
  <circle cx="81" cy="52" r="4" fill="#800080" />
  <circle cx="100" cy="83" r="4" fill="#800080" />
  <circle cx="24" cy="55" r="3" fill="#800080" />
  <circle cx="20" cy="80" r="3" fill="#800080" />
  <circle cx="25" cy="80" r="3" fill="#800080" />
  <circle cx="60" cy="126" r="3" fill="#800080" />
  <circle cx="77" cy="111" r="3" fill="#800080" />
  <circle cx="84" cy="120" r="3" fill="#800080" />
  <circle cx="98" cy="108" r="3" fill="#800080" />
</svg>
