<?xml version="1.0"?>
<svg width="135" height="256">
  <circle cx="98" cy="156" r="12" fill="#800080" />
  <circle cx="98" cy="122" r="12" fill="#800080" />
  <circle cx="26" cy="166" r="11" fill="#800080" />
  <circle cx="26" cy="142" r="11" fill="#800080" />
  <circle cx="99" cy="99" r="11" fill="#800080" />
  <circle cx="33" cy="88" r="10" fill="#800080" />
  <circle cx="104" cy="177" r="10" fill="#800080" />
  <circle cx="89" cy="80" r="9" fill="#800080" />
  <circle cx="40" cy="180" r="9" fill="#800080" />
  <circle cx="40" cy="127" r="8" fill="#800080" />
  <circle cx="47" cy="76" r="8" fill="#800080" />
  <circle cx="55" cy="123" r="8" fill="#800080" />
  <circle cx="56" cy="182" r="8" fill="#800080" />
  <circle cx="62" cy="73" r="8" fill="#800080" />
  <circle cx="70" cy="122" r="8" fill="#800080" />
  <circle cx="70" cy="178" r="7" fill="#800080" />
  <circle cx="120" cy="181" r="7" fill="#800080" />
  <circle cx="104" cy="139" r="6" fill="#800080" />
  <circle cx="75" cy="72" r="6" fill="#800080" />
  <circle cx="80" cy="170" r="5" fill="#800080" />
  <circle cx="82" cy="119" r="5" fill="#800080" />
  <circle cx="94" cy="138" r="5" fill="#800080" />
  <circle cx="17" cy="154" r="4" fill="#800080" />
  <circle cx="27" cy="180" r="4" fill="#800080" />
  <circle cx="28" cy="128" r="4" fill="#800080" />
  <circle cx="101" cy="84" r="4" fill="#800080" />
</svg>
