<?xml version="1.0"?>
<svg width="135" height="256">
  <circle cx="103" cy="135" r="12" fill="#800080" />
  <circle cx="32" cy="133" r="12" fill="#800080" />
  <circle cx="14" cy="177" r="10" fill="#800080" />
  <circle cx="21" cy="157" r="10" fill="#800080" />
  <circle cx="38" cy="112" r="10" fill="#800080" />
  <circle cx="61" cy="51" r="10" fill="#800080" />
  <circle cx="96" cy="109" r="10" fill="#800080" />
  <circle cx="112" cy="155" r="10" fill="#800080" />
  <circle cx="119" cy="174" r="10" fill="#800080" />
  <circle cx="45" cy="93" r="9" fill="#800080" />
  <circle cx="51" cy="75" r="9" fill="#800080" />
  <circle cx="52" cy="137" r="9" fill="#800080" />
  <circle cx="69" cy="137" r="9" fill="#800080" />
  <circle cx="78" cy="60" r="9" fill="#800080" />
  <circle cx="84" cy="77" r="9" fill="#800080" />
  <circle cx="88" cy="93" r="8" fill="#800080" />
  <circle cx="84" cy="135" r="7" fill="#800080" />
  <circle cx="76" cy="45" r="6" fill="#800080" />
  <circle cx="60" cy="65" r="5" fill="#800080" />
  <circle cx="51" cy="62" r="4" fill="#800080" />
  <circle cx="20" cy="143" r="4" fill="#800080" />
  <circle cx="32" cy="148" r="4" fill="#800080" />
  <circle cx="94" cy="122" r="4" fill="#800080" />
  <circle cx="104" cy="120" r="4" fill="#800080" />
  <circle cx="129" cy="184" r="4" fill="#800080" />
</svg>
