<?xml version="1.0"?>
<svg width="135" height="256">
  <circle cx="29" cy="109" r="13" fill="#800080" />
  <circle cx="28" cy="50" r="12" fill="#800080" />
  <circle cx="28" cy="175" r="12" fill="#800080" />
  <circle cx="102" cy="60" r="11" fill="#800080" />
  <circle cx="27" cy="72" r="11" fill="#800080" />
  <circle cx="27" cy="132" r="11" fill="#800080" />
  <circle cx="27" cy="153" r="11" fill="#800080" />
  <circle cx="106" cy="81" r="11" fill="#800080" />
  <circle cx="110" cy="164" r="11" fill="#800080" />
  <circle cx="115" cy="137" r="11" fill="#800080" />
  <circle cx="81" cy="109" r="10" fill="#800080" />
  <circle cx="82" cy="49" r="9" fill="#800080" />
  <circle cx="48" cy="47" r="9" fill="#800080" />
  <circle cx="48" cy="179" r="9" fill="#800080" />
  <circle cx="50" cy="109" r="9" fill="#800080" />
  <circle cx="65" cy="47" r="9" fill="#800080" />
  <circle cx="65" cy="179" r="9" fill="#800080" />
  <circle cx="82" cy="178" r="9" fill="#800080" />
  <circle cx="96" cy="98" r="8" fill="#800080" />
  <circle cx="102" cy="120" r="8" fill="#800080" />
  <circle cx="24" cy="90" r="7" fill="#800080" />
  <circle cx="65" cy="107" r="7" fill="#800080" />
  <circle cx="97" cy="176" r="7" fill="#800080" />
  <circle cx="121" cy="152" r="5" fill="#800080" />
  <circle cx="34" cy="85" r="4" fill="#800080" />
  <circle cx="34" cy="92" r="4" fill="#800080" />
  <circle cx="94" cy="47" r="4" fill="#800080" />
  <circle cx="107" cy="95" r="4" fill="#800080" />
  <circle cx="108" cy="150" r="4" fill="#800080" />
  <circle cx="113" cy="122" r="4" fill="#800080" />
  <circle cx="91" cy="118" r="3" fill="#800080" />
  <circle cx="60" cy="116" r="3" fill="#800080" />
  <circle cx="65" cy="116" r="3" fill="#800080" />
  <circle cx="70" cy="116" r="3" fill="#800080" />
  <circle cx="93" cy="112" r="3" fill="#800080" />
  <circle cx="96" cy="167" r="3" fill="#800080" />
  <circle cx="106" cy="177" r="3" fill="#800080" />
  <circle cx="113" cy="69" r="3" fill="#800080" />
  <circle cx="114" cy="150" r="3" fill="#800080" />
</svg>
