<?xml version="1.0"?>
<svg width="135" height="256">
  <circle cx="32" cy="96" r="13" fill="#800080" />
  <circle cx="32" cy="160" r="13" fill="#800080" />
  <circle cx="106" cy="99" r="11" fill="#800080" />
  <circle cx="30" cy="34" r="11" fill="#800080" />
  <circle cx="30" cy="55" r="11" fill="#800080" />
  <circle cx="30" cy="119" r="11" fill="#800080" />
  <circle cx="108" cy="146" r="11" fill="#800080" />
  <circle cx="109" cy="120" r="11" fill="#800080" />
  <circle cx="101" cy="168" r="10" fill="#800080" />
  <circle cx="93" cy="79" r="10" fill="#800080" />
  <circle cx="28" cy="74" r="9" fill="#800080" />
  <circle cx="28" cy="138" r="9" fill="#800080" />
  <circle cx="83" cy="181" r="8" fill="#800080" />
  <circle cx="27" cy="180" r="8" fill="#800080" />
  <circle cx="63" cy="75" r="8" fill="#800080" />
  <circle cx="68" cy="182" r="8" fill="#800080" />
  <circle cx="77" cy="72" r="7" fill="#800080" />
  <circle cx="53" cy="177" r="6" fill="#800080" />
  <circle cx="48" cy="84" r="6" fill="#800080" />
  <circle cx="95" cy="181" r="4" fill="#800080" />
  <circle cx="45" cy="171" r="4" fill="#800080" />
  <circle cx="106" cy="83" r="4" fill="#800080" />
  <circle cx="112" cy="160" r="4" fill="#800080" />
  <circle cx="116" cy="133" r="4" fill="#800080" />
  <circle cx="38" cy="145" r="3" fill="#800080" />
  <circle cx="37" cy="175" r="3" fill="#800080" />
  <circle cx="37" cy="180" r="3" fill="#800080" />
  <circle cx="37" cy="185" r="3" fill="#800080" />
  <circle cx="38" cy="67" r="3" fill="#800080" />
  <circle cx="38" cy="81" r="3" fill="#800080" />
  <circle cx="38" cy="131" r="3" fill="#800080" />
  <circle cx="52" cy="76" r="3" fill="#800080" />
  <circle cx="89" cy="172" r="3" fill="#800080" />
  <circle cx="98" cy="156" r="3" fill="#800080" />
  <circle cx="101" cy="132" r="3" fill="#800080" />
  <circle cx="106" cy="133" r="3" fill="#800080" />
</svg>
