<?xml version="1.0"?>
<svg width="135" height="256">
  <circle cx="102" cy="160" r="13" fill="#800080" />
  <circle cx="103" cy="94" r="13" fill="#800080" />
  <circle cx="25" cy="118" r="11" fill="#800080" />
  <circle cx="25" cy="139" r="11" fill="#800080" />
  <circle cx="104" cy="117" r="11" fill="#800080" />
  <circle cx="105" cy="34" r="11" fill="#800080" />
  <circle cx="105" cy="55" r="11" fill="#800080" />
  <circle cx="29" cy="160" r="10" fill="#800080" />
  <circle cx="29" cy="96" r="10" fill="#800080" />
  <circle cx="41" cy="177" r="10" fill="#800080" />
  <circle cx="103" cy="137" r="10" fill="#800080" />
  <circle cx="41" cy="80" r="9" fill="#800080" />
  <circle cx="57" cy="74" r="8" fill="#800080" />
  <circle cx="58" cy="182" r="8" fill="#800080" />
  <circle cx="102" cy="73" r="8" fill="#800080" />
  <circle cx="103" cy="180" r="8" fill="#800080" />
  <circle cx="72" cy="75" r="7" fill="#800080" />
  <circle cx="72" cy="180" r="7" fill="#800080" />
  <circle cx="84" cy="81" r="6" fill="#800080" />
  <circle cx="84" cy="174" r="6" fill="#800080" />
  <circle cx="28" cy="173" r="4" fill="#800080" />
  <circle cx="29" cy="83" r="4" fill="#800080" />
  <circle cx="112" cy="79" r="4" fill="#800080" />
</svg>
