<?xml version="1.0"?>
<svg width="135" height="256">
  <circle cx="28" cy="50" r="12" fill="#800080" />
  <circle cx="28" cy="174" r="12" fill="#800080" />
  <circle cx="113" cy="112" r="12" fill="#800080" />
  <circle cx="105" cy="73" r="11" fill="#800080" />
  <circle cx="27" cy="72" r="11" fill="#800080" />
  <circle cx="27" cy="93" r="11" fill="#800080" />
  <circle cx="27" cy="114" r="11" fill="#800080" />
  <circle cx="27" cy="135" r="11" fill="#800080" />
  <circle cx="105" cy="152" r="11" fill="#800080" />
  <circle cx="91" cy="169" r="10" fill="#800080" />
  <circle cx="89" cy="56" r="10" fill="#800080" />
  <circle cx="73" cy="177" r="9" fill="#800080" />
  <circle cx="25" cy="154" r="9" fill="#800080" />
  <circle cx="48" cy="47" r="9" fill="#800080" />
  <circle cx="48" cy="178" r="9" fill="#800080" />
  <circle cx="65" cy="48" r="9" fill="#800080" />
  <circle cx="109" cy="92" r="9" fill="#800080" />
  <circle cx="109" cy="132" r="9" fill="#800080" />
  <circle cx="78" cy="46" r="5" fill="#800080" />
  <circle cx="61" cy="183" r="4" fill="#800080" />
  <circle cx="60" cy="173" r="4" fill="#800080" />
  <circle cx="75" cy="56" r="4" fill="#800080" />
  <circle cx="102" cy="58" r="4" fill="#800080" />
  <circle cx="104" cy="166" r="4" fill="#800080" />
</svg>
