<?xml version="1.0"?>
<svg width="135" height="256">
  <circle cx="29" cy="110" r="13" fill="#800080" />
  <circle cx="28" cy="50" r="12" fill="#800080" />
  <circle cx="28" cy="174" r="12" fill="#800080" />
  <circle cx="27" cy="72" r="11" fill="#800080" />
  <circle cx="27" cy="133" r="11" fill="#800080" />
  <circle cx="26" cy="153" r="10" fill="#800080" />
  <circle cx="48" cy="47" r="9" fill="#800080" />
  <circle cx="48" cy="178" r="9" fill="#800080" />
  <circle cx="50" cy="110" r="9" fill="#800080" />
  <circle cx="65" cy="47" r="9" fill="#800080" />
  <circle cx="65" cy="178" r="9" fill="#800080" />
  <circle cx="67" cy="110" r="9" fill="#800080" />
  <circle cx="82" cy="47" r="9" fill="#800080" />
  <circle cx="82" cy="178" r="9" fill="#800080" />
  <circle cx="84" cy="110" r="9" fill="#800080" />
  <circle cx="99" cy="47" r="9" fill="#800080" />
  <circle cx="99" cy="178" r="9" fill="#800080" />
  <circle cx="101" cy="110" r="9" fill="#800080" />
  <circle cx="24" cy="90" r="8" fill="#800080" />
  <circle cx="115" cy="177" r="8" fill="#800080" />
  <circle cx="113" cy="44" r="6" fill="#800080" />
  <circle cx="35" cy="85" r="4" fill="#800080" />
  <circle cx="35" cy="92" r="4" fill="#800080" />
  <circle cx="111" cy="53" r="4" fill="#800080" />
</svg>
