<?xml version="1.0"?>
<svg width="135" height="256">
  <circle cx="26" cy="125" r="12" fill="#800080" />
  <circle cx="109" cy="121" r="11" fill="#800080" />
  <circle cx="27" cy="149" r="10" fill="#800080" />
  <circle cx="27" cy="103" r="10" fill="#800080" />
  <circle cx="36" cy="168" r="10" fill="#800080" />
  <circle cx="104" cy="94" r="10" fill="#800080" />
  <circle cx="104" cy="167" r="9" fill="#800080" />
  <circle cx="36" cy="86" r="9" fill="#800080" />
  <circle cx="51" cy="179" r="8" fill="#800080" />
  <circle cx="45" cy="124" r="8" fill="#800080" />
  <circle cx="50" cy="76" r="8" fill="#800080" />
  <circle cx="60" cy="124" r="8" fill="#800080" />
  <circle cx="65" cy="73" r="8" fill="#800080" />
  <circle cx="66" cy="182" r="8" fill="#800080" />
  <circle cx="75" cy="124" r="8" fill="#800080" />
  <circle cx="80" cy="75" r="8" fill="#800080" />
  <circle cx="81" cy="181" r="8" fill="#800080" />
  <circle cx="90" cy="124" r="8" fill="#800080" />
  <circle cx="94" cy="80" r="7" fill="#800080" />
  <circle cx="94" cy="178" r="6" fill="#800080" />
  <circle cx="112" cy="106" r="5" fill="#800080" />
  <circle cx="102" cy="108" r="4" fill="#800080" />
  <circle cx="18" cy="138" r="3" fill="#800080" />
  <circle cx="17" cy="113" r="3" fill="#800080" />
  <circle cx="23" cy="161" r="3" fill="#800080" />
  <circle cx="25" cy="90" r="3" fill="#800080" />
  <circle cx="40" cy="75" r="3" fill="#800080" />
  <circle cx="40" cy="180" r="3" fill="#800080" />
  <circle cx="92" cy="170" r="3" fill="#800080" />
  <circle cx="103" cy="82" r="3" fill="#800080" />
</svg>
