<?xml version="1.0"?>
<svg width="135" height="256">
  <circle cx="34" cy="119" r="13" fill="#800080" />
  <circle cx="32" cy="50" r="12" fill="#800080" />
  <circle cx="31" cy="72" r="11" fill="#800080" />
  <circle cx="31" cy="93" r="11" fill="#800080" />
  <circle cx="31" cy="142" r="11" fill="#800080" />
  <circle cx="31" cy="163" r="11" fill="#800080" />
  <circle cx="56" cy="119" r="10" fill="#800080" />
  <circle cx="75" cy="119" r="10" fill="#800080" />
  <circle cx="94" cy="119" r="10" fill="#800080" />
  <circle cx="52" cy="47" r="9" fill="#800080" />
  <circle cx="69" cy="47" r="9" fill="#800080" />
  <circle cx="86" cy="47" r="9" fill="#800080" />
  <circle cx="103" cy="47" r="9" fill="#800080" />
  <circle cx="27" cy="180" r="7" fill="#800080" />
  <circle cx="110" cy="116" r="7" fill="#800080" />
  <circle cx="38" cy="177" r="5" fill="#800080" />
  <circle cx="115" cy="52" r="4" fill="#800080" />
  <circle cx="115" cy="42" r="4" fill="#800080" />
  <circle cx="24" cy="106" r="3" fill="#800080" />
  <circle cx="36" cy="184" r="3" fill="#800080" />
  <circle cx="40" cy="104" r="3" fill="#800080" />
  <circle cx="105" cy="126" r="3" fill="#800080" />
  <circle cx="110" cy="125" r="3" fill="#800080" />
  <circle cx="115" cy="125" r="3" fill="#800080" />
</svg>
