<?xml version="1.0"?>
<svg width="135" height="256">
  <circle cx="103" cy="97" r="13" fill="#800080" />
  <circle cx="103" cy="155" r="13" fill="#800080" />
  <circle cx="25" cy="126" r="11" fill="#800080" />
  <circle cx="27" cy="147" r="11" fill="#800080" />
  <circle cx="105" cy="120" r="11" fill="#800080" />
  <circle cx="105" cy="178" r="11" fill="#800080" />
  <circle cx="28" cy="101" r="10" fill="#800080" />
  <circle cx="34" cy="167" r="10" fill="#800080" />
  <circle cx="37" cy="83" r="10" fill="#800080" />
  <circle cx="37" cy="212" r="10" fill="#800080" />
  <circle cx="97" cy="215" r="10" fill="#800080" />
  <circle cx="103" cy="197" r="9" fill="#800080" />
  <circle cx="104" cy="76" r="9" fill="#800080" />
  <circle cx="54" cy="225" r="8" fill="#800080" />
  <circle cx="48" cy="178" r="8" fill="#800080" />
  <circle cx="53" cy="74" r="8" fill="#800080" />
  <circle cx="63" cy="178" r="8" fill="#800080" />
  <circle cx="69" cy="226" r="8" fill="#800080" />
  <circle cx="68" cy="74" r="7" fill="#800080" />
  <circle cx="83" cy="224" r="7" fill="#800080" />
  <circle cx="77" cy="175" r="6" fill="#800080" />
  <circle cx="80" cy="78" r="6" fill="#800080" />
  <circle cx="100" cy="136" r="6" fill="#800080" />
  <circle cx="86" cy="168" r="5" fill="#800080" />
  <circle cx="87" cy="86" r="5" fill="#800080" />
  <circle cx="110" cy="135" r="5" fill="#800080" />
  <circle cx="20" cy="112" r="4" fill="#800080" />
  <circle cx="41" cy="225" r="4" fill="#800080" />
</svg>
