<?xml version="1.0"?>
<svg width="135" height="256">
  <circle cx="23" cy="103" r="12" fill="#800080" />
  <circle cx="24" cy="126" r="12" fill="#800080" />
  <circle cx="109" cy="121" r="12" fill="#800080" />
  <circle cx="27" cy="78" r="11" fill="#800080" />
  <circle cx="28" cy="148" r="11" fill="#800080" />
  <circle cx="110" cy="143" r="11" fill="#800080" />
  <circle cx="110" cy="164" r="11" fill="#800080" />
  <circle cx="37" cy="59" r="10" fill="#800080" />
  <circle cx="38" cy="167" r="10" fill="#800080" />
  <circle cx="93" cy="51" r="10" fill="#800080" />
  <circle cx="107" cy="66" r="10" fill="#800080" />
  <circle cx="53" cy="48" r="9" fill="#800080" />
  <circle cx="54" cy="178" r="9" fill="#800080" />
  <circle cx="70" cy="45" r="9" fill="#800080" />
  <circle cx="71" cy="181" r="9" fill="#800080" />
  <circle cx="76" cy="118" r="9" fill="#800080" />
  <circle cx="90" cy="178" r="9" fill="#800080" />
  <circle cx="91" cy="116" r="7" fill="#800080" />
  <circle cx="103" cy="178" r="5" fill="#800080" />
  <circle cx="82" cy="41" r="4" fill="#800080" />
  <circle cx="106" cy="53" r="4" fill="#800080" />
  <circle cx="17" cy="88" r="3" fill="#800080" />
  <circle cx="14" cy="115" r="3" fill="#800080" />
  <circle cx="17" cy="139" r="3" fill="#800080" />
  <circle cx="23" cy="65" r="3" fill="#800080" />
  <circle cx="25" cy="161" r="3" fill="#800080" />
  <circle cx="32" cy="91" r="3" fill="#800080" />
  <circle cx="39" cy="47" r="3" fill="#800080" />
  <circle cx="40" cy="155" r="3" fill="#800080" />
  <circle cx="41" cy="179" r="3" fill="#800080" />
  <circle cx="80" cy="52" r="3" fill="#800080" />
  <circle cx="81" cy="47" r="3" fill="#800080" />
  <circle cx="86" cy="125" r="3" fill="#800080" />
  <circle cx="91" cy="125" r="3" fill="#800080" />
  <circle cx="119" cy="132" r="3" fill="#800080" />
</svg>
