<?xml version="1.0"?>
<svg width="135" height="256">
  <circle cx="32" cy="95" r="12" fill="#800080" />
  <circle cx="101" cy="88" r="11" fill="#800080" />
  <circle cx="30" cy="34" r="11" fill="#800080" />
  <circle cx="30" cy="55" r="11" fill="#800080" />
  <circle cx="30" cy="117" r="11" fill="#800080" />
  <circle cx="30" cy="138" r="11" fill="#800080" />
  <circle cx="30" cy="159" r="11" fill="#800080" />
  <circle cx="105" cy="109" r="11" fill="#800080" />
  <circle cx="105" cy="130" r="11" fill="#800080" />
  <circle cx="105" cy="151" r="11" fill="#800080" />
  <circle cx="105" cy="172" r="11" fill="#800080" />
  <circle cx="84" cy="75" r="9" fill="#800080" />
  <circle cx="28" cy="74" r="9" fill="#800080" />
  <circle cx="28" cy="178" r="9" fill="#800080" />
  <circle cx="64" cy="75" r="8" fill="#800080" />
  <circle cx="51" cy="81" r="6" fill="#800080" />
  <circle cx="96" cy="74" r="4" fill="#800080" />
  <circle cx="46" cy="89" r="3" fill="#800080" />
  <circle cx="38" cy="67" r="3" fill="#800080" />
  <circle cx="38" cy="171" r="3" fill="#800080" />
  <circle cx="38" cy="185" r="3" fill="#800080" />
  <circle cx="73" cy="68" r="3" fill="#800080" />
  <circle cx="97" cy="184" r="3" fill="#800080" />
  <circle cx="102" cy="185" r="3" fill="#800080" />
  <circle cx="107" cy="185" r="3" fill="#800080" />
  <circle cx="112" cy="97" r="3" fill="#800080" />
  <circle cx="112" cy="184" r="3" fill="#800080" />
</svg>
