<?xml version="1.0"?>
<svg width="135" height="256">
  <circle cx="30" cy="110" r="13" fill="#800080" />
  <circle cx="104" cy="110" r="13" fill="#800080" />
  <circle cx="27" cy="49" r="11" fill="#800080" />
  <circle cx="27" cy="70" r="11" fill="#800080" />
  <circle cx="27" cy="133" r="11" fill="#800080" />
  <circle cx="27" cy="154" r="11" fill="#800080" />
  <circle cx="27" cy="175" r="11" fill="#800080" />
  <circle cx="106" cy="49" r="11" fill="#800080" />
  <circle cx="106" cy="70" r="11" fill="#800080" />
  <circle cx="106" cy="133" r="11" fill="#800080" />
  <circle cx="106" cy="154" r="11" fill="#800080" />
  <circle cx="106" cy="175" r="11" fill="#800080" />
  <circle cx="52" cy="110" r="10" fill="#800080" />
  <circle cx="71" cy="110" r="10" fill="#800080" />
  <circle cx="25" cy="89" r="9" fill="#800080" />
  <circle cx="104" cy="89" r="9" fill="#800080" />
  <circle cx="86" cy="106" r="6" fill="#800080" />
  <circle cx="84" cy="115" r="4" fill="#800080" />
  <circle cx="35" cy="82" r="3" fill="#800080" />
  <circle cx="36" cy="87" r="3" fill="#800080" />
  <circle cx="36" cy="92" r="3" fill="#800080" />
  <circle cx="90" cy="117" r="3" fill="#800080" />
  <circle cx="113" cy="97" r="3" fill="#800080" />
  <circle cx="114" cy="82" r="3" fill="#800080" />
  <circle cx="115" cy="87" r="3" fill="#800080" />
  <circle cx="115" cy="92" r="3" fill="#800080" />
  <circle cx="115" cy="122" r="3" fill="#800080" />
</svg>
