<?xml version="1.0"?>
<svg width="135" height="256">
  <circle cx="81" cy="79" r="11" fill="#800080" />
  <circle cx="80" cy="34" r="11" fill="#800080" />
  <circle cx="82" cy="100" r="11" fill="#800080" />
  <circle cx="82" cy="121" r="11" fill="#800080" />
  <circle cx="82" cy="142" r="11" fill="#800080" />
  <circle cx="82" cy="163" r="11" fill="#800080" />
  <circle cx="82" cy="184" r="11" fill="#800080" />
  <circle cx="77" cy="210" r="10" fill="#800080" />
  <circle cx="62" cy="223" r="9" fill="#800080" />
  <circle cx="28" cy="225" r="9" fill="#800080" />
  <circle cx="35" cy="76" r="9" fill="#800080" />
  <circle cx="45" cy="226" r="9" fill="#800080" />
  <circle cx="52" cy="76" r="9" fill="#800080" />
  <circle cx="66" cy="73" r="5" fill="#800080" />
  <circle cx="87" cy="199" r="5" fill="#800080" />
  <circle cx="16" cy="219" r="4" fill="#800080" />
  <circle cx="15" cy="226" r="4" fill="#800080" />
  <circle cx="64" cy="81" r="4" fill="#800080" />
  <circle cx="74" cy="223" r="4" fill="#800080" />
  <circle cx="75" cy="197" r="4" fill="#800080" />
</svg>
