<?xml version="1.0"?>
<svg width="135" height="256">
  <circle cx="31" cy="123" r="14" fill="#800080" />
  <circle cx="60" cy="106" r="12" fill="#800080" />
  <circle cx="76" cy="126" r="11" fill="#800080" />
  <circle cx="27" cy="49" r="11" fill="#800080" />
  <circle cx="27" cy="70" r="11" fill="#800080" />
  <circle cx="27" cy="91" r="11" fill="#800080" />
  <circle cx="27" cy="147" r="11" fill="#800080" />
  <circle cx="27" cy="168" r="11" fill="#800080" />
  <circle cx="92" cy="147" r="10" fill="#800080" />
  <circle cx="104" cy="163" r="10" fill="#800080" />
  <circle cx="73" cy="86" r="9" fill="#800080" />
  <circle cx="84" cy="72" r="9" fill="#800080" />
  <circle cx="96" cy="58" r="9" fill="#800080" />
  <circle cx="114" cy="179" r="9" fill="#800080" />
  <circle cx="109" cy="47" r="8" fill="#800080" />
  <circle cx="22" cy="106" r="5" fill="#800080" />
  <circle cx="21" cy="183" r="5" fill="#800080" />
  <circle cx="30" cy="183" r="5" fill="#800080" />
  <circle cx="34" cy="105" r="5" fill="#800080" />
  <circle cx="49" cy="118" r="5" fill="#800080" />
  <circle cx="127" cy="183" r="4" fill="#800080" />
  <circle cx="44" cy="111" r="4" fill="#800080" />
  <circle cx="61" cy="91" r="4" fill="#800080" />
  <circle cx="78" cy="140" r="4" fill="#800080" />
  <circle cx="89" cy="133" r="4" fill="#800080" />
</svg>
