<?xml version="1.0"?>
<svg width="135" height="256">
  <circle cx="22" cy="92" r="12" fill="#800080" />
  <circle cx="68" cy="96" r="11" fill="#800080" />
  <circle cx="110" cy="82" r="10" fill="#800080" />
  <circle cx="20" cy="113" r="10" fill="#800080" />
  <circle cx="20" cy="132" r="10" fill="#800080" />
  <circle cx="20" cy="151" r="10" fill="#800080" />
  <circle cx="20" cy="170" r="10" fill="#800080" />
  <circle cx="67" cy="116" r="10" fill="#800080" />
  <circle cx="67" cy="135" r="10" fill="#800080" />
  <circle cx="67" cy="154" r="10" fill="#800080" />
  <circle cx="67" cy="173" r="10" fill="#800080" />
  <circle cx="114" cy="101" r="10" fill="#800080" />
  <circle cx="114" cy="120" r="10" fill="#800080" />
  <circle cx="114" cy="139" r="10" fill="#800080" />
  <circle cx="114" cy="158" r="10" fill="#800080" />
  <circle cx="114" cy="177" r="10" fill="#800080" />
  <circle cx="57" cy="76" r="9" fill="#800080" />
  <circle cx="93" cy="74" r="8" fill="#800080" />
  <circle cx="41" cy="76" r="7" fill="#800080" />
  <circle cx="17" cy="74" r="7" fill="#800080" />
  <circle cx="81" cy="82" r="5" fill="#800080" />
  <circle cx="26" cy="183" r="4" fill="#800080" />
  <circle cx="14" cy="183" r="4" fill="#800080" />
</svg>
