<?xml version="1.0"?>
<svg width="135" height="256">
  <circle cx="31" cy="53" r="15" fill="#800080" />
  <circle cx="101" cy="174" r="14" fill="#800080" />
  <circle cx="26" cy="77" r="10" fill="#800080" />
  <circle cx="26" cy="96" r="10" fill="#800080" />
  <circle cx="26" cy="115" r="10" fill="#800080" />
  <circle cx="26" cy="134" r="10" fill="#800080" />
  <circle cx="26" cy="153" r="10" fill="#800080" />
  <circle cx="26" cy="172" r="10" fill="#800080" />
  <circle cx="107" cy="48" r="10" fill="#800080" />
  <circle cx="107" cy="67" r="10" fill="#800080" />
  <circle cx="107" cy="86" r="10" fill="#800080" />
  <circle cx="107" cy="105" r="10" fill="#800080" />
  <circle cx="107" cy="124" r="10" fill="#800080" />
  <circle cx="108" cy="143" r="10" fill="#800080" />
  <circle cx="48" cy="72" r="9" fill="#800080" />
  <circle cx="56" cy="89" r="9" fill="#800080" />
  <circle cx="64" cy="107" r="9" fill="#800080" />
  <circle cx="72" cy="124" r="9" fill="#800080" />
  <circle cx="80" cy="141" r="9" fill="#800080" />
  <circle cx="87" cy="157" r="8" fill="#800080" />
  <circle cx="112" cy="158" r="5" fill="#800080" />
  <circle cx="103" cy="156" r="4" fill="#800080" />
  <circle cx="33" cy="184" r="4" fill="#800080" />
</svg>
