<?xml version="1.0"?>
<svg width="135" height="256">
  <circle cx="32" cy="95" r="12" fill="#800080" />
  <circle cx="97" cy="82" r="11" fill="#800080" />
  <circle cx="30" cy="117" r="11" fill="#800080" />
  <circle cx="30" cy="138" r="11" fill="#800080" />
  <circle cx="30" cy="159" r="11" fill="#800080" />
  <circle cx="105" cy="103" r="11" fill="#800080" />
  <circle cx="105" cy="124" r="11" fill="#800080" />
  <circle cx="105" cy="145" r="11" fill="#800080" />
  <circle cx="105" cy="166" r="11" fill="#800080" />
  <circle cx="28" cy="178" r="9" fill="#800080" />
  <circle cx="78" cy="74" r="8" fill="#800080" />
  <circle cx="27" cy="75" r="8" fill="#800080" />
  <circle cx="63" cy="75" r="7" fill="#800080" />
  <circle cx="51" cy="81" r="6" fill="#800080" />
  <circle cx="100" cy="182" r="6" fill="#800080" />
  <circle cx="110" cy="181" r="5" fill="#800080" />
  <circle cx="46" cy="89" r="3" fill="#800080" />
  <circle cx="36" cy="81" r="3" fill="#800080" />
  <circle cx="38" cy="171" r="3" fill="#800080" />
  <circle cx="38" cy="185" r="3" fill="#800080" />
  <circle cx="88" cy="69" r="3" fill="#800080" />
  <circle cx="109" cy="89" r="3" fill="#800080" />
</svg>
