<?xml version="1.0"?>
<svg width="135" height="256">
  <circle cx="22" cy="101" r="12" fill="#800080" />
  <circle cx="22" cy="124" r="12" fill="#800080" />
  <circle cx="111" cy="90" r="12" fill="#800080" />
  <circle cx="111" cy="135" r="12" fill="#800080" />
  <circle cx="29" cy="70" r="11" fill="#800080" />
  <circle cx="26" cy="146" r="11" fill="#800080" />
  <circle cx="36" cy="167" r="11" fill="#800080" />
  <circle cx="103" cy="65" r="11" fill="#800080" />
  <circle cx="112" cy="112" r="11" fill="#800080" />
  <circle cx="102" cy="162" r="10" fill="#800080" />
  <circle cx="41" cy="53" r="10" fill="#800080" />
  <circle cx="88" cy="50" r="10" fill="#800080" />
  <circle cx="88" cy="176" r="9" fill="#800080" />
  <circle cx="52" cy="179" r="9" fill="#800080" />
  <circle cx="59" cy="45" r="9" fill="#800080" />
  <circle cx="69" cy="181" r="9" fill="#800080" />
  <circle cx="19" cy="84" r="6" fill="#800080" />
  <circle cx="73" cy="42" r="6" fill="#800080" />
  <circle cx="30" cy="86" r="5" fill="#800080" />
  <circle cx="112" cy="151" r="5" fill="#800080" />
  <circle cx="101" cy="148" r="4" fill="#800080" />
  <circle cx="23" cy="160" r="4" fill="#800080" />
  <circle cx="71" cy="51" r="4" fill="#800080" />
  <circle cx="100" cy="175" r="4" fill="#800080" />
  <circle cx="101" cy="51" r="4" fill="#800080" />
  <circle cx="114" cy="75" r="4" fill="#800080" />
</svg>
