<?xml version="1.0"?>
<svg width="135" height="256">
  <circle cx="109" cy="112" r="11" fill="#800080" />
  <circle cx="24" cy="121" r="11" fill="#800080" />
  <circle cx="25" cy="142" r="11" fill="#800080" />
  <circle cx="108" cy="148" r="11" fill="#800080" />
  <circle cx="29" cy="98" r="10" fill="#800080" />
  <circle cx="31" cy="162" r="10" fill="#800080" />
  <circle cx="100" cy="87" r="10" fill="#800080" />
  <circle cx="98" cy="170" r="9" fill="#800080" />
  <circle cx="40" cy="82" r="9" fill="#800080" />
  <circle cx="44" cy="176" r="8" fill="#800080" />
  <circle cx="56" cy="74" r="8" fill="#800080" />
  <circle cx="59" cy="182" r="8" fill="#800080" />
  <circle cx="71" cy="73" r="8" fill="#800080" />
  <circle cx="74" cy="182" r="8" fill="#800080" />
  <circle cx="86" cy="76" r="8" fill="#800080" />
  <circle cx="107" cy="130" r="8" fill="#800080" />
  <circle cx="87" cy="180" r="6" fill="#800080" />
  <circle cx="111" cy="97" r="5" fill="#800080" />
  <circle cx="109" cy="163" r="4" fill="#800080" />
  <circle cx="99" cy="100" r="4" fill="#800080" />
  <circle cx="117" cy="136" r="4" fill="#800080" />
  <circle cx="19" cy="107" r="3" fill="#800080" />
  <circle cx="20" cy="155" r="3" fill="#800080" />
  <circle cx="28" cy="85" r="3" fill="#800080" />
  <circle cx="32" cy="174" r="3" fill="#800080" />
  <circle cx="33" cy="110" r="3" fill="#800080" />
  <circle cx="86" cy="172" r="3" fill="#800080" />
  <circle cx="96" cy="75" r="3" fill="#800080" />
  <circle cx="97" cy="158" r="3" fill="#800080" />
  <circle cx="116" cy="124" r="3" fill="#800080" />
  <circle cx="117" cy="129" r="3" fill="#800080" />
</svg>
