<?xml version="1.0"?>
<svg width="135" height="256">
  <circle cx="32" cy="94" r="13" fill="#800080" />
  <circle cx="32" cy="160" r="13" fill="#800080" />
  <circle cx="30" cy="117" r="11" fill="#800080" />
  <circle cx="30" cy="183" r="11" fill="#800080" />
  <circle cx="30" cy="204" r="11" fill="#800080" />
  <circle cx="107" cy="102" r="11" fill="#800080" />
  <circle cx="108" cy="146" r="11" fill="#800080" />
  <circle cx="109" cy="123" r="11" fill="#800080" />
  <circle cx="97" cy="82" r="10" fill="#800080" />
  <circle cx="29" cy="137" r="10" fill="#800080" />
  <circle cx="29" cy="224" r="10" fill="#800080" />
  <circle cx="98" cy="172" r="10" fill="#800080" />
  <circle cx="79" cy="74" r="8" fill="#800080" />
  <circle cx="62" cy="75" r="8" fill="#800080" />
  <circle cx="68" cy="182" r="8" fill="#800080" />
  <circle cx="83" cy="182" r="8" fill="#800080" />
  <circle cx="27" cy="75" r="7" fill="#800080" />
  <circle cx="52" cy="176" r="6" fill="#800080" />
  <circle cx="49" cy="83" r="6" fill="#800080" />
  <circle cx="110" cy="162" r="5" fill="#800080" />
  <circle cx="99" cy="158" r="4" fill="#800080" />
  <circle cx="44" cy="171" r="3" fill="#800080" />
  <circle cx="36" cy="70" r="3" fill="#800080" />
  <circle cx="36" cy="75" r="3" fill="#800080" />
  <circle cx="39" cy="145" r="3" fill="#800080" />
  <circle cx="58" cy="183" r="3" fill="#800080" />
  <circle cx="89" cy="70" r="3" fill="#800080" />
  <circle cx="93" cy="184" r="3" fill="#800080" />
  <circle cx="108" cy="89" r="3" fill="#800080" />
  <circle cx="117" cy="135" r="3" fill="#800080" />
</svg>
