<?xml version="1.0"?>
<svg width="135" height="256">
  <circle cx="71" cy="184" r="12" fill="#800080" />
  <circle cx="22" cy="101" r="12" fill="#800080" />
  <circle cx="22" cy="124" r="12" fill="#800080" />
  <circle cx="111" cy="90" r="12" fill="#800080" />
  <circle cx="112" cy="119" r="12" fill="#800080" />
  <circle cx="29" cy="70" r="11" fill="#800080" />
  <circle cx="26" cy="146" r="11" fill="#800080" />
  <circle cx="103" cy="65" r="11" fill="#800080" />
  <circle cx="105" cy="156" r="11" fill="#800080" />
  <circle cx="37" cy="168" r="10" fill="#800080" />
  <circle cx="41" cy="53" r="10" fill="#800080" />
  <circle cx="77" cy="205" r="10" fill="#800080" />
  <circle cx="88" cy="50" r="10" fill="#800080" />
  <circle cx="91" cy="174" r="10" fill="#800080" />
  <circle cx="92" cy="218" r="10" fill="#800080" />
  <circle cx="67" cy="45" r="9" fill="#800080" />
  <circle cx="110" cy="222" r="9" fill="#800080" />
  <circle cx="52" cy="178" r="8" fill="#800080" />
  <circle cx="107" cy="138" r="8" fill="#800080" />
  <circle cx="19" cy="84" r="6" fill="#800080" />
  <circle cx="53" cy="43" r="5" fill="#800080" />
  <circle cx="29" cy="85" r="5" fill="#800080" />
  <circle cx="55" cy="52" r="5" fill="#800080" />
  <circle cx="119" cy="104" r="4" fill="#800080" />
  <circle cx="24" cy="160" r="4" fill="#800080" />
  <circle cx="101" cy="51" r="4" fill="#800080" />
  <circle cx="104" cy="104" r="4" fill="#800080" />
  <circle cx="104" cy="170" r="4" fill="#800080" />
  <circle cx="114" cy="75" r="4" fill="#800080" />
  <circle cx="116" cy="146" r="4" fill="#800080" />
  <circle cx="118" cy="134" r="4" fill="#800080" />
  <circle cx="122" cy="217" r="4" fill="#800080" />
  <circle cx="122" cy="224" r="4" fill="#800080" />
  <circle cx="28" cy="56" r="3" fill="#800080" />
  <circle cx="15" cy="137" r="3" fill="#800080" />
  <circle cx="36" cy="156" r="3" fill="#800080" />
  <circle cx="40" cy="180" r="3" fill="#800080" />
  <circle cx="66" cy="198" r="3" fill="#800080" />
  <circle cx="78" cy="39" r="3" fill="#800080" />
  <circle cx="78" cy="217" r="3" fill="#800080" />
  <circle cx="100" cy="78" r="3" fill="#800080" />
  <circle cx="110" cy="104" r="3" fill="#800080" />
  <circle cx="117" cy="140" r="3" fill="#800080" />
</svg>
