<?xml version="1.0"?>
<svg width="135" height="256">
  <circle cx="29" cy="115" r="13" fill="#800080" />
  <circle cx="75" cy="119" r="12" fill="#800080" />
  <circle cx="28" cy="50" r="12" fill="#800080" />
  <circle cx="107" cy="61" r="11" fill="#800080" />
  <circle cx="27" cy="72" r="11" fill="#800080" />
  <circle cx="27" cy="138" r="11" fill="#800080" />
  <circle cx="27" cy="159" r="11" fill="#800080" />
  <circle cx="111" cy="90" r="11" fill="#800080" />
  <circle cx="109" cy="175" r="10" fill="#800080" />
  <circle cx="26" cy="92" r="10" fill="#800080" />
  <circle cx="86" cy="140" r="10" fill="#800080" />
  <circle cx="97" cy="157" r="10" fill="#800080" />
  <circle cx="99" cy="107" r="9" fill="#800080" />
  <circle cx="25" cy="178" r="9" fill="#800080" />
  <circle cx="48" cy="47" r="9" fill="#800080" />
  <circle cx="50" cy="115" r="9" fill="#800080" />
  <circle cx="65" cy="47" r="9" fill="#800080" />
  <circle cx="82" cy="48" r="9" fill="#800080" />
  <circle cx="96" cy="48" r="6" fill="#800080" />
  <circle cx="118" cy="74" r="5" fill="#800080" />
  <circle cx="121" cy="183" r="5" fill="#800080" />
  <circle cx="86" cy="108" r="4" fill="#800080" />
  <circle cx="62" cy="110" r="4" fill="#800080" />
  <circle cx="90" cy="116" r="4" fill="#800080" />
  <circle cx="92" cy="57" r="4" fill="#800080" />
  <circle cx="105" cy="75" r="4" fill="#800080" />
  <circle cx="111" cy="104" r="4" fill="#800080" />
  <circle cx="35" cy="171" r="3" fill="#800080" />
  <circle cx="35" cy="185" r="3" fill="#800080" />
  <circle cx="36" cy="83" r="3" fill="#800080" />
  <circle cx="36" cy="100" r="3" fill="#800080" />
  <circle cx="36" cy="176" r="3" fill="#800080" />
  <circle cx="60" cy="122" r="3" fill="#800080" />
  <circle cx="61" cy="116" r="3" fill="#800080" />
  <circle cx="73" cy="133" r="3" fill="#800080" />
  <circle cx="96" cy="169" r="3" fill="#800080" />
  <circle cx="98" cy="145" r="3" fill="#800080" />
  <circle cx="109" cy="161" r="3" fill="#800080" />
  <circle cx="111" cy="74" r="3" fill="#800080" />
</svg>
