<?xml version="1.0"?>
<svg width="135" height="256">
  <circle cx="22" cy="159" r="11" fill="#800080" />
  <circle cx="26" cy="71" r="11" fill="#800080" />
  <circle cx="32" cy="94" r="11" fill="#800080" />
  <circle cx="105" cy="61" r="11" fill="#800080" />
  <circle cx="106" cy="126" r="11" fill="#800080" />
  <circle cx="111" cy="160" r="11" fill="#800080" />
  <circle cx="69" cy="110" r="10" fill="#800080" />
  <circle cx="36" cy="174" r="9" fill="#800080" />
  <circle cx="35" cy="53" r="9" fill="#800080" />
  <circle cx="49" cy="105" r="9" fill="#800080" />
  <circle cx="53" cy="180" r="9" fill="#800080" />
  <circle cx="57" cy="45" r="9" fill="#800080" />
  <circle cx="70" cy="181" r="9" fill="#800080" />
  <circle cx="77" cy="45" r="9" fill="#800080" />
  <circle cx="87" cy="115" r="9" fill="#800080" />
  <circle cx="87" cy="179" r="9" fill="#800080" />
  <circle cx="116" cy="142" r="8" fill="#800080" />
  <circle cx="93" cy="47" r="7" fill="#800080" />
  <circle cx="102" cy="175" r="6" fill="#800080" />
  <circle cx="44" cy="44" r="4" fill="#800080" />
  <circle cx="20" cy="85" r="4" fill="#800080" />
  <circle cx="24" cy="173" r="4" fill="#800080" />
  <circle cx="99" cy="113" r="4" fill="#800080" />
  <circle cx="105" cy="140" r="4" fill="#800080" />
</svg>
