<?xml version="1.0"?>
<svg width="135" height="256">
  <circle cx="35" cy="110" r="10" fill="#800080" />
  <circle cx="93" cy="134" r="10" fill="#800080" />
  <circle cx="106" cy="149" r="10" fill="#800080" />
  <circle cx="53" cy="122" r="9" fill="#800080" />
  <circle cx="30" cy="167" r="9" fill="#800080" />
  <circle cx="33" cy="91" r="9" fill="#800080" />
  <circle cx="70" cy="126" r="9" fill="#800080" />
  <circle cx="98" cy="83" r="9" fill="#800080" />
  <circle cx="102" cy="170" r="9" fill="#800080" />
  <circle cx="45" cy="78" r="8" fill="#800080" />
  <circle cx="43" cy="178" r="8" fill="#800080" />
  <circle cx="58" cy="182" r="8" fill="#800080" />
  <circle cx="60" cy="74" r="8" fill="#800080" />
  <circle cx="73" cy="182" r="8" fill="#800080" />
  <circle cx="75" cy="74" r="8" fill="#800080" />
  <circle cx="88" cy="179" r="7" fill="#800080" />
  <circle cx="87" cy="73" r="5" fill="#800080" />
  <circle cx="108" cy="92" r="4" fill="#800080" />
  <circle cx="40" cy="123" r="4" fill="#800080" />
  <circle cx="79" cy="135" r="4" fill="#800080" />
  <circle cx="82" cy="124" r="4" fill="#800080" />
  <circle cx="106" cy="136" r="4" fill="#800080" />
  <circle cx="112" cy="162" r="4" fill="#800080" />
  <circle cx="34" cy="79" r="3" fill="#800080" />
  <circle cx="25" cy="100" r="3" fill="#800080" />
  <circle cx="31" cy="178" r="3" fill="#800080" />
  <circle cx="84" cy="80" r="3" fill="#800080" />
  <circle cx="97" cy="94" r="3" fill="#800080" />
  <circle cx="97" cy="181" r="3" fill="#800080" />
  <circle cx="102" cy="94" r="3" fill="#800080" />
</svg>
