<?xml version="1.0"?>
<svg width="135" height="256">
  <circle cx="49" cy="76" r="14" fill="#800080" />
  <circle cx="51" cy="168" r="11" fill="#800080" />
  <circle cx="49" cy="100" r="11" fill="#800080" />
  <circle cx="49" cy="121" r="11" fill="#800080" />
  <circle cx="49" cy="142" r="11" fill="#800080" />
  <circle cx="67" cy="180" r="9" fill="#800080" />
  <circle cx="51" cy="51" r="9" fill="#800080" />
  <circle cx="71" cy="76" r="9" fill="#800080" />
  <circle cx="88" cy="76" r="9" fill="#800080" />
  <circle cx="89" cy="180" r="9" fill="#800080" />
  <circle cx="27" cy="75" r="8" fill="#800080" />
  <circle cx="105" cy="178" r="8" fill="#800080" />
  <circle cx="102" cy="73" r="6" fill="#800080" />
  <circle cx="42" cy="155" r="4" fill="#800080" />
  <circle cx="54" cy="182" r="4" fill="#800080" />
  <circle cx="78" cy="186" r="3" fill="#800080" />
  <circle cx="43" cy="60" r="3" fill="#800080" />
  <circle cx="47" cy="40" r="3" fill="#800080" />
  <circle cx="48" cy="155" r="3" fill="#800080" />
  <circle cx="52" cy="39" r="3" fill="#800080" />
  <circle cx="53" cy="155" r="3" fill="#800080" />
  <circle cx="57" cy="39" r="3" fill="#800080" />
  <circle cx="78" cy="175" r="3" fill="#800080" />
  <circle cx="78" cy="180" r="3" fill="#800080" />
  <circle cx="99" cy="81" r="3" fill="#800080" />
  <circle cx="104" cy="81" r="3" fill="#800080" />
</svg>
