<?xml version="1.0"?>
<svg width="135" height="256">
  <circle cx="27" cy="150" r="11" fill="#800080" />
  <circle cx="25" cy="49" r="11" fill="#800080" />
  <circle cx="25" cy="70" r="11" fill="#800080" />
  <circle cx="25" cy="91" r="11" fill="#800080" />
  <circle cx="25" cy="112" r="11" fill="#800080" />
  <circle cx="102" cy="165" r="11" fill="#800080" />
  <circle cx="108" cy="49" r="11" fill="#800080" />
  <circle cx="108" cy="70" r="11" fill="#800080" />
  <circle cx="108" cy="91" r="11" fill="#800080" />
  <circle cx="108" cy="112" r="11" fill="#800080" />
  <circle cx="108" cy="133" r="11" fill="#800080" />
  <circle cx="35" cy="170" r="10" fill="#800080" />
  <circle cx="86" cy="178" r="9" fill="#800080" />
  <circle cx="23" cy="131" r="9" fill="#800080" />
  <circle cx="52" cy="179" r="9" fill="#800080" />
  <circle cx="69" cy="181" r="9" fill="#800080" />
  <circle cx="111" cy="150" r="6" fill="#800080" />
  <circle cx="101" cy="147" r="5" fill="#800080" />
  <circle cx="98" cy="179" r="4" fill="#800080" />
  <circle cx="23" cy="164" r="3" fill="#800080" />
  <circle cx="33" cy="124" r="3" fill="#800080" />
  <circle cx="34" cy="129" r="3" fill="#800080" />
  <circle cx="34" cy="134" r="3" fill="#800080" />
  <circle cx="39" cy="182" r="3" fill="#800080" />
  <circle cx="114" cy="158" r="3" fill="#800080" />
</svg>
