<?xml version="1.0"?>
<svg width="135" height="256">
  <circle cx="103" cy="160" r="12" fill="#800080" />
  <circle cx="34" cy="169" r="11" fill="#800080" />
  <circle cx="30" cy="78" r="11" fill="#800080" />
  <circle cx="30" cy="99" r="11" fill="#800080" />
  <circle cx="30" cy="120" r="11" fill="#800080" />
  <circle cx="30" cy="141" r="11" fill="#800080" />
  <circle cx="105" cy="78" r="11" fill="#800080" />
  <circle cx="105" cy="99" r="11" fill="#800080" />
  <circle cx="105" cy="120" r="11" fill="#800080" />
  <circle cx="50" cy="181" r="9" fill="#800080" />
  <circle cx="103" cy="139" r="9" fill="#800080" />
  <circle cx="66" cy="181" r="8" fill="#800080" />
  <circle cx="104" cy="179" r="8" fill="#800080" />
  <circle cx="80" cy="177" r="6" fill="#800080" />
  <circle cx="89" cy="170" r="5" fill="#800080" />
  <circle cx="24" cy="156" r="5" fill="#800080" />
  <circle cx="37" cy="154" r="4" fill="#800080" />
  <circle cx="38" cy="183" r="3" fill="#800080" />
  <circle cx="31" cy="154" r="3" fill="#800080" />
  <circle cx="112" cy="147" r="3" fill="#800080" />
  <circle cx="113" cy="132" r="3" fill="#800080" />
  <circle cx="113" cy="171" r="3" fill="#800080" />
  <circle cx="113" cy="185" r="3" fill="#800080" />
</svg>
