<?xml version="1.0"?>
<svg width="135" height="256">
  <circle cx="71" cy="176" r="11" fill="#800080" />
  <circle cx="16" cy="50" r="11" fill="#800080" />
  <circle cx="115" cy="60" r="11" fill="#800080" />
  <circle cx="24" cy="72" r="10" fill="#800080" />
  <circle cx="31" cy="91" r="10" fill="#800080" />
  <circle cx="38" cy="110" r="10" fill="#800080" />
  <circle cx="45" cy="129" r="10" fill="#800080" />
  <circle cx="86" cy="140" r="10" fill="#800080" />
  <circle cx="93" cy="120" r="10" fill="#800080" />
  <circle cx="100" cy="100" r="10" fill="#800080" />
  <circle cx="107" cy="80" r="10" fill="#800080" />
  <circle cx="52" cy="149" r="9" fill="#800080" />
  <circle cx="80" cy="158" r="9" fill="#800080" />
  <circle cx="56" cy="165" r="7" fill="#800080" />
  <circle cx="125" cy="45" r="7" fill="#800080" />
  <circle cx="114" cy="44" r="5" fill="#800080" />
  <circle cx="56" cy="176" r="4" fill="#800080" />
  <circle cx="58" cy="183" r="4" fill="#800080" />
  <circle cx="13" cy="64" r="3" fill="#800080" />
  <circle cx="4" cy="41" r="3" fill="#800080" />
  <circle cx="20" cy="84" r="3" fill="#800080" />
  <circle cx="26" cy="60" r="3" fill="#800080" />
  <circle cx="27" cy="103" r="3" fill="#800080" />
  <circle cx="34" cy="122" r="3" fill="#800080" />
  <circle cx="35" cy="79" r="3" fill="#800080" />
  <circle cx="42" cy="141" r="3" fill="#800080" />
  <circle cx="55" cy="137" r="3" fill="#800080" />
  <circle cx="62" cy="157" r="3" fill="#800080" />
  <circle cx="83" cy="128" r="3" fill="#800080" />
  <circle cx="83" cy="169" r="3" fill="#800080" />
  <circle cx="90" cy="108" r="3" fill="#800080" />
  <circle cx="96" cy="132" r="3" fill="#800080" />
  <circle cx="97" cy="88" r="3" fill="#800080" />
  <circle cx="103" cy="112" r="3" fill="#800080" />
  <circle cx="110" cy="92" r="3" fill="#800080" />
  <circle cx="118" cy="73" r="3" fill="#800080" />
</svg>
