<?xml version="1.0"?>
<svg width="135" height="256">
  <circle cx="23" cy="80" r="11" fill="#800080" />
  <circle cx="31" cy="100" r="10" fill="#800080" />
  <circle cx="38" cy="119" r="10" fill="#800080" />
  <circle cx="46" cy="138" r="10" fill="#800080" />
  <circle cx="61" cy="176" r="10" fill="#800080" />
  <circle cx="82" cy="154" r="10" fill="#800080" />
  <circle cx="89" cy="135" r="10" fill="#800080" />
  <circle cx="97" cy="115" r="10" fill="#800080" />
  <circle cx="105" cy="94" r="10" fill="#800080" />
  <circle cx="53" cy="157" r="9" fill="#800080" />
  <circle cx="112" cy="76" r="9" fill="#800080" />
  <circle cx="78" cy="171" r="7" fill="#800080" />
  <circle cx="74" cy="183" r="5" fill="#800080" />
  <circle cx="108" cy="107" r="4" fill="#800080" />
  <circle cx="12" cy="71" r="3" fill="#800080" />
  <circle cx="20" cy="93" r="3" fill="#800080" />
  <circle cx="27" cy="112" r="3" fill="#800080" />
  <circle cx="35" cy="131" r="3" fill="#800080" />
  <circle cx="42" cy="107" r="3" fill="#800080" />
  <circle cx="43" cy="150" r="3" fill="#800080" />
  <circle cx="49" cy="126" r="3" fill="#800080" />
  <circle cx="50" cy="168" r="3" fill="#800080" />
  <circle cx="56" cy="146" r="3" fill="#800080" />
  <circle cx="71" cy="164" r="3" fill="#800080" />
  <circle cx="86" cy="123" r="3" fill="#800080" />
  <circle cx="94" cy="103" r="3" fill="#800080" />
  <circle cx="99" cy="127" r="3" fill="#800080" />
  <circle cx="116" cy="87" r="3" fill="#800080" />
  <circle cx="123" cy="70" r="3" fill="#800080" />
</svg>
