<?xml version="1.0"?>
<svg width="135" height="256">
  <circle cx="33" cy="175" r="13" fill="#800080" />
  <circle cx="98" cy="175" r="13" fill="#800080" />
  <circle cx="66" cy="97" r="12" fill="#800080" />
  <circle cx="12" cy="52" r="11" fill="#800080" />
  <circle cx="122" cy="56" r="11" fill="#800080" />
  <circle cx="15" cy="74" r="10" fill="#800080" />
  <circle cx="18" cy="93" r="10" fill="#800080" />
  <circle cx="21" cy="113" r="10" fill="#800080" />
  <circle cx="24" cy="136" r="10" fill="#800080" />
  <circle cx="112" cy="128" r="10" fill="#800080" />
  <circle cx="115" cy="104" r="10" fill="#800080" />
  <circle cx="118" cy="80" r="10" fill="#800080" />
  <circle cx="26" cy="154" r="9" fill="#800080" />
  <circle cx="109" cy="147" r="9" fill="#800080" />
  <circle cx="47" cy="155" r="8" fill="#800080" />
  <circle cx="51" cy="137" r="8" fill="#800080" />
  <circle cx="55" cy="122" r="8" fill="#800080" />
  <circle cx="77" cy="114" r="8" fill="#800080" />
  <circle cx="81" cy="129" r="8" fill="#800080" />
  <circle cx="85" cy="144" r="8" fill="#800080" />
  <circle cx="88" cy="158" r="7" fill="#800080" />
  <circle cx="111" cy="161" r="6" fill="#800080" />
  <circle cx="55" cy="110" r="5" fill="#800080" />
  <circle cx="123" cy="93" r="4" fill="#800080" />
  <circle cx="47" cy="166" r="4" fill="#800080" />
  <circle cx="117" cy="42" r="4" fill="#800080" />
  <circle cx="120" cy="117" r="4" fill="#800080" />
  <circle cx="124" cy="42" r="4" fill="#800080" />
  <circle cx="108" cy="115" r="3" fill="#800080" />
  <circle cx="3" cy="41" r="3" fill="#800080" />
  <circle cx="15" cy="125" r="3" fill="#800080" />
  <circle cx="28" cy="124" r="3" fill="#800080" />
  <circle cx="48" cy="172" r="3" fill="#800080" />
  <circle cx="62" cy="111" r="3" fill="#800080" />
  <circle cx="79" cy="104" r="3" fill="#800080" />
  <circle cx="102" cy="157" r="3" fill="#800080" />
  <circle cx="110" cy="90" r="3" fill="#800080" />
  <circle cx="113" cy="67" r="3" fill="#800080" />
  <circle cx="113" cy="116" r="3" fill="#800080" />
  <circle cx="115" cy="92" r="3" fill="#800080" />
  <circle cx="125" cy="69" r="3" fill="#800080" />
  <circle cx="130" cy="41" r="3" fill="#800080" />
</svg>
