<?xml version="1.0"?>
<svg width="135" height="256">
  <circle cx="67" cy="106" r="12" fill="#800080" />
  <circle cx="21" cy="178" r="10" fill="#800080" />
  <circle cx="26" cy="49" r="10" fill="#800080" />
  <circle cx="33" cy="160" r="10" fill="#800080" />
  <circle cx="101" cy="60" r="10" fill="#800080" />
  <circle cx="105" cy="165" r="10" fill="#800080" />
  <circle cx="37" cy="65" r="9" fill="#800080" />
  <circle cx="43" cy="144" r="9" fill="#800080" />
  <circle cx="47" cy="80" r="9" fill="#800080" />
  <circle cx="53" cy="129" r="9" fill="#800080" />
  <circle cx="78" cy="124" r="9" fill="#800080" />
  <circle cx="81" cy="90" r="9" fill="#800080" />
  <circle cx="88" cy="139" r="9" fill="#800080" />
  <circle cx="90" cy="75" r="8" fill="#800080" />
  <circle cx="112" cy="46" r="8" fill="#800080" />
  <circle cx="115" cy="180" r="8" fill="#800080" />
  <circle cx="53" cy="95" r="6" fill="#800080" />
  <circle cx="93" cy="153" r="6" fill="#800080" />
  <circle cx="65" cy="122" r="4" fill="#800080" />
  <circle cx="14" cy="42" r="4" fill="#800080" />
  <circle cx="55" cy="117" r="4" fill="#800080" />
  <circle cx="102" cy="150" r="4" fill="#800080" />
</svg>
