<?xml version="1.0"?>
<svg width="135" height="256">
  <circle cx="67" cy="126" r="13" fill="#800080" />
  <circle cx="31" cy="79" r="9" fill="#800080" />
  <circle cx="27" cy="179" r="9" fill="#800080" />
  <circle cx="38" cy="164" r="9" fill="#800080" />
  <circle cx="42" cy="94" r="9" fill="#800080" />
  <circle cx="49" cy="149" r="9" fill="#800080" />
  <circle cx="81" cy="144" r="9" fill="#800080" />
  <circle cx="86" cy="102" r="9" fill="#800080" />
  <circle cx="92" cy="158" r="9" fill="#800080" />
  <circle cx="97" cy="87" r="9" fill="#800080" />
  <circle cx="102" cy="173" r="9" fill="#800080" />
  <circle cx="53" cy="109" r="8" fill="#800080" />
  <circle cx="108" cy="75" r="7" fill="#800080" />
  <circle cx="114" cy="182" r="5" fill="#800080" />
  <circle cx="75" cy="110" r="5" fill="#800080" />
  <circle cx="53" cy="136" r="4" fill="#800080" />
  <circle cx="18" cy="71" r="4" fill="#800080" />
  <circle cx="59" cy="141" r="4" fill="#800080" />
  <circle cx="81" cy="116" r="4" fill="#800080" />
  <circle cx="98" cy="75" r="3" fill="#800080" />
  <circle cx="15" cy="185" r="3" fill="#800080" />
  <circle cx="43" cy="105" r="3" fill="#800080" />
  <circle cx="53" cy="99" r="3" fill="#800080" />
  <circle cx="53" cy="119" r="3" fill="#800080" />
  <circle cx="103" cy="184" r="3" fill="#800080" />
  <circle cx="117" cy="70" r="3" fill="#800080" />
</svg>
