<?xml version="1.0"?>
<svg width="135" height="256">
  <circle cx="67" cy="106" r="12" fill="#800080" />
  <circle cx="21" cy="178" r="10" fill="#800080" />
  <circle cx="26" cy="49" r="10" fill="#800080" />
  <circle cx="33" cy="160" r="10" fill="#800080" />
  <circle cx="101" cy="60" r="10" fill="#800080" />
  <circle cx="105" cy="165" r="10" fill="#800080" />
  <circle cx="37" cy="65" r="9" fill="#800080" />
  <circle cx="43" cy="144" r="9" fill="#800080" />
  <circle cx="47" cy="80" r="9" fill="#800080" />
  <circle cx="53" cy="129" r="9" fill="#800080" />
  <circle cx="78" cy="124" r="9" fill="#800080" />
  <circle cx="81" cy="90" r="9" fill="#800080" />
  <circle cx="88" cy="139" r="9" fill="#800080" />
  <circle cx="90" cy="75" r="8" fill="#800080" />
  <circle cx="112" cy="46" r="8" fill="#800080" />
  <circle cx="115" cy="180" r="8" fill="#800080" />
  <circle cx="53" cy="95" r="6" fill="#800080" />
  <circle cx="93" cy="153" r="6" fill="#800080" />
  <circle cx="65" cy="122" r="4" fill="#800080" />
  <circle cx="14" cy="42" r="4" fill="#800080" />
  <circle cx="55" cy="117" r="4" fill="#800080" />
  <circle cx="102" cy="150" r="4" fill="#800080" />
  <circle cx="9" cy="184" r="3" fill="#800080" />
  <circle cx="21" cy="166" r="3" fill="#800080" />
  <circle cx="26" cy="61" r="3" fill="#800080" />
  <circle cx="33" cy="172" r="3" fill="#800080" />
  <circle cx="36" cy="76" r="3" fill="#800080" />
  <circle cx="38" cy="54" r="3" fill="#800080" />
  <circle cx="54" cy="140" r="3" fill="#800080" />
  <circle cx="57" cy="87" r="3" fill="#800080" />
  <circle cx="61" cy="92" r="3" fill="#800080" />
  <circle cx="77" cy="135" r="3" fill="#800080" />
  <circle cx="81" cy="101" r="3" fill="#800080" />
  <circle cx="92" cy="85" r="3" fill="#800080" />
  <circle cx="99" cy="144" r="3" fill="#800080" />
  <circle cx="100" cy="72" r="3" fill="#800080" />
  <circle cx="101" cy="48" r="3" fill="#800080" />
  <circle cx="105" cy="177" r="3" fill="#800080" />
  <circle cx="122" cy="41" r="3" fill="#800080" />
  <circle cx="125" cy="183" r="3" fill="#800080" />
</svg>
