<?xml version="1.0"?>
<svg width="135" height="256">
  <circle cx="67" cy="117" r="12" fill="#800080" />
  <circle cx="67" cy="139" r="11" fill="#800080" />
  <circle cx="67" cy="160" r="11" fill="#800080" />
  <circle cx="22" cy="50" r="10" fill="#800080" />
  <circle cx="33" cy="68" r="10" fill="#800080" />
  <circle cx="45" cy="87" r="10" fill="#800080" />
  <circle cx="94" cy="80" r="10" fill="#800080" />
  <circle cx="105" cy="62" r="10" fill="#800080" />
  <circle cx="81" cy="101" r="9" fill="#800080" />
  <circle cx="65" cy="179" r="9" fill="#800080" />
  <circle cx="116" cy="47" r="8" fill="#800080" />
  <circle cx="53" cy="103" r="8" fill="#800080" />
  <circle cx="92" cy="94" r="4" fill="#800080" />
  <circle cx="10" cy="42" r="4" fill="#800080" />
  <circle cx="82" cy="88" r="4" fill="#800080" />
  <circle cx="75" cy="172" r="3" fill="#800080" />
  <circle cx="21" cy="62" r="3" fill="#800080" />
  <circle cx="33" cy="80" r="3" fill="#800080" />
  <circle cx="34" cy="56" r="3" fill="#800080" />
  <circle cx="44" cy="75" r="3" fill="#800080" />
  <circle cx="63" cy="103" r="3" fill="#800080" />
  <circle cx="76" cy="177" r="3" fill="#800080" />
  <circle cx="76" cy="182" r="3" fill="#800080" />
  <circle cx="81" cy="112" r="3" fill="#800080" />
  <circle cx="93" cy="68" r="3" fill="#800080" />
  <circle cx="104" cy="50" r="3" fill="#800080" />
  <circle cx="106" cy="74" r="3" fill="#800080" />
  <circle cx="125" cy="41" r="3" fill="#800080" />
</svg>
