<?xml version="1.0"?>
<svg width="135" height="256">
  <circle cx="21" cy="175" r="13" fill="#800080" />
  <circle cx="108" cy="51" r="13" fill="#800080" />
  <circle cx="32" cy="155" r="9" fill="#800080" />
  <circle cx="24" cy="47" r="9" fill="#800080" />
  <circle cx="41" cy="47" r="9" fill="#800080" />
  <circle cx="42" cy="178" r="9" fill="#800080" />
  <circle cx="43" cy="140" r="9" fill="#800080" />
  <circle cx="54" cy="126" r="9" fill="#800080" />
  <circle cx="58" cy="47" r="9" fill="#800080" />
  <circle cx="59" cy="178" r="9" fill="#800080" />
  <circle cx="65" cy="112" r="9" fill="#800080" />
  <circle cx="75" cy="47" r="9" fill="#800080" />
  <circle cx="76" cy="98" r="9" fill="#800080" />
  <circle cx="76" cy="178" r="9" fill="#800080" />
  <circle cx="87" cy="83" r="9" fill="#800080" />
  <circle cx="93" cy="178" r="9" fill="#800080" />
  <circle cx="110" cy="178" r="9" fill="#800080" />
  <circle cx="99" cy="70" r="8" fill="#800080" />
  <circle cx="90" cy="45" r="6" fill="#800080" />
  <circle cx="123" cy="174" r="5" fill="#800080" />
  <circle cx="123" cy="183" r="5" fill="#800080" />
  <circle cx="86" cy="53" r="3" fill="#800080" />
  <circle cx="20" cy="160" r="3" fill="#800080" />
  <circle cx="32" cy="144" r="3" fill="#800080" />
  <circle cx="43" cy="151" r="3" fill="#800080" />
  <circle cx="54" cy="137" r="3" fill="#800080" />
  <circle cx="65" cy="123" r="3" fill="#800080" />
  <circle cx="76" cy="109" r="3" fill="#800080" />
  <circle cx="87" cy="94" r="3" fill="#800080" />
  <circle cx="88" cy="72" r="3" fill="#800080" />
  <circle cx="91" cy="53" r="3" fill="#800080" />
  <circle cx="98" cy="80" r="3" fill="#800080" />
  <circle cx="109" cy="66" r="3" fill="#800080" />
</svg>
