<?xml version="1.0"?>
<svg width="135" height="256">
  <circle cx="21" cy="175" r="13" fill="#800080" />
  <circle cx="108" cy="51" r="13" fill="#800080" />
  <circle cx="32" cy="155" r="9" fill="#800080" />
  <circle cx="24" cy="47" r="9" fill="#800080" />
  <circle cx="41" cy="47" r="9" fill="#800080" />
  <circle cx="42" cy="178" r="9" fill="#800080" />
  <circle cx="43" cy="140" r="9" fill="#800080" />
  <circle cx="54" cy="126" r="9" fill="#800080" />
  <circle cx="58" cy="47" r="9" fill="#800080" />
  <circle cx="59" cy="178" r="9" fill="#800080" />
  <circle cx="65" cy="112" r="9" fill="#800080" />
  <circle cx="75" cy="47" r="9" fill="#800080" />
  <circle cx="76" cy="98" r="9" fill="#800080" />
  <circle cx="76" cy="178" r="9" fill="#800080" />
  <circle cx="87" cy="83" r="9" fill="#800080" />
  <circle cx="93" cy="178" r="9" fill="#800080" />
  <circle cx="110" cy="178" r="9" fill="#800080" />
  <circle cx="99" cy="70" r="8" fill="#800080" />
  <circle cx="90" cy="45" r="6" fill="#800080" />
  <circle cx="123" cy="174" r="5" fill="#800080" />
  <circle cx="123" cy="183" r="5" fill="#800080" />
</svg>
