<?xml version="1.0"?>
<svg width="135" height="256">
  <circle cx="101" cy="80" r="12" fill="#800080" />
  <circle cx="27" cy="176" r="12" fill="#800080" />
  <circle cx="39" cy="158" r="9" fill="#800080" />
  <circle cx="51" cy="144" r="9" fill="#800080" />
  <circle cx="63" cy="129" r="9" fill="#800080" />
  <circle cx="75" cy="115" r="9" fill="#800080" />
  <circle cx="87" cy="101" r="9" fill="#800080" />
  <circle cx="27" cy="75" r="8" fill="#800080" />
  <circle cx="42" cy="75" r="8" fill="#800080" />
  <circle cx="46" cy="179" r="8" fill="#800080" />
  <circle cx="57" cy="75" r="8" fill="#800080" />
  <circle cx="61" cy="179" r="8" fill="#800080" />
  <circle cx="72" cy="75" r="8" fill="#800080" />
  <circle cx="76" cy="179" r="8" fill="#800080" />
  <circle cx="91" cy="179" r="8" fill="#800080" />
  <circle cx="106" cy="179" r="8" fill="#800080" />
  <circle cx="85" cy="73" r="5" fill="#800080" />
  <circle cx="99" cy="95" r="4" fill="#800080" />
  <circle cx="82" cy="80" r="3" fill="#800080" />
  <circle cx="28" cy="162" r="3" fill="#800080" />
  <circle cx="40" cy="147" r="3" fill="#800080" />
  <circle cx="52" cy="133" r="3" fill="#800080" />
  <circle cx="62" cy="140" r="3" fill="#800080" />
  <circle cx="74" cy="126" r="3" fill="#800080" />
  <circle cx="86" cy="112" r="3" fill="#800080" />
  <circle cx="87" cy="80" r="3" fill="#800080" />
  <circle cx="89" cy="89" r="3" fill="#800080" />
  <circle cx="115" cy="185" r="3" fill="#800080" />
</svg>
